{
.appVersion = "1361";
classes = (
{
automatic = 1;

glyphs = (
{
glyphname = A;
layers = (
{
anchors = (
{
name = bottom;
position = "{300, 0}";
},
{
name = ogonek;
position = "{500, 0}";
},
{
name = top;
position = "{300, 730}";
}
);
layerId = "CCC0BD40-BA8C-414E-B576-CF0B94E6C996";
paths = (
{
closed = 1;
nodes = (
"142 0 LINE",
"190 194 LINE",
"411 194 LINE",
"459 0 LINE",
"550 0 LINE",
"361 730 LINE",
"240 730 LINE",
"50 0 LINE"
);
},
{
closed = 1;
nodes = (
"264 496 LINE SMOOTH",
"285 580 OFFCURVE",
"297 640 OFFCURVE",
"300 658 CURVE",
"303 640 OFFCURVE",
"315 580 OFFCURVE",
"336 495 CURVE SMOOTH",
"392 270 LINE",
"208 270 LINE"
);
}
);
width = 600;
},
{
anchors = (
{
name = bottom;
position = "{300, 0}";
},
{
name = ogonek;
position = "{495, 0}";
},
{
name = top;
position = "{300, 730}";
}
);
layerId = "EDF5EB54-295C-4C90-9A2F-67CD82979CFF";
paths = (
{
closed = 1;
nodes = (
"118 0 LINE",
"174 210 LINE",
"424 210 LINE",
"480 0 LINE",
"532 0 LINE",
"331 730 LINE",
"269 730 LINE",
"68 0 LINE"
);
},
{
closed = 1;
nodes = (
"266 550 LINE SMOOTH",
"285 622 OFFCURVE",
"297 673 OFFCURVE",
"300 688 CURVE",
"303 673 OFFCURVE",
"314 622 OFFCURVE",
"333 550 CURVE SMOOTH",
"412 255 LINE",
"186 255 LINE"
);
}
);
width = 600;
},
{
anchors = (
{
name = bottom;
position = "{300, 0}";
},
{
name = ogonek;
position = "{465, 0}";
},
{
name = top;
position = "{300, 730}";
}
);
layerId = "9ADF6715-3D0F-493D-8567-18A6FBCFC567";
paths = (
{
closed = 1;
nodes = (
"178 0 LINE",
"213 165 LINE",
"387 165 LINE",
"422 0 LINE",
"575 0 LINE",
"394 730 LINE",
"204 730 LINE",
"25 0 LINE"
);
},
{
closed = 1;
nodes = (
"275 462 LINE SMOOTH",
"285 512 OFFCURVE",
"295 567 OFFCURVE",
"300 595 CURVE",
"305 567 OFFCURVE",
"316 512 OFFCURVE",
"326 461 CURVE SMOOTH",
"361 285 LINE",
"238 285 LINE"
);
}
);
width = 600;
}
);
unicode = 0041;
},
{
glyphname = Aogonek;
layers = (
{
components = (
{
name = A;
}
);
layerId = "EDF5EB54-295C-4C90-9A2F-67CD82979CFF";
paths = (
{
closed = 1;
nodes = (
"572 -195 LINE",
"572 -153 LINE",
"508 -153 LINE SMOOTH",
"476 -153 OFFCURVE",
"457 -134 OFFCURVE",
"457 -103 CURVE SMOOTH",
"457 -75 OFFCURVE",
"480 -36 OFFCURVE",
"518 0 CURVE SMOOTH",
"529 10 LINE",
"492 10 LINE",
"441 -27 OFFCURVE",
"410 -74 OFFCURVE",
"410 -115 CURVE SMOOTH",
"410 -165 OFFCURVE",
"444 -195 OFFCURVE",
"499 -195 CURVE"
);
}
);
width = 600;
},
{
components = (
{
name = A;
}
);
layerId = "CCC0BD40-BA8C-414E-B576-CF0B94E6C996";
paths = (
{
closed = 1;
nodes = (
"585 -203 LINE",
"585 -143 LINE",
"525 -143 LINE SMOOTH",
"491 -143 OFFCURVE",
"470 -122 OFFCURVE",
"470 -93 CURVE SMOOTH",
"470 -65 OFFCURVE",
"489 -36 OFFCURVE",
"534 1 CURVE",
"545 10 LINE",
"470 10 LINE",
"407 -34 OFFCURVE",
"385 -72 OFFCURVE",
"385 -110 CURVE SMOOTH",
"385 -164 OFFCURVE",
"433 -203 OFFCURVE",
"507 -203 CURVE SMOOTH"
);
}
);
width = 600;
},
{
components = (
{
name = A;
}
);
layerId = "9ADF6715-3D0F-493D-8567-18A6FBCFC567";
paths = (
{
closed = 1;
nodes = (
"572 -225 LINE",
"572 -120 LINE",
"503 -120 LINE SMOOTH",
"474 -120 OFFCURVE",
"457 -103 OFFCURVE",
"457 -83 CURVE SMOOTH",
"457 -66 OFFCURVE",
"472 -42 OFFCURVE",
"498 -18 CURVE SMOOTH",
"530 11 LINE",
"444 11 LINE",
"376 -19 OFFCURVE",
"333 -68 OFFCURVE",
"333 -115 CURVE SMOOTH",
"333 -180 OFFCURVE",
"383 -225 OFFCURVE",
"464 -225 CURVE SMOOTH"
);
}
);
width = 600;
}
);
unicode = 0104;
},
{
glyphname = AE;
layers = (
{
anchors = (
{
name = bottom;
position = "{300, 0}";
},
{
name = top;
position = "{300, 730}";
}
);
layerId = "9ADF6715-3D0F-493D-8567-18A6FBCFC567";
paths = (
{
closed = 1;
nodes = (
"143 0 LINE",
"169 165 LINE",
"291 165 LINE",
"291 0 LINE",
"580 0 LINE",
"580 126 LINE",
"416 126 LINE",
"416 305 LINE",
"555 305 LINE",
"555 436 LINE",
"416 436 LINE",
"416 605 LINE",
"580 605 LINE",
"580 730 LINE",
"137 730 LINE",
"0 0 LINE"
);
},
{
closed = 1;
nodes = (
"242 605 LINE",
"291 605 LINE",
"291 270 LINE",
"186 270 LINE"
);
}
);
width = 600;
},
{
anchors = (
{
name = bottom;
position = "{300, 0}";
},
{
name = top;
position = "{300, 730}";
}
);
layerId = "CCC0BD40-BA8C-414E-B576-CF0B94E6C996";
paths = (
{
closed = 1;
nodes = (
"121 0 LINE",
"161 203 LINE",
"302 203 LINE",
"302 0 LINE",
"570 0 LINE",
"570 82 LINE",
"388 82 LINE",
"388 338 LINE",
"545 338 LINE",
"545 420 LINE",
"388 420 LINE",
"388 648 LINE",
"570 648 LINE",
"570 730 LINE",
"175 730 LINE",
"30 0 LINE"
);
},
{
closed = 1;
nodes = (
"246 648 LINE",
"302 648 LINE",
"302 278 LINE",
"175 278 LINE"
);
}
);
width = 600;
},
{
anchors = (
{
name = bottom;
position = "{300, 0}";
},
{
name = top;
position = "{300, 730}";
}
);
layerId = "EDF5EB54-295C-4C90-9A2F-67CD82979CFF";
paths = (
{
closed = 1;
nodes = (
"84 0 LINE",
"140 215 LINE",
"310 215 LINE",
"310 0 LINE",
"569 0 LINE",
"569 45 LINE",
"360 45 LINE",
"360 357 LINE",
"533 357 LINE",
"533 402 LINE",
"360 402 LINE",
"360 685 LINE",
"569 685 LINE",
"569 730 LINE",
"222 730 LINE",
"34 0 LINE"
);
},
{
closed = 1;
nodes = (
"259 685 LINE",
"310 685 LINE",
"310 260 LINE",
"153 260 LINE"
);
}
);
width = 600;
}
);
unicode = 00C6;
},
{
glyphname = B;
layers = (
{
anchors = (
{
name = bottom;
position = "{300, 0}";
},
{
name = top;
position = "{300, 730}";
}
);
layerId = "9ADF6715-3D0F-493D-8567-18A6FBCFC567";
paths = (
{
closed = 1;
nodes = (
"310 0 LINE SMOOTH",
"460 0 OFFCURVE",
"561 84 OFFCURVE",
"561 211 CURVE SMOOTH",
"561 304 OFFCURVE",
"504 378 OFFCURVE",
"422 387 CURVE",
"422 389 LINE",
"494 399 OFFCURVE",
"544 459 OFFCURVE",
"544 542 CURVE SMOOTH",
"544 655 OFFCURVE",
"447 730 OFFCURVE",
"301 730 CURVE SMOOTH",
"66 730 LINE",
"66 0 LINE"
);
},
{
closed = 1;
nodes = (
"211 318 LINE",
"305 318 LINE SMOOTH",
"370 318 OFFCURVE",
"410 280 OFFCURVE",
"410 219 CURVE SMOOTH",
"410 158 OFFCURVE",
"370 121 OFFCURVE",
"305 121 CURVE SMOOTH",
"211 121 LINE"
);
},
{
closed = 1;
nodes = (
"211 609 LINE",
"299 609 LINE SMOOTH",
"357 609 OFFCURVE",
"393 577 OFFCURVE",
"393 523 CURVE SMOOTH",
"393 469 OFFCURVE",
"357 436 OFFCURVE",
"299 436 CURVE SMOOTH",
"211 436 LINE"
);
}
);
width = 600;
},
{
anchors = (
{
name = bottom;
position = "{300, 0}";
},
{
name = top;
position = "{300, 730}";
}
);
layerId = "CCC0BD40-BA8C-414E-B576-CF0B94E6C996";
paths = (
{
closed = 1;
nodes = (
"315 0 LINE SMOOTH",
"448 0 OFFCURVE",
"530 78 OFFCURVE",
"530 203 CURVE SMOOTH",
"530 295 OFFCURVE",
"471 370 OFFCURVE",
"385 381 CURVE",
"385 384 LINE",
"461 399 OFFCURVE",
"513 466 OFFCURVE",
"513 541 CURVE SMOOTH",
"513 659 OFFCURVE",
"433 730 OFFCURVE",
"300 730 CURVE SMOOTH",
"93 730 LINE",
"93 0 LINE"
);
},
{
closed = 1;
nodes = (
"181 341 LINE",
"305 341 LINE SMOOTH",
"389 341 OFFCURVE",
"441 286 OFFCURVE",
"441 206 CURVE SMOOTH",
"441 129 OFFCURVE",
"389 81 OFFCURVE",
"305 81 CURVE SMOOTH",
"181 81 LINE"
);
},
{
closed = 1;
nodes = (
"181 649 LINE",
"300 649 LINE SMOOTH",
"377 649 OFFCURVE",
"424 605 OFFCURVE",
"424 534 CURVE SMOOTH",
"424 463 OFFCURVE",
"376 419 OFFCURVE",
"299 419 CURVE SMOOTH",
"181 419 LINE"
);
}
);
width = 600;
},
{
anchors = (
{
name = bottom;
position = "{300, 0}";
},
{
name = top;
position = "{300, 730}";
}
);
layerId = "EDF5EB54-295C-4C90-9A2F-67CD82979CFF";
paths = (
{
closed = 1;
nodes = (
"301 0 LINE SMOOTH",
"433 0 OFFCURVE",
"515 78 OFFCURVE",
"515 200 CURVE SMOOTH",
"515 289 OFFCURVE",
"455 368 OFFCURVE",
"375 381 CURVE",
"375 384 LINE",
"445 397 OFFCURVE",
"498 467 OFFCURVE",
"498 542 CURVE SMOOTH",
"498 656 OFFCURVE",
"419 730 OFFCURVE",
"298 730 CURVE SMOOTH",
"110 730 LINE",
"110 0 LINE"
);
},
{
closed = 1;
nodes = (
"160 353 LINE",
"301 353 LINE SMOOTH",
"403 353 OFFCURVE",
"466 294 OFFCURVE",
"466 199 CURVE SMOOTH",
"466 104 OFFCURVE",
"403 46 OFFCURVE",
"301 46 CURVE SMOOTH",
"160 46 LINE"
);
},
{
closed = 1;
nodes = (
"160 684 LINE",
"298 684 LINE SMOOTH",
"391 684 OFFCURVE",
"448 630 OFFCURVE",
"448 541 CURVE SMOOTH",
"448 452 OFFCURVE",
"392 398 OFFCURVE",
"298 398 CURVE SMOOTH",
"160 398 LINE"
);
}
);
width = 600;
}
);
unicode = 0042;
},
{
glyphname = C;
layers = (
{
anchors = (
{
name = bottom;
position = "{305, 0}";
},
{
name = top;
position = "{305, 730}";
}
);
layerId = "9ADF6715-3D0F-493D-8567-18A6FBCFC567";
paths = (
{
closed = 1;
nodes = (
"455 -10 OFFCURVE",
"552 77 OFFCURVE",
"552 210 CURVE",
"402 210 LINE",
"402 152 OFFCURVE",
"368 120 OFFCURVE",
"308 120 CURVE SMOOTH",
"248 120 OFFCURVE",
"214 152 OFFCURVE",
"214 210 CURVE SMOOTH",
"214 520 LINE SMOOTH",
"214 578 OFFCURVE",
"248 610 OFFCURVE",
"308 610 CURVE SMOOTH",
"368 610 OFFCURVE",
"402 578 OFFCURVE",
"402 520 CURVE",
"552 520 LINE",
"552 653 OFFCURVE",
"455 740 OFFCURVE",
"308 740 CURVE SMOOTH",
"161 740 OFFCURVE",
"64 653 OFFCURVE",
"64 520 CURVE SMOOTH",
"64 210 LINE SMOOTH",
"64 78 OFFCURVE",
"161 -10 OFFCURVE",
"308 -10 CURVE SMOOTH"
);
}
);
width = 600;
},
{
anchors = (
{
name = bottom;
position = "{305, 0}";
},
{
name = top;
position = "{305, 730}";
}
);
layerId = "EDF5EB54-295C-4C90-9A2F-67CD82979CFF";
paths = (
{
closed = 1;
nodes = (
"434 -10 OFFCURVE",
"514 72 OFFCURVE",
"514 200 CURVE",
"464 200 LINE",
"464 98 OFFCURVE",
"406 35 OFFCURVE",
"310 35 CURVE SMOOTH",
"216 35 OFFCURVE",
"159 94 OFFCURVE",
"159 190 CURVE SMOOTH",
"159 540 LINE SMOOTH",
"159 636 OFFCURVE",
"217 695 OFFCURVE",
"310 695 CURVE SMOOTH",
"405 695 OFFCURVE",
"464 632 OFFCURVE",
"464 530 CURVE",
"514 530 LINE",
"514 658 OFFCURVE",
"434 740 OFFCURVE",
"310 740 CURVE SMOOTH",
"188 740 OFFCURVE",
"109 662 OFFCURVE",
"109 540 CURVE SMOOTH",
"109 190 LINE SMOOTH",
"109 69 OFFCURVE",
"188 -10 OFFCURVE",
"310 -10 CURVE SMOOTH"
);
}
);
width = 600;
},
{
anchors = (
{
name = bottom;
position = "{305, 0}";
},
{
name = top;
position = "{305, 730}";
}
);
layerId = "CCC0BD40-BA8C-414E-B576-CF0B94E6C996";
paths = (
{
closed = 1;
nodes = (
"439 -10 OFFCURVE",
"522 71 OFFCURVE",
"522 200 CURVE",
"432 200 LINE",
"432 117 OFFCURVE",
"386 71 OFFCURVE",
"308 71 CURVE SMOOTH",
"229 71 OFFCURVE",
"182 117 OFFCURVE",
"182 200 CURVE SMOOTH",
"182 530 LINE SMOOTH",
"182 613 OFFCURVE",
"229 659 OFFCURVE",
"308 659 CURVE SMOOTH",
"386 659 OFFCURVE",
"432 613 OFFCURVE",
"432 530 CURVE",
"522 530 LINE",
"522 659 OFFCURVE",
"439 740 OFFCURVE",
"308 740 CURVE SMOOTH",
"175 740 OFFCURVE",
"92 661 OFFCURVE",
"92 530 CURVE SMOOTH",
"92 200 LINE SMOOTH",
"92 69 OFFCURVE",
"175 -10 OFFCURVE",
"308 -10 CURVE SMOOTH"
);
}
);
width = 600;
}
);
unicode = 0043;
},
{
glyphname = Ccedilla;
layers = (
{
anchors = (
{
name = _bottom;
position = "{305, 0}";
}
);
components = (
{
name = C;
}
);
layerId = "EDF5EB54-295C-4C90-9A2F-67CD82979CFF";
paths = (
{
closed = 1;
nodes = (
"320 -195 LINE SMOOTH",
"380 -195 OFFCURVE",
"420 -161 OFFCURVE",
"420 -118 CURVE SMOOTH",
"420 -61 OFFCURVE",
"357 -37 OFFCURVE",
"310 -34 CURVE",
"333 26 LINE",
"291 26 LINE",
"256 -64 LINE",
"327 -64 OFFCURVE",
"374 -86 OFFCURVE",
"374 -118 CURVE SMOOTH",
"374 -140 OFFCURVE",
"352 -160 OFFCURVE",
"320 -160 CURVE SMOOTH",
"240 -160 LINE",
"240 -195 LINE"
);
}
);
width = 600;
},
{
anchors = (
{
name = _bottom;
position = "{305, 0}";
}
);
components = (
{
name = C;
}
);
layerId = "CCC0BD40-BA8C-414E-B576-CF0B94E6C996";
paths = (
{
closed = 1;
nodes = (
"295 -203 LINE SMOOTH",
"367 -203 OFFCURVE",
"415 -166 OFFCURVE",
"415 -120 CURVE SMOOTH",
"415 -68 OFFCURVE",
"347 -41 OFFCURVE",
"295 -35 CURVE",
"316 26 LINE",
"259 26 LINE",
"224 -69 LINE",
"291 -69 OFFCURVE",
"329 -89 OFFCURVE",
"329 -112 CURVE SMOOTH",
"329 -130 OFFCURVE",
"309 -148 OFFCURVE",
"280 -148 CURVE SMOOTH",
"210 -148 LINE",
"210 -203 LINE"
);
}
);
width = 600;
},
{
anchors = (
{
name = _bottom;
position = "{305, 0}";
}
);
components = (
{
name = C;
}
);
layerId = "9ADF6715-3D0F-493D-8567-18A6FBCFC567";
paths = (
{
closed = 1;
nodes = (
"310 -225 LINE SMOOTH",
"394 -225 OFFCURVE",
"450 -182 OFFCURVE",
"450 -133 CURVE SMOOTH",
"450 -72 OFFCURVE",
"369 -43 OFFCURVE",
"308 -39 CURVE",
"327 16 LINE",
"254 16 LINE",
"219 -69 LINE",
"292 -69 OFFCURVE",
"335 -88 OFFCURVE",
"335 -119 CURVE SMOOTH",
"335 -135 OFFCURVE",
"313 -155 OFFCURVE",
"280 -155 CURVE SMOOTH",
"200 -155 LINE",
"200 -225 LINE"
);
}
);
width = 600;
}
);
unicode = 00C7;
},
{
glyphname = D;
layers = (
{
anchors = (
{
name = bottom;
position = "{300, 0}";
},
{
name = center;
position = "{300, 365}";
},
{
name = top;
position = "{300, 730}";
}
);
layerId = "9ADF6715-3D0F-493D-8567-18A6FBCFC567";
paths = (
{
closed = 1;
nodes = (
"300 0 LINE SMOOTH",
"451 0 OFFCURVE",
"552 94 OFFCURVE",
"552 235 CURVE SMOOTH",
"552 496 LINE SMOOTH",
"552 637 OFFCURVE",
"451 730 OFFCURVE",
"300 730 CURVE SMOOTH",
"63 730 LINE",
"63 0 LINE"
);
},
{
closed = 1;
nodes = (
"213 595 LINE",
"300 595 LINE SMOOTH",
"360 595 OFFCURVE",
"402 555 OFFCURVE",
"402 496 CURVE SMOOTH",
"402 235 LINE SMOOTH",
"402 176 OFFCURVE",
"360 135 OFFCURVE",
"300 135 CURVE SMOOTH",
"213 135 LINE"
);
}
);
width = 600;
},
{
anchors = (
{
name = bottom;
position = "{300, 0}";
},
{
name = center;
position = "{300, 365}";
},
{
name = top;
position = "{300, 730}";
}
);
layerId = "CCC0BD40-BA8C-414E-B576-CF0B94E6C996";
paths = (
{
closed = 1;
nodes = (
"281 0 LINE SMOOTH",
"422 0 OFFCURVE",
"512 86 OFFCURVE",
"512 220 CURVE SMOOTH",
"512 511 LINE SMOOTH",
"512 644 OFFCURVE",
"422 730 OFFCURVE",
"281 730 CURVE SMOOTH",
"92 730 LINE",
"92 0 LINE"
);
},
{
closed = 1;
nodes = (
"182 650 LINE",
"281 650 LINE SMOOTH",
"369 650 OFFCURVE",
"422 598 OFFCURVE",
"422 511 CURVE SMOOTH",
"422 220 LINE SMOOTH",
"422 132 OFFCURVE",
"369 80 OFFCURVE",
"281 80 CURVE SMOOTH",
"182 80 LINE"
);
}
);
width = 600;
},
{
anchors = (
{
name = bottom;
position = "{300, 0}";
},
{
name = center;
position = "{300, 365}";
},
{
name = top;
position = "{300, 730}";
}
);
layerId = "EDF5EB54-295C-4C90-9A2F-67CD82979CFF";
paths = (
{
closed = 1;
nodes = (
"270 0 LINE SMOOTH",
"405 0 OFFCURVE",
"495 88 OFFCURVE",
"495 220 CURVE SMOOTH",
"495 510 LINE SMOOTH",
"495 642 OFFCURVE",
"405 730 OFFCURVE",
"270 730 CURVE SMOOTH",
"110 730 LINE",
"110 0 LINE"
);
},
{
closed = 1;
nodes = (
"160 684 LINE",
"270 684 LINE SMOOTH",
"374 684 OFFCURVE",
"445 614 OFFCURVE",
"445 510 CURVE SMOOTH",
"445 220 LINE SMOOTH",
"445 115 OFFCURVE",
"375 46 OFFCURVE",
"270 46 CURVE SMOOTH",
"160 46 LINE"
);
}
);
width = 600;
}
);
unicode = 0044;
},
{
glyphname = Eth;
layers = (
{
components = (
{
name = D;
}
);
layerId = "9ADF6715-3D0F-493D-8567-18A6FBCFC567";
paths = (
{
closed = 1;
nodes = (
"290 325 LINE",
"290 420 LINE",
"10 420 LINE",
"10 325 LINE"
);
}
);
width = 600;
},
{
components = (
{
name = D;
}
);
layerId = "CCC0BD40-BA8C-414E-B576-CF0B94E6C996";
paths = (
{
closed = 1;
nodes = (
"290 335 LINE",
"290 410 LINE",
"10 410 LINE",
"10 335 LINE"
);
}
);
width = 600;
},
{
components = (
{
name = D;
}
);
layerId = "EDF5EB54-295C-4C90-9A2F-67CD82979CFF";
paths = (
{
closed = 1;
nodes = (
"290 351 LINE",
"290 395 LINE",
"10 395 LINE",
"10 351 LINE"
);
}
);
width = 600;
}
);
unicode = 00D0;
},
{
glyphname = Dcroat;
layers = (
{
components = (
{
name = D;
}
);
layerId = "EDF5EB54-295C-4C90-9A2F-67CD82979CFF";
paths = (
{
closed = 1;
nodes = (
"290 351 LINE",
"290 395 LINE",
"10 395 LINE",
"10 351 LINE"
);
}
);
width = 600;
},
{
components = (
{
name = D;
}
);
layerId = "CCC0BD40-BA8C-414E-B576-CF0B94E6C996";
paths = (
{
closed = 1;
nodes = (
"290 335 LINE",
"290 410 LINE",
"10 410 LINE",
"10 335 LINE"
);
}
);
width = 600;
},
{
components = (
{
name = D;
}
);
layerId = "9ADF6715-3D0F-493D-8567-18A6FBCFC567";
paths = (
{
closed = 1;
nodes = (
"290 325 LINE",
"290 420 LINE",
"10 420 LINE",
"10 325 LINE"
);
}
);
width = 600;
}
);
unicode = 0110;
},
{
glyphname = E;
layers = (
{
anchors = (
{
name = bottom;
position = "{320, 0}";
},
{
name = ogonek;
position = "{430, 0}";
},
{
name = top;
position = "{320, 730}";
},
{
name = topleft;
position = "{20, 730}";
}
);
layerId = "9ADF6715-3D0F-493D-8567-18A6FBCFC567";
paths = (
{
closed = 1;
nodes = (
"530 0 LINE",
"530 130 LINE",
"227 130 LINE",
"227 312 LINE",
"495 312 LINE",
"495 436 LINE",
"227 436 LINE",
"227 600 LINE",
"530 600 LINE",
"530 730 LINE",
"80 730 LINE",
"80 0 LINE"
);
}
);
width = 600;
},
{
anchors = (
{
name = bottom;
position = "{320, 0}";
},
{
name = ogonek;
position = "{440, 0}";
},
{
name = top;
position = "{320, 730}";
},
{
name = topleft;
position = "{20, 730}";
}
);
layerId = "CCC0BD40-BA8C-414E-B576-CF0B94E6C996";
paths = (
{
closed = 1;
nodes = (
"520 0 LINE",
"520 82 LINE",
"189 82 LINE",
"189 342 LINE",
"485 342 LINE",
"485 422 LINE",
"189 422 LINE",
"189 648 LINE",
"520 648 LINE",
"520 730 LINE",
"100 730 LINE",
"100 0 LINE"
);
}
);
width = 600;
},
{
anchors = (
{
name = bottom;
position = "{320, 0}";
},
{
name = ogonek;
position = "{440, 0}";
},
{
name = top;
position = "{320, 730}";
},
{
name = topleft;
position = "{20, 730}";
}
);
layerId = "EDF5EB54-295C-4C90-9A2F-67CD82979CFF";
paths = (
{
closed = 1;
nodes = (
"510 0 LINE",
"510 46 LINE",
"170 46 LINE",
"170 358 LINE",
"475 358 LINE",
"475 403 LINE",
"170 403 LINE",
"170 684 LINE",
"510 684 LINE",
"510 730 LINE",
"120 730 LINE",
"120 0 LINE"
);
}
);
width = 600;
}
);
unicode = 0045;
},
{
glyphname = Eogonek;
layers = (
{
components = (
{
alignment = -1;
name = E;
}
);
layerId = "9ADF6715-3D0F-493D-8567-18A6FBCFC567";
paths = (
{
closed = 1;
nodes = (
"534 -225 LINE",
"534 -120 LINE",
"465 -120 LINE SMOOTH",
"436 -120 OFFCURVE",
"419 -103 OFFCURVE",
"419 -83 CURVE SMOOTH",
"419 -66 OFFCURVE",
"434 -42 OFFCURVE",
"460 -18 CURVE SMOOTH",
"492 11 LINE",
"406 11 LINE",
"338 -19 OFFCURVE",
"295 -68 OFFCURVE",
"295 -115 CURVE SMOOTH",
"295 -180 OFFCURVE",
"345 -225 OFFCURVE",
"426 -225 CURVE SMOOTH"
);
}
);
width = 600;
},
{
components = (
{
alignment = -1;
name = E;
}
);
layerId = "CCC0BD40-BA8C-414E-B576-CF0B94E6C996";
paths = (
{
closed = 1;
nodes = (
"525 -203 LINE",
"525 -143 LINE",
"465 -143 LINE SMOOTH",
"431 -143 OFFCURVE",
"410 -122 OFFCURVE",
"410 -93 CURVE SMOOTH",
"410 -65 OFFCURVE",
"429 -36 OFFCURVE",
"474 1 CURVE",
"485 10 LINE",
"410 10 LINE",
"347 -34 OFFCURVE",
"325 -72 OFFCURVE",
"325 -110 CURVE SMOOTH",
"325 -164 OFFCURVE",
"373 -203 OFFCURVE",
"447 -203 CURVE SMOOTH"
);
}
);
width = 600;
},
{
components = (
{
alignment = -1;
name = E;
}
);
layerId = "EDF5EB54-295C-4C90-9A2F-67CD82979CFF";
paths = (
{
closed = 1;
nodes = (
"515 -195 LINE",
"515 -153 LINE",
"451 -153 LINE SMOOTH",
"419 -153 OFFCURVE",
"400 -134 OFFCURVE",
"400 -103 CURVE SMOOTH",
"400 -75 OFFCURVE",
"423 -36 OFFCURVE",
"461 0 CURVE SMOOTH",
"472 10 LINE",
"435 10 LINE",
"384 -27 OFFCURVE",
"353 -74 OFFCURVE",
"353 -115 CURVE SMOOTH",
"353 -165 OFFCURVE",
"387 -195 OFFCURVE",
"442 -195 CURVE"
);
}
);
width = 600;
}
);
unicode = 0118;
},
{
glyphname = F;
layers = (
{
anchors = (
{
name = bottom;
position = "{300, 0}";
},
{
name = top;
position = "{300, 730}";
}
);
layerId = "9ADF6715-3D0F-493D-8567-18A6FBCFC567";
paths = (
{
closed = 1;
nodes = (
"220 0 LINE",
"220 288 LINE",
"514 288 LINE",
"514 428 LINE",
"218 428 LINE",
"218 590 LINE",
"540 590 LINE",
"540 730 LINE",
"70 730 LINE",
"70 0 LINE"
);
}
);
width = 600;
},
{
anchors = (
{
name = bottom;
position = "{300, 0}";
},
{
name = top;
position = "{300, 730}";
}
);
layerId = "CCC0BD40-BA8C-414E-B576-CF0B94E6C996";
paths = (
{
closed = 1;
nodes = (
"185 0 LINE",
"185 324 LINE",
"499 324 LINE",
"499 406 LINE",
"183 406 LINE",
"183 648 LINE",
"525 648 LINE",
"525 730 LINE",
"95 730 LINE",
"95 0 LINE"
);
}
);
width = 600;
},
{
anchors = (
{
name = bottom;
position = "{300, 0}";
},
{
name = top;
position = "{300, 730}";
}
);
layerId = "EDF5EB54-295C-4C90-9A2F-67CD82979CFF";
paths = (
{
closed = 1;
nodes = (
"165 0 LINE",
"165 346 LINE",
"490 346 LINE",
"490 392 LINE",
"165 392 LINE",
"165 684 LINE",
"525 684 LINE",
"525 730 LINE",
"115 730 LINE",
"115 0 LINE"
);
}
);
width = 600;
}
);
unicode = 0046;
},
{
glyphname = G;
layers = (
{
anchors = (
{
name = bottom;
position = "{304, 0}";
},
{
name = top;
position = "{300, 730}";
}
);
layerId = "9ADF6715-3D0F-493D-8567-18A6FBCFC567";
paths = (
{
closed = 1;
nodes = (
"451 -10 OFFCURVE",
"548 77 OFFCURVE",
"548 210 CURVE SMOOTH",
"548 405 LINE",
"290 405 LINE",
"290 278 LINE",
"398 278 LINE",
"398 210 LINE SMOOTH",
"398 152 OFFCURVE",
"364 120 OFFCURVE",
"304 120 CURVE SMOOTH",
"244 120 OFFCURVE",
"210 152 OFFCURVE",
"210 210 CURVE SMOOTH",
"210 520 LINE SMOOTH",
"210 578 OFFCURVE",
"244 610 OFFCURVE",
"304 610 CURVE SMOOTH",
"364 610 OFFCURVE",
"398 578 OFFCURVE",
"398 520 CURVE",
"548 520 LINE",
"548 653 OFFCURVE",
"451 740 OFFCURVE",
"304 740 CURVE SMOOTH",
"157 740 OFFCURVE",
"60 653 OFFCURVE",
"60 520 CURVE SMOOTH",
"60 210 LINE SMOOTH",
"60 78 OFFCURVE",
"157 -10 OFFCURVE",
"304 -10 CURVE SMOOTH"
);
}
);
width = 600;
},
{
anchors = (
{
name = bottom;
position = "{304, 0}";
},
{
name = top;
position = "{300, 730}";
}
);
layerId = "CCC0BD40-BA8C-414E-B576-CF0B94E6C996";
paths = (
{
closed = 1;
nodes = (
"435 -10 OFFCURVE",
"518 71 OFFCURVE",
"518 200 CURVE SMOOTH",
"518 382 LINE",
"280 382 LINE",
"280 300 LINE",
"428 300 LINE",
"428 200 LINE SMOOTH",
"428 117 OFFCURVE",
"382 70 OFFCURVE",
"304 70 CURVE SMOOTH",
"225 70 OFFCURVE",
"178 117 OFFCURVE",
"178 200 CURVE SMOOTH",
"178 531 LINE SMOOTH",
"178 613 OFFCURVE",
"225 659 OFFCURVE",
"304 659 CURVE SMOOTH",
"382 659 OFFCURVE",
"428 613 OFFCURVE",
"428 530 CURVE",
"518 530 LINE",
"518 659 OFFCURVE",
"435 740 OFFCURVE",
"304 740 CURVE SMOOTH",
"171 740 OFFCURVE",
"88 661 OFFCURVE",
"88 530 CURVE SMOOTH",
"88 200 LINE SMOOTH",
"88 69 OFFCURVE",
"171.007 -10 OFFCURVE",
"304 -10 CURVE SMOOTH"
);
}
);
width = 600;
},
{
anchors = (
{
name = bottom;
position = "{306, 0}";
},
{
name = top;
position = "{306, 730}";
}
);
layerId = "EDF5EB54-295C-4C90-9A2F-67CD82979CFF";
paths = (
{
closed = 1;
nodes = (
"430 -10 OFFCURVE",
"510 72 OFFCURVE",
"510 200 CURVE SMOOTH",
"510 364 LINE",
"287 364 LINE",
"287 318 LINE",
"460 318 LINE",
"460 200 LINE SMOOTH",
"460 98 OFFCURVE",
"402 35 OFFCURVE",
"306 35 CURVE SMOOTH",
"212 35 OFFCURVE",
"155 94 OFFCURVE",
"155 190 CURVE SMOOTH",
"155 540 LINE SMOOTH",
"155 636 OFFCURVE",
"213 695 OFFCURVE",
"306 695 CURVE SMOOTH",
"401 695 OFFCURVE",
"460 632 OFFCURVE",
"460 530 CURVE",
"510 530 LINE",
"510 658 OFFCURVE",
"430 740 OFFCURVE",
"306 740 CURVE SMOOTH",
"184 740 OFFCURVE",
"105 662 OFFCURVE",
"105 540 CURVE SMOOTH",
"105 190 LINE SMOOTH",
"105 69 OFFCURVE",
"184 -10 OFFCURVE",
"306 -10 CURVE SMOOTH"
);
}
);
width = 600;
}
);
unicode = 0047;
},
{
glyphname = H;
layers = (
{
anchors = (
{
name = bottom;
position = "{300, 0}";
},
{
name = center;
position = "{300, 365}";
},
{
name = top;
position = "{300, 730}";
},
{
name = topleft;
position = "{20, 730}";
}
);
layerId = "9ADF6715-3D0F-493D-8567-18A6FBCFC567";
paths = (
{
closed = 1;
nodes = (
"216 0 LINE",
"216 311 LINE",
"384 311 LINE",
"384 0 LINE",
"534 0 LINE",
"534 730 LINE",
"384 730 LINE",
"384 446 LINE",
"216 446 LINE",
"216 730 LINE",
"66 730 LINE",
"66 0 LINE"
);
}
);
width = 600;
},
{
anchors = (
{
name = bottom;
position = "{300, 0}";
},
{
name = center;
position = "{300, 365}";
},
{
name = top;
position = "{300, 730}";
},
{
name = topleft;
position = "{20, 730}";
}
);
layerId = "CCC0BD40-BA8C-414E-B576-CF0B94E6C996";
paths = (
{
closed = 1;
nodes = (
"183 0 LINE",
"183 336 LINE",
"417 336 LINE",
"417 0 LINE",
"507 0 LINE",
"507 730 LINE",
"417 730 LINE",
"417 418 LINE",
"183 418 LINE",
"183 730 LINE",
"93 730 LINE",
"93 0 LINE"
);
}
);
width = 600;
},
{
anchors = (
{
name = bottom;
position = "{300, 0}";
},
{
name = center;
position = "{300, 365}";
},
{
name = top;
position = "{300, 730}";
},
{
name = topleft;
position = "{20, 730}";
}
);
layerId = "EDF5EB54-295C-4C90-9A2F-67CD82979CFF";
paths = (
{
closed = 1;
nodes = (
"160 0 LINE",
"160 357 LINE",
"440 357 LINE",
"440 0 LINE",
"490 0 LINE",
"490 730 LINE",
"440 730 LINE",
"440 402 LINE",
"160 402 LINE",
"160 730 LINE",
"110 730 LINE",
"110 0 LINE"
);
}
);
width = 600;
}
);
unicode = 0048;
},
{
glyphname = Hbar;
layers = (
{
components = (
{
alignment = -1;
name = H;
}
);
layerId = "9ADF6715-3D0F-493D-8567-18A6FBCFC567";
paths = (
{
closed = 1;
nodes = (
"590 525 LINE",
"590 620 LINE",
"10 620 LINE",
"10 525 LINE"
);
}
);
width = 600;
},
{
components = (
{
alignment = -1;
name = H;
}
);
layerId = "CCC0BD40-BA8C-414E-B576-CF0B94E6C996";
paths = (
{
closed = 1;
nodes = (
"590 525 LINE",
"590 600 LINE",
"10 600 LINE",
"10 525 LINE"
);
}
);
width = 600;
},
{
components = (
{
alignment = -1;
name = H;
}
);
layerId = "EDF5EB54-295C-4C90-9A2F-67CD82979CFF";
paths = (
{
closed = 1;
nodes = (
"590 540 LINE",
"590 584 LINE",
"10 584 LINE",
"10 540 LINE"
);
}
);
width = 600;
}
);
unicode = 0126;
},
{
glyphname = I;
layers = (
{
anchors = (
{
name = bottom;
position = "{300, 0}";
},
{
name = ogonek;
position = "{320, 0}";
},
{
name = top;
position = "{300, 730}";
},
{
name = topleft;
position = "{20, 730}";
}
);
layerId = "9ADF6715-3D0F-493D-8567-18A6FBCFC567";
paths = (
{
closed = 1;
nodes = (
"520 0 LINE",
"520 135 LINE",
"375 135 LINE",
"375 595 LINE",
"520 595 LINE",
"520 730 LINE",
"80 730 LINE",
"80 595 LINE",
"225 595 LINE",
"225 135 LINE",
"80 135 LINE",
"80 0 LINE"
);
}
);
width = 600;
},
{
anchors = (
{
name = bottom;
position = "{300, 0}";
},
{
name = ogonek;
position = "{320, 0}";
},
{
name = top;
position = "{300, 730}";
},
{
name = topleft;
position = "{20, 730}";
}
);
layerId = "CCC0BD40-BA8C-414E-B576-CF0B94E6C996";
paths = (
{
closed = 1;
nodes = (
"495 0 LINE",
"495 82 LINE",
"346 82 LINE",
"346 648 LINE",
"495 648 LINE",
"495 730 LINE",
"105 730 LINE",
"105 648 LINE",
"254 648 LINE",
"254 82 LINE",
"105 82 LINE",
"105 0 LINE"
);
}
);
width = 600;
},
{
anchors = (
{
name = bottom;
position = "{300, 0}";
},
{
name = ogonek;
position = "{320, 0}";
},
{
name = top;
position = "{300, 730}";
},
{
name = topleft;
position = "{20, 730}";
}
);
layerId = "EDF5EB54-295C-4C90-9A2F-67CD82979CFF";
paths = (
{
closed = 1;
nodes = (
"480 0 LINE",
"480 46 LINE",
"326 46 LINE",
"326 684 LINE",
"480 684 LINE",
"480 730 LINE",
"120 730 LINE",
"120 684 LINE",
"276 684 LINE",
"276 46 LINE",
"120 46 LINE",
"120 0 LINE"
);
}
);
width = 600;
}
);
unicode = 0049;
},
{
glyphname = Iogonek;
layers = (
{
components = (
{
name = I;
}
);
layerId = "EDF5EB54-295C-4C90-9A2F-67CD82979CFF";
paths = (
{
closed = 1;
nodes = (
"375 -195 LINE",
"375 -153 LINE",
"311 -153 LINE SMOOTH",
"279 -153 OFFCURVE",
"260 -134 OFFCURVE",
"260 -103 CURVE SMOOTH",
"260 -75 OFFCURVE",
"283 -36 OFFCURVE",
"321 0 CURVE SMOOTH",
"332 10 LINE",
"295 10 LINE",
"244 -27 OFFCURVE",
"213 -74 OFFCURVE",
"213 -115 CURVE SMOOTH",
"213 -165 OFFCURVE",
"247 -195 OFFCURVE",
"302 -195 CURVE"
);
}
);
width = 600;
},
{
components = (
{
name = I;
}
);
layerId = "CCC0BD40-BA8C-414E-B576-CF0B94E6C996";
paths = (
{
closed = 1;
nodes = (
"385 -203 LINE",
"385 -143 LINE",
"325 -143 LINE SMOOTH",
"291 -143 OFFCURVE",
"270 -122 OFFCURVE",
"270 -93 CURVE SMOOTH",
"270 -65 OFFCURVE",
"289 -36 OFFCURVE",
"334 1 CURVE",
"345 10 LINE",
"270 10 LINE",
"207 -34 OFFCURVE",
"185 -72 OFFCURVE",
"185 -110 CURVE SMOOTH",
"185 -164 OFFCURVE",
"233 -203 OFFCURVE",
"307 -203 CURVE SMOOTH"
);
}
);
width = 600;
},
{
components = (
{
name = I;
}
);
layerId = "9ADF6715-3D0F-493D-8567-18A6FBCFC567";
paths = (
{
closed = 1;
nodes = (
"404 -225 LINE",
"404 -120 LINE",
"335 -120 LINE SMOOTH",
"306 -120 OFFCURVE",
"289 -103 OFFCURVE",
"289 -83 CURVE SMOOTH",
"289 -66 OFFCURVE",
"304 -42 OFFCURVE",
"330 -18 CURVE SMOOTH",
"362 11 LINE",
"276 11 LINE",
"208 -19 OFFCURVE",
"165 -68 OFFCURVE",
"165 -115 CURVE SMOOTH",
"165 -180 OFFCURVE",
"215 -225 OFFCURVE",
"296 -225 CURVE SMOOTH"
);
}
);
width = 600;
}
);
unicode = 012E;
},
{
glyphname = J;
layers = (
{
anchors = (
{
name = bottom;
position = "{300, 0}";
},
{
name = top;
position = "{450, 730}";
}
);
layerId = "9ADF6715-3D0F-493D-8567-18A6FBCFC567";
paths = (
{
closed = 1;
nodes = (
"424 -10 OFFCURVE",
"520 78 OFFCURVE",
"520 219 CURVE SMOOTH",
"520 730 LINE",
"370 730 LINE",
"370 219 LINE SMOOTH",
"370 158 OFFCURVE",
"331 120 OFFCURVE",
"270 120 CURVE SMOOTH",
"208 120 OFFCURVE",
"170 159 OFFCURVE",
"170 221 CURVE",
"20 221 LINE",
"20 79 OFFCURVE",
"116 -10 OFFCURVE",
"270 -10 CURVE SMOOTH"
);
}
);
width = 600;
},
{
anchors = (
{
name = bottom;
position = "{300, 0}";
},
{
name = top;
position = "{450, 730}";
}
);
layerId = "CCC0BD40-BA8C-414E-B576-CF0B94E6C996";
paths = (
{
closed = 1;
nodes = (
"409 -10 OFFCURVE",
"495 74 OFFCURVE",
"495 210 CURVE SMOOTH",
"495 730 LINE",
"405 730 LINE",
"405 210 LINE SMOOTH",
"405 121 OFFCURVE",
"355 70 OFFCURVE",
"270 70 CURVE SMOOTH",
"185 70 OFFCURVE",
"135 121 OFFCURVE",
"135 210 CURVE",
"45 210 LINE",
"45 74 OFFCURVE",
"130 -10 OFFCURVE",
"270 -10 CURVE SMOOTH"
);
}
);
width = 600;
},
{
anchors = (
{
name = bottom;
position = "{300, 0}";
},
{
name = top;
position = "{453, 730}";
}
);
layerId = "EDF5EB54-295C-4C90-9A2F-67CD82979CFF";
paths = (
{
closed = 1;
nodes = (
"402 -10 OFFCURVE",
"480 69 OFFCURVE",
"480 199 CURVE SMOOTH",
"480 730 LINE",
"430 730 LINE",
"430 199 LINE SMOOTH",
"430 98 OFFCURVE",
"371 35 OFFCURVE",
"275 35 CURVE SMOOTH",
"179 35 OFFCURVE",
"120 97 OFFCURVE",
"120 200 CURVE",
"70 200 LINE",
"70 69.007 OFFCURVE",
"147 -10 OFFCURVE",
"275 -10 CURVE SMOOTH"
);
}
);
width = 600;
}
);
unicode = 004A;
},
{
glyphname = K;
layers = (
{
anchors = (
{
name = bottom;
position = "{300, 0}";
},
{
name = top;
position = "{300, 730}";
}
);
layerId = "9ADF6715-3D0F-493D-8567-18A6FBCFC567";
paths = (
{
closed = 1;
nodes = (
"215 0 LINE",
"215 313 LINE",
"286 313 LINE",
"411 0 LINE",
"575 0 LINE",
"417 385 LINE",
"569 730 LINE",
"407 730 LINE",
"285 444 LINE",
"215 444 LINE",
"215 730 LINE",
"65 730 LINE",
"65 0 LINE"
);
}
);
width = 600;
},
{
anchors = (
{
name = bottom;
position = "{300, 0}";
},
{
name = top;
position = "{300, 730}";
}
);
layerId = "CCC0BD40-BA8C-414E-B576-CF0B94E6C996";
paths = (
{
closed = 1;
nodes = (
"182 0 LINE",
"182 337 LINE",
"287 337 LINE",
"457 0 LINE",
"560 0 LINE",
"369 378 LINE",
"550 730 LINE",
"452 730 LINE",
"290 416 LINE",
"182 416 LINE",
"182 730 LINE",
"92 730 LINE",
"92 0 LINE"
);
}
);
width = 600;
},
{
anchors = (
{
name = bottom;
position = "{300, 0}";
},
{
name = top;
position = "{300, 730}";
}
);
layerId = "EDF5EB54-295C-4C90-9A2F-67CD82979CFF";
paths = (
{
closed = 1;
nodes = (
"160 0 LINE",
"160 356 LINE",
"312 356 LINE",
"481 0 LINE",
"540 0 LINE",
"358 381 LINE",
"530 730 LINE",
"475 730 LINE",
"313 401 LINE",
"160 401 LINE",
"160 730 LINE",
"110 730 LINE",
"110 0 LINE"
);
}
);
width = 600;
}
);
unicode = 004B;
},
{
glyphname = L;
layers = (
{
anchors = (
{
name = bottom;
position = "{340, 0}";
},
{
name = center;
position = "{300, 365}";
},
{
name = top;
position = "{190, 730}";
}
);
layerId = "9ADF6715-3D0F-493D-8567-18A6FBCFC567";
paths = (
{
closed = 1;
nodes = (
"560 0 LINE",
"560 135 LINE",
"265 135 LINE",
"265 730 LINE",
"115 730 LINE",
"115 0 LINE"
);
}
);
width = 600;
},
{
anchors = (
{
name = bottom;
position = "{340, 0}";
},
{
name = center;
position = "{300, 365}";
},
{
name = top;
position = "{175, 730}";
}
);
layerId = "CCC0BD40-BA8C-414E-B576-CF0B94E6C996";
paths = (
{
closed = 1;
nodes = (
"550 0 LINE",
"550 82 LINE",
"220 82 LINE",
"220 730 LINE",
"130 730 LINE",
"130 0 LINE"
);
}
);
width = 600;
},
{
anchors = (
{
name = bottom;
position = "{340, 0}";
},
{
name = center;
position = "{300, 365}";
},
{
name = top;
position = "{166, 730}";
}
);
layerId = "EDF5EB54-295C-4C90-9A2F-67CD82979CFF";
paths = (
{
closed = 1;
nodes = (
"545 0 LINE",
"545 46 LINE",
"190 46 LINE",
"190 730 LINE",
"140 730 LINE",
"140 0 LINE"
);
}
);
width = 600;
}
);
unicode = 004C;
},
{
glyphname = Lslash;
layers = (
{
components = (
{
alignment = -1;
name = L;
transform = "{1, 0, 0, 1, 10, 0}";
}
);
layerId = "9ADF6715-3D0F-493D-8567-18A6FBCFC567";
paths = (
{
closed = 1;
nodes = (
"400 420 LINE",
"400 560 LINE",
"20 370 LINE",
"20 230 LINE"
);
}
);
width = 600;
},
{
components = (
{
alignment = -1;
name = L;
}
);
layerId = "CCC0BD40-BA8C-414E-B576-CF0B94E6C996";
paths = (
{
closed = 1;
nodes = (
"390 480 LINE",
"390 560 LINE",
"20 310 LINE",
"20 230 LINE"
);
}
);
width = 600;
},
{
components = (
{
alignment = -1;
name = L;
transform = "{1, 0, 0, 1, 10, 0}";
}
);
layerId = "EDF5EB54-295C-4C90-9A2F-67CD82979CFF";
paths = (
{
closed = 1;
nodes = (
"390 495 LINE",
"390 550 LINE",
"20 295 LINE",
"20 240 LINE"
);
}
);
width = 600;
}
);
unicode = 0141;
},
{
glyphname = M;
layers = (
{
anchors = (
{
name = bottom;
position = "{300, 0}";
},
{
name = top;
position = "{300, 730}";
}
);
layerId = "9ADF6715-3D0F-493D-8567-18A6FBCFC567";
paths = (
{
closed = 1;
nodes = (
"179 0 LINE",
"179 280 LINE SMOOTH",
"179 433 OFFCURVE",
"161 574 OFFCURVE",
"148 661 CURVE",
"238 310 LINE",
"358 310 LINE",
"450 670 LINE",
"437 567 OFFCURVE",
"421 426 OFFCURVE",
"421 280 CURVE SMOOTH",
"421 0 LINE",
"558 0 LINE",
"558 730 LINE",
"373 730 LINE",
"299 418 LINE",
"225 730 LINE",
"42 730 LINE",
"42 0 LINE"
);
}
);
width = 600;
},
{
anchors = (
{
name = bottom;
position = "{300, 0}";
},
{
name = top;
position = "{300, 730}";
}
);
layerId = "EDF5EB54-295C-4C90-9A2F-67CD82979CFF";
paths = (
{
closed = 1;
nodes = (
"141 0 LINE",
"141 440 LINE SMOOTH",
"141 542 OFFCURVE",
"136 651 OFFCURVE",
"131 705 CURVE",
"273 325 LINE",
"328 325 LINE",
"467 707 LINE",
"463 653 OFFCURVE",
"459 542 OFFCURVE",
"459 440 CURVE SMOOTH",
"459 0 LINE",
"508 0 LINE",
"508 730 LINE",
"437 730 LINE",
"301 361 LINE",
"163 730 LINE",
"92 730 LINE",
"92 0 LINE"
);
}
);
width = 600;
},
{
anchors = (
{
name = bottom;
position = "{300, 0}";
},
{
name = top;
position = "{300, 730}";
}
);
layerId = "CCC0BD40-BA8C-414E-B576-CF0B94E6C996";
paths = (
{
closed = 1;
nodes = (
"159 0 LINE",
"159 345 LINE SMOOTH",
"159 477 OFFCURVE",
"156 595 OFFCURVE",
"145 694 CURVE",
"258 326 LINE",
"336 326 LINE",
"454 703 LINE",
"445 598 OFFCURVE",
"441 443 OFFCURVE",
"441 345 CURVE SMOOTH",
"441 0 LINE",
"528 0 LINE",
"528 730 LINE",
"395 730 LINE",
"298 414 LINE",
"205 730 LINE",
"72 730 LINE",
"72 0 LINE"
);
}
);
width = 600;
}
);
unicode = 004D;
},
{
glyphname = N;
layers = (
{
anchors = (
{
name = bottom;
position = "{300, 0}";
},
{
name = top;
position = "{300, 730}";
}
);
layerId = "CCC0BD40-BA8C-414E-B576-CF0B94E6C996";
paths = (
{
closed = 1;
nodes = (
"177 0 LINE",
"177 410 LINE SMOOTH",
"177 483 OFFCURVE",
"172 576 OFFCURVE",
"168 625 CURVE",
"390 0 LINE",
"510 0 LINE",
"510 730 LINE",
"423 730 LINE",
"423 320 LINE SMOOTH",
"423 247 OFFCURVE",
"429 154 OFFCURVE",
"433 105 CURVE",
"210 730 LINE",
"90 730 LINE",
"90 0 LINE"
);
}
);
width = 600;
},
{
anchors = (
{
name = bottom;
position = "{300, 0}";
},
{
name = top;
position = "{300, 730}";
}
);
layerId = "EDF5EB54-295C-4C90-9A2F-67CD82979CFF";
paths = (
{
closed = 1;
nodes = (
"158 0 LINE",
"158 560 LINE SMOOTH",
"158 611 OFFCURVE",
"157 656 OFFCURVE",
"156 675 CURVE",
"421 0 LINE",
"490 0 LINE",
"490 730 LINE",
"442 730 LINE",
"442 170 LINE SMOOTH",
"442 155 OFFCURVE",
"444 95 OFFCURVE",
"446 55 CURVE",
"178 730 LINE",
"110 730 LINE",
"110 0 LINE"
);
}
);
width = 600;
},
{
anchors = (
{
name = bottom;
position = "{300, 0}";
},
{
name = top;
position = "{300, 730}";
}
);
layerId = "9ADF6715-3D0F-493D-8567-18A6FBCFC567";
paths = (
{
closed = 1;
nodes = (
"192 0 LINE",
"192 320 LINE SMOOTH",
"192 389 OFFCURVE",
"184 501 OFFCURVE",
"178 565 CURVE",
"365 0 LINE",
"540 0 LINE",
"540 730 LINE",
"408 730 LINE",
"408 430 LINE SMOOTH",
"408 361 OFFCURVE",
"417 238 OFFCURVE",
"424 165 CURVE",
"235 730 LINE",
"60 730 LINE",
"60 0 LINE"
);
}
);
width = 600;
}
);
unicode = 004E;
},
{
glyphname = Eng;
layers = (
{
layerId = "9ADF6715-3D0F-493D-8567-18A6FBCFC567";
paths = (
{
closed = 1;
nodes = (
"300 -180 LINE SMOOTH",
"441 -180 OFFCURVE",
"540 -96 OFFCURVE",
"540 25 CURVE SMOOTH",
"540 730 LINE",
"408 730 LINE",
"408 526 LINE SMOOTH",
"408 457 OFFCURVE",
"417 334 OFFCURVE",
"424 261 CURVE",
"235 730 LINE",
"60 730 LINE",
"60 0 LINE",
"192 0 LINE",
"192 320 LINE SMOOTH",
"192 389 OFFCURVE",
"184 501 OFFCURVE",
"178 565 CURVE",
"390 41 LINE",
"390 -7 OFFCURVE",
"361 -35 OFFCURVE",
"310 -35 CURVE SMOOTH",
"250 -35 LINE",
"250 -180 LINE"
);
}
);
width = 600;
},
{
layerId = "CCC0BD40-BA8C-414E-B576-CF0B94E6C996";
paths = (
{
closed = 1;
nodes = (
"305 -180 LINE SMOOTH",
"429 -180 OFFCURVE",
"510 -103 OFFCURVE",
"510 15 CURVE SMOOTH",
"510 730 LINE",
"423 730 LINE",
"423 397 LINE SMOOTH",
"423 324 OFFCURVE",
"429 231 OFFCURVE",
"433 181 CURVE",
"210 730 LINE",
"90 730 LINE",
"90 0 LINE",
"177 0 LINE",
"177 410 LINE SMOOTH",
"177 483 OFFCURVE",
"172 576 OFFCURVE",
"168 625 CURVE",
"420 15 LINE",
"420 -55 OFFCURVE",
"376 -98 OFFCURVE",
"305 -98 CURVE SMOOTH",
"240 -98 LINE",
"240 -180 LINE"
);
}
);
width = 600;
},
{
layerId = "EDF5EB54-295C-4C90-9A2F-67CD82979CFF";
paths = (
{
closed = 1;
nodes = (
"307 -180 LINE SMOOTH",
"425 -180 OFFCURVE",
"491 -115 OFFCURVE",
"491 0 CURVE SMOOTH",
"491 730 LINE",
"443 730 LINE",
"443 219 LINE SMOOTH",
"443 168 OFFCURVE",
"445 118 OFFCURVE",
"447 94 CURVE",
"178 730 LINE",
"109 730 LINE",
"109 0 LINE",
"157 0 LINE",
"157 560 LINE SMOOTH",
"157 611 OFFCURVE",
"156 656 OFFCURVE",
"155 675 CURVE",
"441 0 LINE",
"441 -88 OFFCURVE",
"395 -135 OFFCURVE",
"307 -135 CURVE SMOOTH",
"227 -135 LINE",
"227 -180 LINE"
);
}
);
width = 600;
}
);
unicode = 014A;
},
{
glyphname = O;
layers = (
{
anchors = (
{
name = bottom;
position = "{300, 0}";
},
{
name = center;
position = "{300, 365}";
},
{
name = horn;
position = "{320, 700}";
},
{
name = ogonek;
position = "{355, 0}";
},
{
name = top;
position = "{300, 730}";
},
{
name = topleft;
position = "{20, 730}";
},
{
name = topright;
position = "{580, 730}";
}
);
layerId = "EDF5EB54-295C-4C90-9A2F-67CD82979CFF";
paths = (
{
closed = 1;
nodes = (
"419 -10 OFFCURVE",
"495 68 OFFCURVE",
"495 190 CURVE SMOOTH",
"495 540 LINE SMOOTH",
"495 661 OFFCURVE",
"418 740 OFFCURVE",
"300 740 CURVE SMOOTH",
"182 740 OFFCURVE",
"105 661 OFFCURVE",
"105 540 CURVE SMOOTH",
"105 190 LINE SMOOTH",
"105 68 OFFCURVE",
"182 -10 OFFCURVE",
"300 -10 CURVE SMOOTH"
);
},
{
closed = 1;
nodes = (
"208 34 OFFCURVE",
"155 91 OFFCURVE",
"155 190 CURVE SMOOTH",
"155 540 LINE SMOOTH",
"155 638 OFFCURVE",
"209 696 OFFCURVE",
"300 696 CURVE SMOOTH",
"391 696 OFFCURVE",
"445 638 OFFCURVE",
"445 540 CURVE SMOOTH",
"445 190 LINE SMOOTH",
"445 91 OFFCURVE",
"392 34 OFFCURVE",
"300 34 CURVE SMOOTH"
);
}
);
width = 600;
},
{
anchors = (
{
name = bottom;
position = "{300, 0}";
},
{
name = center;
position = "{300, 365}";
},
{
name = horn;
position = "{320, 700}";
},
{
name = ogonek;
position = "{350, 0}";
},
{
name = top;
position = "{300, 730}";
},
{
name = topleft;
position = "{20, 730}";
},
{
name = topright;
position = "{580, 730}";
}
);
layerId = "CCC0BD40-BA8C-414E-B576-CF0B94E6C996";
paths = (
{
closed = 1;
nodes = (
"431 -10 OFFCURVE",
"512 69 OFFCURVE",
"512 210 CURVE SMOOTH",
"512 521 LINE SMOOTH",
"512 661 OFFCURVE",
"431 740 OFFCURVE",
"300 740 CURVE SMOOTH",
"169 740 OFFCURVE",
"88 661 OFFCURVE",
"88 520 CURVE SMOOTH",
"88 210 LINE SMOOTH",
"88 69 OFFCURVE",
"169 -10 OFFCURVE",
"300 -10 CURVE SMOOTH"
);
},
{
closed = 1;
nodes = (
"222 71 OFFCURVE",
"178 117 OFFCURVE",
"178 200 CURVE SMOOTH",
"178 530 LINE SMOOTH",
"178 613 OFFCURVE",
"222 659 OFFCURVE",
"300 659 CURVE SMOOTH",
"378 659 OFFCURVE",
"422 613 OFFCURVE",
"422 530 CURVE SMOOTH",
"422 200 LINE SMOOTH",
"422 117 OFFCURVE",
"378 71 OFFCURVE",
"300 71 CURVE SMOOTH"
);
}
);
width = 600;
},
{
anchors = (
{
name = bottom;
position = "{300, 0}";
},
{
name = center;
position = "{300, 365}";
},
{
name = horn;
position = "{320, 700}";
},
{
name = ogonek;
position = "{345, 0}";
},
{
name = top;
position = "{300, 730}";
},
{
name = topleft;
position = "{20, 730}";
},
{
name = topright;
position = "{580, 730}";
}
);
layerId = "9ADF6715-3D0F-493D-8567-18A6FBCFC567";
paths = (
{
closed = 1;
nodes = (
"447 -10 OFFCURVE",
"540 78 OFFCURVE",
"540 220 CURVE SMOOTH",
"540 510 LINE SMOOTH",
"540 652 OFFCURVE",
"447 740 OFFCURVE",
"300 740 CURVE SMOOTH",
"153 740 OFFCURVE",
"60 652 OFFCURVE",
"60 510 CURVE SMOOTH",
"60 220 LINE SMOOTH",
"60 78 OFFCURVE",
"153 -10 OFFCURVE",
"300 -10 CURVE SMOOTH"
);
},
{
closed = 1;
nodes = (
"240 120 OFFCURVE",
"210 152 OFFCURVE",
"210 210 CURVE SMOOTH",
"210 520 LINE SMOOTH",
"210 578 OFFCURVE",
"239 610 OFFCURVE",
"300 610 CURVE SMOOTH",
"361 610 OFFCURVE",
"390 578 OFFCURVE",
"390 520 CURVE SMOOTH",
"390 210 LINE SMOOTH",
"390 152 OFFCURVE",
"360 120 OFFCURVE",
"300 120 CURVE SMOOTH"
);
}
);
width = 600;
}
);
unicode = 004F;
},
{
glyphname = Ohorn;
layers = (
{
anchors = (
{
name = top;
position = "{290, 730}";
}
);
components = (
{
name = O;
}
);
layerId = "9ADF6715-3D0F-493D-8567-18A6FBCFC567";
paths = (
{
closed = 1;
nodes = (
"441 600 LINE SMOOTH",
"528 600 OFFCURVE",
"586 654 OFFCURVE",
"586 735 CURVE SMOOTH",
"586 810 LINE",
"466 810 LINE",
"466 735 LINE SMOOTH",
"466 713 OFFCURVE",
"453 700 OFFCURVE",
"431 700 CURVE SMOOTH",
"381 700 LINE",
"381 600 LINE"
);
}
);
width = 600;
},
{
anchors = (
{
name = top;
position = "{290, 730}";
}
);
components = (
{
name = O;
}
);
layerId = "CCC0BD40-BA8C-414E-B576-CF0B94E6C996";
paths = (
{
closed = 1;
nodes = (
"425 635 LINE SMOOTH",
"489 635 OFFCURVE",
"530 672 OFFCURVE",
"530 730 CURVE SMOOTH",
"530 810 LINE",
"455 810 LINE",
"455 735 LINE SMOOTH",
"455 714 OFFCURVE",
"441 700 OFFCURVE",
"420 700 CURVE SMOOTH",
"400 700 LINE",
"400 635 LINE"
);
}
);
width = 600;
},
{
anchors = (
{
name = top;
position = "{290, 730}";
}
);
components = (
{
name = O;
}
);
layerId = "EDF5EB54-295C-4C90-9A2F-67CD82979CFF";
paths = (
{
closed = 1;
nodes = (
"435 665 LINE SMOOTH",
"486 665 OFFCURVE",
"520 699 OFFCURVE",
"520 750 CURVE SMOOTH",
"520 810 LINE",
"480 810 LINE",
"480 750 LINE SMOOTH",
"480 720 OFFCURVE",
"462 700 OFFCURVE",
"435 700 CURVE SMOOTH",
"410 700 LINE",
"410 665 LINE"
);
}
);
width = 600;
}
);
unicode = 01A0;
},
{
glyphname = Oogonek;
layers = (
{
anchors = (
{
name = horn;
position = "{320, 700}";
},
{
name = top;
position = "{300, 730}";
}
);
layerId = "9ADF6715-3D0F-493D-8567-18A6FBCFC567";
paths = (
{
closed = 1;
nodes = (
"462 -225 LINE",
"462 -120 LINE",
"393 -120 LINE SMOOTH",
"364 -120 OFFCURVE",
"347 -103 OFFCURVE",
"347 -82 CURVE SMOOTH",
"347 -65 OFFCURVE",
"359 -38 OFFCURVE",
"386 -17 CURVE SMOOTH",
"434 21 LINE",
"498 58 OFFCURVE",
"540 127 OFFCURVE",
"540 210 CURVE SMOOTH",
"540 520 LINE SMOOTH",
"540 652 OFFCURVE",
"447 740 OFFCURVE",
"300 740 CURVE SMOOTH",
"153 740 OFFCURVE",
"60 652 OFFCURVE",
"60 520 CURVE SMOOTH",
"60 210 LINE SMOOTH",
"60 78 OFFCURVE",
"153 -10 OFFCURVE",
"300 -10 CURVE SMOOTH",
"333 -10 OFFCURVE",
"348 11 OFFCURVE",
"348 21 CURVE",
"280 -9 OFFCURVE",
"223 -68 OFFCURVE",
"223 -115 CURVE SMOOTH",
"223 -180 OFFCURVE",
"273 -225 OFFCURVE",
"354 -225 CURVE SMOOTH"
);
},
{
closed = 1;
nodes = (
"240 120 OFFCURVE",
"210 152 OFFCURVE",
"210 210 CURVE SMOOTH",
"210 520 LINE SMOOTH",
"210 578 OFFCURVE",
"239 610 OFFCURVE",
"300 610 CURVE SMOOTH",
"361 610 OFFCURVE",
"390 578 OFFCURVE",
"390 520 CURVE SMOOTH",
"390 210 LINE SMOOTH",
"390 152 OFFCURVE",
"360 120 OFFCURVE",
"300 120 CURVE SMOOTH"
);
}
);
width = 600;
},
{
anchors = (
{
name = horn;
position = "{320, 700}";
},
{
name = top;
position = "{300, 730}";
}
);
layerId = "EDF5EB54-295C-4C90-9A2F-67CD82979CFF";
paths = (
{
closed = 1;
nodes = (
"442 -195 LINE",
"442 -153 LINE",
"378 -153 LINE SMOOTH",
"346 -153 OFFCURVE",
"327 -134 OFFCURVE",
"327 -103 CURVE SMOOTH",
"327 -75 OFFCURVE",
"349 -33 OFFCURVE",
"388 2 CURVE SMOOTH",
"397 10 LINE",
"459 45 OFFCURVE",
"495 105 OFFCURVE",
"495 190 CURVE SMOOTH",
"495 540 LINE SMOOTH",
"495 661 OFFCURVE",
"418 740 OFFCURVE",
"300 740 CURVE SMOOTH",
"182 740 OFFCURVE",
"105 661 OFFCURVE",
"105 540 CURVE SMOOTH",
"105 190 LINE SMOOTH",
"105 68 OFFCURVE",
"182 -10 OFFCURVE",
"300 -10 CURVE SMOOTH",
"311 -10 OFFCURVE",
"329 -9 OFFCURVE",
"340 -6 CURVE",
"302 -39 OFFCURVE",
"280 -80 OFFCURVE",
"280 -115 CURVE SMOOTH",
"280 -165 OFFCURVE",
"314 -195 OFFCURVE",
"369 -195 CURVE SMOOTH"
);
},
{
closed = 1;
nodes = (
"208 34 OFFCURVE",
"155 91 OFFCURVE",
"155 190 CURVE SMOOTH",
"155 540 LINE SMOOTH",
"155 638 OFFCURVE",
"209 696 OFFCURVE",
"300 696 CURVE SMOOTH",
"391 696 OFFCURVE",
"445 638 OFFCURVE",
"445 540 CURVE SMOOTH",
"445 190 LINE SMOOTH",
"445 91 OFFCURVE",
"392 34 OFFCURVE",
"300 34 CURVE SMOOTH"
);
}
);
width = 600;
},
{
anchors = (
{
name = horn;
position = "{320, 700}";
},
{
name = top;
position = "{300, 730}";
}
);
layerId = "CCC0BD40-BA8C-414E-B576-CF0B94E6C996";
paths = (
{
closed = 1;
nodes = (
"457 -203 LINE",
"457 -143 LINE",
"397 -143 LINE SMOOTH",
"363 -143 OFFCURVE",
"342 -122 OFFCURVE",
"342 -93 CURVE SMOOTH",
"342 -65 OFFCURVE",
"357 -36 OFFCURVE",
"401 1 CURVE SMOOTH",
"430 25 LINE",
"482 60 OFFCURVE",
"512 121 OFFCURVE",
"512 200 CURVE SMOOTH",
"512 531 LINE SMOOTH",
"512 661 OFFCURVE",
"431 740 OFFCURVE",
"300 740 CURVE SMOOTH",
"169 740 OFFCURVE",
"88 661 OFFCURVE",
"88 530 CURVE SMOOTH",
"88 200 LINE SMOOTH",
"88 69 OFFCURVE",
"169 -10 OFFCURVE",
"300 -10 CURVE SMOOTH",
"304 -10 OFFCURVE",
"309 -10 OFFCURVE",
"313 -10 CURVE",
"277 -45 OFFCURVE",
"257 -82 OFFCURVE",
"257 -110 CURVE SMOOTH",
"257 -164 OFFCURVE",
"305 -203 OFFCURVE",
"379 -203 CURVE SMOOTH"
);
},
{
closed = 1;
nodes = (
"222 71 OFFCURVE",
"178 117 OFFCURVE",
"178 200 CURVE SMOOTH",
"178 530 LINE SMOOTH",
"178 613 OFFCURVE",
"222 659 OFFCURVE",
"300 659 CURVE SMOOTH",
"378 659 OFFCURVE",
"422 613 OFFCURVE",
"422 530 CURVE SMOOTH",
"422 200 LINE SMOOTH",
"422 117 OFFCURVE",
"378 71 OFFCURVE",
"300 71 CURVE SMOOTH"
);
}
);
width = 600;
}
);
unicode = 01EA;
},
{
glyphname = Oslash;
layers = (
{
anchors = (
{
name = bottom;
position = "{300, 0}";
},
{
name = horn;
position = "{320, 730}";
},
{
name = top;
position = "{300, 730}";
}
);
layerId = "9ADF6715-3D0F-493D-8567-18A6FBCFC567";
paths = (
{
closed = 1;
nodes = (
"133 -40 LINE",
"585 750 LINE",
"467 750 LINE",
"15 -40 LINE"
);
},
{
closed = 1;
nodes = (
"447 -10 OFFCURVE",
"540 78 OFFCURVE",
"540 210 CURVE SMOOTH",
"540 520 LINE SMOOTH",
"540 652 OFFCURVE",
"447 740 OFFCURVE",
"300 740 CURVE SMOOTH",
"153 740 OFFCURVE",
"60 652 OFFCURVE",
"60 520 CURVE SMOOTH",
"60 210 LINE SMOOTH",
"60 78 OFFCURVE",
"153 -10 OFFCURVE",
"300 -10 CURVE SMOOTH"
);
},
{
closed = 1;
nodes = (
"239 120 OFFCURVE",
"205 152 OFFCURVE",
"205 210 CURVE SMOOTH",
"205 520 LINE SMOOTH",
"205 578 OFFCURVE",
"239 610 OFFCURVE",
"300 610 CURVE SMOOTH",
"361 610 OFFCURVE",
"395 578 OFFCURVE",
"395 520 CURVE SMOOTH",
"395 210 LINE SMOOTH",
"395 152 OFFCURVE",
"361 120 OFFCURVE",
"300 120 CURVE SMOOTH"
);
}
);
width = 600;
},
{
anchors = (
{
name = bottom;
position = "{300, 0}";
},
{
name = horn;
position = "{320, 730}";
},
{
name = top;
position = "{300, 730}";
}
);
layerId = "CCC0BD40-BA8C-414E-B576-CF0B94E6C996";
paths = (
{
closed = 1;
nodes = (
"119 -40 LINE",
"565 750 LINE",
"481 750 LINE",
"35 -40 LINE"
);
},
{
closed = 1;
nodes = (
"431 -10 OFFCURVE",
"512 69 OFFCURVE",
"512 200 CURVE SMOOTH",
"512 531 LINE SMOOTH",
"512 661 OFFCURVE",
"431 740 OFFCURVE",
"300 740 CURVE SMOOTH",
"169 740 OFFCURVE",
"88 661 OFFCURVE",
"88 530 CURVE SMOOTH",
"88 200 LINE SMOOTH",
"88 69 OFFCURVE",
"169 -10 OFFCURVE",
"300 -10 CURVE SMOOTH"
);
},
{
closed = 1;
nodes = (
"222 71 OFFCURVE",
"178 117 OFFCURVE",
"178 200 CURVE SMOOTH",
"178 530 LINE SMOOTH",
"178 613 OFFCURVE",
"222 659 OFFCURVE",
"300 659 CURVE SMOOTH",
"378 659 OFFCURVE",
"422 613 OFFCURVE",
"422 530 CURVE SMOOTH",
"422 200 LINE SMOOTH",
"422 117 OFFCURVE",
"378 71 OFFCURVE",
"300 71 CURVE SMOOTH"
);
}
);
width = 600;
},
{
anchors = (
{
name = bottom;
position = "{300, 0}";
},
{
name = horn;
position = "{320, 730}";
},
{
name = top;
position = "{300, 730}";
}
);
layerId = "EDF5EB54-295C-4C90-9A2F-67CD82979CFF";
paths = (
{
closed = 1;
nodes = (
"98 -40 LINE",
"550 750 LINE",
"502 750 LINE",
"50 -40 LINE"
);
},
{
closed = 1;
nodes = (
"419 -10 OFFCURVE",
"495 68 OFFCURVE",
"495 190 CURVE SMOOTH",
"495 540 LINE SMOOTH",
"495 661 OFFCURVE",
"418 740 OFFCURVE",
"300 740 CURVE SMOOTH",
"182 740 OFFCURVE",
"105 661 OFFCURVE",
"105 540 CURVE SMOOTH",
"105 190 LINE SMOOTH",
"105 68 OFFCURVE",
"182 -10 OFFCURVE",
"300 -10 CURVE SMOOTH"
);
},
{
closed = 1;
nodes = (
"208 34 OFFCURVE",
"155 91 OFFCURVE",
"155 190 CURVE SMOOTH",
"155 540 LINE SMOOTH",
"155 638 OFFCURVE",
"209 696 OFFCURVE",
"300 696 CURVE SMOOTH",
"391 696 OFFCURVE",
"445 638 OFFCURVE",
"445 540 CURVE SMOOTH",
"445 190 LINE SMOOTH",
"445 91 OFFCURVE",
"392 34 OFFCURVE",
"300 34 CURVE SMOOTH"
);
}
);
width = 600;
}
);
unicode = 00D8;
},
{
glyphname = OE;
layers = (
{
layerId = "9ADF6715-3D0F-493D-8567-18A6FBCFC567";
paths = (
{
closed = 1;
nodes = (
"247 -4 OFFCURVE",
"280 47 OFFCURVE",
"285 86 CURVE",
"290 86 LINE",
"290 0 LINE",
"580 0 LINE",
"580 126 LINE",
"419 126 LINE",
"419 311 LINE",
"555 311 LINE",
"555 437 LINE",
"419 437 LINE",
"419 605 LINE",
"580 605 LINE",
"580 730 LINE",
"290 730 LINE",
"290 650 LINE",
"285 650 LINE",
"280 689 OFFCURVE",
"247 740 OFFCURVE",
"175 740 CURVE SMOOTH",
"84 740 OFFCURVE",
"30 666 OFFCURVE",
"30 541 CURVE SMOOTH",
"30 195 LINE SMOOTH",
"30 70 OFFCURVE",
"84 -4 OFFCURVE",
"175 -4 CURVE SMOOTH"
);
},
{
closed = 1;
nodes = (
"192 121 OFFCURVE",
"170 149 OFFCURVE",
"170 195 CURVE SMOOTH",
"170 541 LINE SMOOTH",
"170 587 OFFCURVE",
"192 615 OFFCURVE",
"227 615 CURVE SMOOTH",
"263 615 OFFCURVE",
"284 588 OFFCURVE",
"284 541 CURVE SMOOTH",
"284 195 LINE SMOOTH",
"284 148 OFFCURVE",
"263 121 OFFCURVE",
"227 121 CURVE SMOOTH"
);
}
);
width = 600;
},
{
layerId = "CCC0BD40-BA8C-414E-B576-CF0B94E6C996";
paths = (
{
closed = 1;
nodes = (
"264 -10 OFFCURVE",
"299 41 OFFCURVE",
"305 80 CURVE",
"310 80 LINE",
"310 0 LINE",
"575 0 LINE",
"575 82 LINE",
"398 82 LINE",
"398 336 LINE",
"550 336 LINE",
"550 418 LINE",
"398 418 LINE",
"398 648 LINE",
"575 648 LINE",
"575 730 LINE",
"310 730 LINE",
"310 650 LINE",
"305 650 LINE",
"299 689 OFFCURVE",
"264 740 OFFCURVE",
"195 740 CURVE SMOOTH",
"99 740 OFFCURVE",
"40 667 OFFCURVE",
"40 550 CURVE SMOOTH",
"40 180 LINE SMOOTH",
"40 63 OFFCURVE",
"99 -10 OFFCURVE",
"195 -10 CURVE SMOOTH"
);
},
{
closed = 1;
nodes = (
"164 70 OFFCURVE",
"130 112 OFFCURVE",
"130 180 CURVE SMOOTH",
"130 550 LINE SMOOTH",
"130 618 OFFCURVE",
"164 660 OFFCURVE",
"220 660 CURVE SMOOTH",
"276 660 OFFCURVE",
"310 618 OFFCURVE",
"310 550 CURVE SMOOTH",
"310 180 LINE SMOOTH",
"310 112 OFFCURVE",
"276 70 OFFCURVE",
"220 70 CURVE SMOOTH"
);
}
);
width = 600;
},
{
layerId = "EDF5EB54-295C-4C90-9A2F-67CD82979CFF";
paths = (
{
closed = 1;
nodes = (
"265 -10 OFFCURVE",
"305 41 OFFCURVE",
"315 80 CURVE",
"320 80 LINE",
"320 0 LINE",
"569 0 LINE",
"569 50 LINE",
"375 50 LINE",
"375 352 LINE",
"533 352 LINE",
"533 402 LINE",
"375 402 LINE",
"375 680 LINE",
"569 680 LINE",
"569 730 LINE",
"320 730 LINE",
"320 650 LINE",
"315 650 LINE",
"305 689 OFFCURVE",
"265 740 OFFCURVE",
"196 740 CURVE SMOOTH",
"105 740 OFFCURVE",
"40 664 OFFCURVE",
"40 557 CURVE SMOOTH",
"40 173 LINE SMOOTH",
"40 66 OFFCURVE",
"105 -10 OFFCURVE",
"196 -10 CURVE SMOOTH"
);
},
{
closed = 1;
nodes = (
"140 40 OFFCURVE",
"95 94 OFFCURVE",
"95 173 CURVE SMOOTH",
"95 557 LINE SMOOTH",
"95 636 OFFCURVE",
"140 690 OFFCURVE",
"207 690 CURVE SMOOTH",
"273 690 OFFCURVE",
"320 638 OFFCURVE",
"320 557 CURVE SMOOTH",
"320 173 LINE SMOOTH",
"320 92 OFFCURVE",
"273 40 OFFCURVE",
"207 40 CURVE SMOOTH"
);
}
);
width = 600;
}
);
unicode = 0152;
},
{
glyphname = P;
layers = (
{
anchors = (
{
name = bottom;
position = "{300, 0}";
},
{
name = top;
position = "{300, 730}";
}
);
layerId = "9ADF6715-3D0F-493D-8567-18A6FBCFC567";
paths = (
{
closed = 1;
nodes = (
"216 0 LINE",
"216 266 LINE",
"315 266 LINE SMOOTH",
"468 266 OFFCURVE",
"570 359 OFFCURVE",
"570 498 CURVE SMOOTH",
"570 638 OFFCURVE",
"469 730 OFFCURVE",
"315 730 CURVE SMOOTH",
"66 730 LINE",
"66 0 LINE"
);
},
{
closed = 1;
nodes = (
"216 600 LINE",
"315 600 LINE SMOOTH",
"379 600 OFFCURVE",
"420 557 OFFCURVE",
"420 498 CURVE SMOOTH",
"420 439 OFFCURVE",
"379 396 OFFCURVE",
"315 396 CURVE SMOOTH",
"216 396 LINE"
);
}
);
width = 600;
},
{
anchors = (
{
name = bottom;
position = "{300, 0}";
},
{
name = top;
position = "{300, 730}";
}
);
layerId = "CCC0BD40-BA8C-414E-B576-CF0B94E6C996";
paths = (
{
closed = 1;
nodes = (
"182 0 LINE",
"182 300 LINE",
"327 300 LINE SMOOTH",
"463 300 OFFCURVE",
"550 384 OFFCURVE",
"550 515 CURVE SMOOTH",
"550 646 OFFCURVE",
"463 730 OFFCURVE",
"327 730 CURVE SMOOTH",
"92 730 LINE",
"92 0 LINE"
);
},
{
closed = 1;
nodes = (
"182 649 LINE",
"327 649 LINE SMOOTH",
"406 649 OFFCURVE",
"457 597 OFFCURVE",
"457 515 CURVE SMOOTH",
"457 433 OFFCURVE",
"406 381 OFFCURVE",
"327 381 CURVE SMOOTH",
"182 381 LINE"
);
}
);
width = 600;
},
{
anchors = (
{
name = bottom;
position = "{300, 0}";
},
{
name = top;
position = "{300, 730}";
}
);
layerId = "EDF5EB54-295C-4C90-9A2F-67CD82979CFF";
paths = (
{
closed = 1;
nodes = (
"160 0 LINE",
"160 324 LINE",
"325 324 LINE SMOOTH",
"452 324 OFFCURVE",
"535 404 OFFCURVE",
"535 527 CURVE SMOOTH",
"535 650 OFFCURVE",
"453 730 OFFCURVE",
"325 730 CURVE SMOOTH",
"110 730 LINE",
"110 0 LINE"
);
},
{
closed = 1;
nodes = (
"160 684 LINE",
"325 684 LINE SMOOTH",
"423 684 OFFCURVE",
"485 624 OFFCURVE",
"485 527 CURVE SMOOTH",
"485 431 OFFCURVE",
"422 370 OFFCURVE",
"325 370 CURVE SMOOTH",
"160 370 LINE"
);
}
);
width = 600;
}
);
unicode = 0050;
},
{
glyphname = Thorn;
layers = (
{
layerId = "9ADF6715-3D0F-493D-8567-18A6FBCFC567";
paths = (
{
closed = 1;
nodes = (
"220 0 LINE",
"220 165 LINE",
"340 165 LINE SMOOTH",
"483 165 OFFCURVE",
"570 246 OFFCURVE",
"570 380 CURVE SMOOTH",
"570 515 OFFCURVE",
"484 595 OFFCURVE",
"340 595 CURVE SMOOTH",
"220 595 LINE",
"220 730 LINE",
"70 730 LINE",
"70 0 LINE"
);
},
{
closed = 1;
nodes = (
"220 470 LINE",
"315 470 LINE SMOOTH",
"383 470 OFFCURVE",
"420 438 OFFCURVE",
"420 380 CURVE SMOOTH",
"420 322 OFFCURVE",
"383 290 OFFCURVE",
"315 290 CURVE SMOOTH",
"220 290 LINE"
);
}
);
width = 600;
},
{
layerId = "CCC0BD40-BA8C-414E-B576-CF0B94E6C996";
paths = (
{
closed = 1;
nodes = (
"180 0 LINE",
"180 180 LINE",
"333 180 LINE SMOOTH",
"465 180 OFFCURVE",
"550 258 OFFCURVE",
"550 380 CURVE SMOOTH",
"550 500 OFFCURVE",
"464 580 OFFCURVE",
"333 580 CURVE SMOOTH",
"180 580 LINE",
"180 730 LINE",
"90 730 LINE",
"90 0 LINE"
);
},
{
closed = 1;
nodes = (
"180 500 LINE",
"333 500 LINE SMOOTH",
"409 500 OFFCURVE",
"457 454 OFFCURVE",
"457 380 CURVE SMOOTH",
"457 306 OFFCURVE",
"410 260 OFFCURVE",
"333 260 CURVE SMOOTH",
"180 260 LINE"
);
}
);
width = 600;
},
{
layerId = "EDF5EB54-295C-4C90-9A2F-67CD82979CFF";
paths = (
{
closed = 1;
nodes = (
"155 0 LINE",
"155 195 LINE",
"333 195 LINE SMOOTH",
"454 195 OFFCURVE",
"530 266 OFFCURVE",
"530 380 CURVE SMOOTH",
"530 494 OFFCURVE",
"454 565 OFFCURVE",
"333 565 CURVE SMOOTH",
"155 565 LINE",
"155 730 LINE",
"105 730 LINE",
"105 0 LINE"
);
},
{
closed = 1;
nodes = (
"155 520 LINE",
"333 520 LINE SMOOTH",
"424 520 OFFCURVE",
"480 467 OFFCURVE",
"480 380 CURVE SMOOTH",
"480 294 OFFCURVE",
"424 241 OFFCURVE",
"333 241 CURVE SMOOTH",
"155 241 LINE"
);
}
);
width = 600;
}
);
unicode = 00DE;
},
{
glyphname = Q;
layers = (
{
anchors = (
{
name = bottom;
position = "{300, 0}";
},
{
name = top;
position = "{300, 730}";
}
);
layerId = "9ADF6715-3D0F-493D-8567-18A6FBCFC567";
paths = (
{
closed = 1;
nodes = (
"556 -180 LINE",
"433 20 LINE",
"502 55 OFFCURVE",
"540 123 OFFCURVE",
"540 210 CURVE SMOOTH",
"540 520 LINE SMOOTH",
"540 652 OFFCURVE",
"444 740 OFFCURVE",
"300 740 CURVE SMOOTH",
"155 740 OFFCURVE",
"60 653 OFFCURVE",
"60 520 CURVE SMOOTH",
"60 210 LINE SMOOTH",
"60 79.007 OFFCURVE",
"156 -10 OFFCURVE",
"300 -10 CURVE SMOOTH",
"306 -10 OFFCURVE",
"314 -9 OFFCURVE",
"319 -9 CURVE",
"288 4 LINE",
"400 -180 LINE"
);
},
{
closed = 1;
nodes = (
"238 121 OFFCURVE",
"210 153 OFFCURVE",
"210 210 CURVE SMOOTH",
"210 520 LINE SMOOTH",
"210 578 OFFCURVE",
"242 610 OFFCURVE",
"300 610 CURVE SMOOTH",
"358 610 OFFCURVE",
"390 578 OFFCURVE",
"390 520 CURVE SMOOTH",
"390 210 LINE SMOOTH",
"390 153 OFFCURVE",
"362 121 OFFCURVE",
"300 121 CURVE SMOOTH"
);
}
);
width = 600;
},
{
anchors = (
{
name = bottom;
position = "{300, 0}";
},
{
name = top;
position = "{300, 730}";
}
);
layerId = "CCC0BD40-BA8C-414E-B576-CF0B94E6C996";
paths = (
{
closed = 1;
nodes = (
"526 -180 LINE",
"409 13 LINE",
"479 46 OFFCURVE",
"520 115 OFFCURVE",
"520 205 CURVE SMOOTH",
"520 525 LINE SMOOTH",
"520 656 OFFCURVE",
"435 740 OFFCURVE",
"300 740 CURVE SMOOTH",
"165 740 OFFCURVE",
"80 656 OFFCURVE",
"80 525 CURVE SMOOTH",
"80 205 LINE SMOOTH",
"80 74 OFFCURVE",
"165 -10 OFFCURVE",
"300 -10 CURVE SMOOTH",
"310 -10 OFFCURVE",
"320 -9 OFFCURVE",
"325 -9 CURVE",
"315 -3 LINE",
"422 -180 LINE"
);
},
{
closed = 1;
nodes = (
"221 70 OFFCURVE",
"170 123 OFFCURVE",
"170 205 CURVE SMOOTH",
"170 525 LINE SMOOTH",
"170 607 OFFCURVE",
"221 660 OFFCURVE",
"300 660 CURVE SMOOTH",
"379 660 OFFCURVE",
"430 607 OFFCURVE",
"430 525 CURVE SMOOTH",
"430 205 LINE SMOOTH",
"430 123 OFFCURVE",
"379 70 OFFCURVE",
"300 70 CURVE SMOOTH"
);
}
);
width = 600;
},
{
anchors = (
{
name = bottom;
position = "{300, 0}";
},
{
name = top;
position = "{300, 730}";
}
);
layerId = "EDF5EB54-295C-4C90-9A2F-67CD82979CFF";
paths = (
{
closed = 1;
nodes = (
"510 -180 LINE",
"395 10 LINE",
"459 40 OFFCURVE",
"495 106 OFFCURVE",
"495 190 CURVE SMOOTH",
"495 540 LINE SMOOTH",
"495 656 OFFCURVE",
"420 740 OFFCURVE",
"301 740 CURVE SMOOTH",
"181 740 OFFCURVE",
"105 662 OFFCURVE",
"105 540 CURVE SMOOTH",
"105 190 LINE SMOOTH",
"105 69 OFFCURVE",
"182 -10 OFFCURVE",
"301 -10 CURVE SMOOTH",
"321 -10 OFFCURVE",
"343 -7 OFFCURVE",
"354 -5 CURVE",
"339 0 LINE",
"449 -180 LINE"
);
},
{
closed = 1;
nodes = (
"209 35 OFFCURVE",
"155 92 OFFCURVE",
"155 190 CURVE SMOOTH",
"155 540 LINE SMOOTH",
"155 638 OFFCURVE",
"209 695 OFFCURVE",
"301 695 CURVE SMOOTH",
"391 695 OFFCURVE",
"445 637 OFFCURVE",
"445 540 CURVE SMOOTH",
"445 190 LINE SMOOTH",
"445 92 OFFCURVE",
"392 35 OFFCURVE",
"301 35 CURVE SMOOTH"
);
}
);
width = 600;
}
);
unicode = 0051;
},
{
glyphname = R;
layers = (
{
anchors = (
{
name = bottom;
position = "{300, 0}";
},
{
name = top;
position = "{300, 730}";
}
);
layerId = "9ADF6715-3D0F-493D-8567-18A6FBCFC567";
paths = (
{
closed = 1;
nodes = (
"214 0 LINE",
"214 276 LINE",
"284 276 LINE",
"402 0 LINE",
"565 0 LINE",
"427 300 LINE",
"505 333 OFFCURVE",
"555 413 OFFCURVE",
"555 508 CURVE SMOOTH",
"555 644 OFFCURVE",
"455 730 OFFCURVE",
"300 730 CURVE SMOOTH",
"65 730 LINE",
"65 0 LINE"
);
},
{
closed = 1;
nodes = (
"214 600 LINE",
"300 600 LINE SMOOTH",
"366 600 OFFCURVE",
"405 563 OFFCURVE",
"405 501 CURVE SMOOTH",
"405 441 OFFCURVE",
"366 406 OFFCURVE",
"300 406 CURVE SMOOTH",
"214 406 LINE"
);
}
);
width = 600;
},
{
anchors = (
{
name = bottom;
position = "{300, 0}";
},
{
name = top;
position = "{300, 730}";
}
);
layerId = "CCC0BD40-BA8C-414E-B576-CF0B94E6C996";
paths = (
{
closed = 1;
nodes = (
"182 0 LINE",
"182 310 LINE",
"303 310 LINE",
"446 0 LINE",
"545 0 LINE",
"396 319 LINE",
"480 347 OFFCURVE",
"535 421 OFFCURVE",
"535 520 CURVE SMOOTH",
"535 645 OFFCURVE",
"448 730 OFFCURVE",
"318 730 CURVE SMOOTH",
"92 730 LINE",
"92 0 LINE"
);
},
{
closed = 1;
nodes = (
"182 649 LINE",
"318 649 LINE SMOOTH",
"392 649 OFFCURVE",
"442 598 OFFCURVE",
"442 520 CURVE SMOOTH",
"442 442 OFFCURVE",
"393 391 OFFCURVE",
"318 391 CURVE SMOOTH",
"182 391 LINE"
);
}
);
width = 600;
},
{
anchors = (
{
name = bottom;
position = "{300, 0}";
},
{
name = top;
position = "{300, 730}";
}
);
layerId = "EDF5EB54-295C-4C90-9A2F-67CD82979CFF";
paths = (
{
closed = 1;
nodes = (
"160 0 LINE",
"160 330 LINE",
"305 330 LINE",
"470 0 LINE",
"530 0 LINE",
"359 332 LINE",
"461 347 OFFCURVE",
"525 422 OFFCURVE",
"525 528 CURVE SMOOTH",
"525 652 OFFCURVE",
"444 730 OFFCURVE",
"315 730 CURVE SMOOTH",
"110 730 LINE",
"110 0 LINE"
);
},
{
closed = 1;
nodes = (
"160 684 LINE",
"315 684 LINE SMOOTH",
"412 684 OFFCURVE",
"475 624 OFFCURVE",
"475 530 CURVE SMOOTH",
"475 436 OFFCURVE",
"412 375 OFFCURVE",
"315 375 CURVE SMOOTH",
"160 375 LINE"
);
}
);
width = 600;
}
);
unicode = 0052;
},
{
glyphname = S;
layers = (
{
anchors = (
{
name = bottom;
position = "{300, 0}";
},
{
name = top;
position = "{300, 730}";
}
);
layerId = "9ADF6715-3D0F-493D-8567-18A6FBCFC567";
paths = (
{
closed = 1;
nodes = (
"456 -10 OFFCURVE",
"553 75 OFFCURVE",
"553 206 CURVE SMOOTH",
"553 324 OFFCURVE",
"481 415 OFFCURVE",
"366 441 CURVE SMOOTH",
"274 462 LINE SMOOTH",
"230 472 OFFCURVE",
"205 496 OFFCURVE",
"205 535 CURVE SMOOTH",
"205 582 OFFCURVE",
"239 612 OFFCURVE",
"296 612 CURVE SMOOTH",
"355 612 OFFCURVE",
"390 581 OFFCURVE",
"390 531 CURVE",
"536 531 LINE",
"536 659 OFFCURVE",
"443 740 OFFCURVE",
"296 740 CURVE SMOOTH",
"149 740 OFFCURVE",
"59 660 OFFCURVE",
"59 530 CURVE SMOOTH",
"59 423 OFFCURVE",
"131 342 OFFCURVE",
"246 315 CURVE SMOOTH",
"335 294 LINE SMOOTH",
"382 283 OFFCURVE",
"406 247 OFFCURVE",
"406 206 CURVE SMOOTH",
"406 154 OFFCURVE",
"367 120 OFFCURVE",
"302 120 CURVE SMOOTH",
"235 120 OFFCURVE",
"193 155 OFFCURVE",
"193 210 CURVE",
"47 210 LINE",
"47 75 OFFCURVE",
"148 -10 OFFCURVE",
"302 -10 CURVE SMOOTH"
);
}
);
width = 600;
},
{
anchors = (
{
name = bottom;
position = "{300, 0}";
},
{
name = top;
position = "{300, 730}";
}
);
layerId = "CCC0BD40-BA8C-414E-B576-CF0B94E6C996";
paths = (
{
closed = 1;
nodes = (
"440 -10 OFFCURVE",
"528 72 OFFCURVE",
"528 200 CURVE SMOOTH",
"528 301 OFFCURVE",
"471 380 OFFCURVE",
"374 407 CURVE SMOOTH",
"260 439 LINE SMOOTH",
"208 454 OFFCURVE",
"178 493 OFFCURVE",
"178 547 CURVE SMOOTH",
"178 614 OFFCURVE",
"226 660 OFFCURVE",
"297 660 CURVE SMOOTH",
"368 660 OFFCURVE",
"418 614 OFFCURVE",
"418 547 CURVE",
"508 547 LINE",
"508 661 OFFCURVE",
"421 740 OFFCURVE",
"297 740 CURVE SMOOTH",
"174 740 OFFCURVE",
"90 661 OFFCURVE",
"90 545 CURVE SMOOTH",
"90 451 OFFCURVE",
"146 378 OFFCURVE",
"238 352 CURVE SMOOTH",
"349 321 LINE SMOOTH",
"407 305 OFFCURVE",
"440 259 OFFCURVE",
"440 200 CURVE SMOOTH",
"440 122 OFFCURVE",
"387 70 OFFCURVE",
"304 70 CURVE SMOOTH",
"218 70 OFFCURVE",
"162 119 OFFCURVE",
"162 200 CURVE",
"72 200 LINE",
"72 69 OFFCURVE",
"163 -10 OFFCURVE",
"304 -10 CURVE SMOOTH"
);
}
);
width = 600;
},
{
anchors = (
{
name = bottom;
position = "{300, 0}";
},
{
name = top;
position = "{300, 730}";
}
);
layerId = "EDF5EB54-295C-4C90-9A2F-67CD82979CFF";
paths = (
{
closed = 1;
nodes = (
"430 -10 OFFCURVE",
"515 69 OFFCURVE",
"515 183 CURVE SMOOTH",
"515 279 OFFCURVE",
"456 357 OFFCURVE",
"363 386 CURVE SMOOTH",
"261 418 LINE SMOOTH",
"195 439 OFFCURVE",
"154 495 OFFCURVE",
"154 563 CURVE SMOOTH",
"154 642 OFFCURVE",
"215 696 OFFCURVE",
"303 696 CURVE SMOOTH",
"393 696 OFFCURVE",
"454 635 OFFCURVE",
"454 545 CURVE",
"503 545 LINE",
"503 661 OFFCURVE",
"422 740 OFFCURVE",
"304 740 CURVE SMOOTH",
"186 740 OFFCURVE",
"105 666 OFFCURVE",
"105 559 CURVE SMOOTH",
"105 471 OFFCURVE",
"161 399 OFFCURVE",
"249 372 CURVE SMOOTH",
"351 341 LINE SMOOTH",
"422 319 OFFCURVE",
"466 257 OFFCURVE",
"466 180 CURVE SMOOTH",
"466 94 OFFCURVE",
"400 35 OFFCURVE",
"305 35 CURVE SMOOTH",
"204 35 OFFCURVE",
"134 102 OFFCURVE",
"134 200 CURVE",
"85 200 LINE",
"85 75 OFFCURVE",
"175 -10 OFFCURVE",
"305 -10 CURVE SMOOTH"
);
}
);
width = 600;
}
);
unicode = 0053;
},
{
glyphname = Scedilla;
layers = (
{
anchors = (
{
name = _bottom;
position = "{300, 0}";
}
);
components = (
{
alignment = -1;
name = S;
}
);
layerId = "9ADF6715-3D0F-493D-8567-18A6FBCFC567";
paths = (
{
closed = 1;
nodes = (
"305 -225 LINE SMOOTH",
"389 -225 OFFCURVE",
"445 -182 OFFCURVE",
"445 -133 CURVE SMOOTH",
"445 -72 OFFCURVE",
"364 -43 OFFCURVE",
"303 -39 CURVE",
"322 16 LINE",
"249 16 LINE",
"214 -69 LINE",
"287 -69 OFFCURVE",
"330 -88 OFFCURVE",
"330 -119 CURVE SMOOTH",
"330 -135 OFFCURVE",
"308 -155 OFFCURVE",
"275 -155 CURVE SMOOTH",
"195 -155 LINE",
"195 -225 LINE"
);
}
);
width = 600;
},
{
anchors = (
{
name = _bottom;
position = "{300, 0}";
}
);
components = (
{
alignment = -1;
name = S;
}
);
layerId = "CCC0BD40-BA8C-414E-B576-CF0B94E6C996";
paths = (
{
closed = 1;
nodes = (
"290 -203 LINE SMOOTH",
"362 -203 OFFCURVE",
"410 -166 OFFCURVE",
"410 -120 CURVE SMOOTH",
"410 -68 OFFCURVE",
"342 -41 OFFCURVE",
"290 -35 CURVE",
"311 26 LINE",
"254 26 LINE",
"219 -69 LINE",
"286 -69 OFFCURVE",
"324 -89 OFFCURVE",
"324 -112 CURVE SMOOTH",
"324 -130 OFFCURVE",
"304 -148 OFFCURVE",
"275 -148 CURVE SMOOTH",
"205 -148 LINE",
"205 -203 LINE"
);
}
);
width = 600;
},
{
anchors = (
{
name = _bottom;
position = "{300, 0}";
}
);
components = (
{
alignment = -1;
name = S;
}
);
layerId = "EDF5EB54-295C-4C90-9A2F-67CD82979CFF";
paths = (
{
closed = 1;
nodes = (
"315 -195 LINE SMOOTH",
"375 -195 OFFCURVE",
"415 -161 OFFCURVE",
"415 -118 CURVE SMOOTH",
"415 -61 OFFCURVE",
"352 -37 OFFCURVE",
"305 -34 CURVE",
"328 26 LINE",
"286 26 LINE",
"251 -64 LINE",
"322 -64 OFFCURVE",
"369 -86 OFFCURVE",
"369 -118 CURVE SMOOTH",
"369 -140 OFFCURVE",
"347 -160 OFFCURVE",
"315 -160 CURVE SMOOTH",
"235 -160 LINE",
"235 -195 LINE"
);
}
);
width = 600;
}
);
unicode = 015E;
},
{
glyphname = Germandbls;
layers = (
{
layerId = "EDF5EB54-295C-4C90-9A2F-67CD82979CFF";
paths = (
{
closed = 1;
nodes = (
"160 0 LINE",
"160 543 LINE SMOOTH",
"160 629 OFFCURVE",
"217 685 OFFCURVE",
"305 685 CURVE SMOOTH",
"466 685 LINE",
"270 411 LINE",
"270 368 LINE",
"310 368 LINE SMOOTH",
"407 368 OFFCURVE",
"470 305 OFFCURVE",
"470 208 CURVE SMOOTH",
"470 109 OFFCURVE",
"407 45 OFFCURVE",
"310 45 CURVE SMOOTH",
"248 45 LINE",
"248 0 LINE",
"310 0 LINE SMOOTH",
"438 0 OFFCURVE",
"520 82 OFFCURVE",
"520 210 CURVE SMOOTH",
"520 330 OFFCURVE",
"438 407 OFFCURVE",
"310 407 CURVE",
"310 398 LINE",
"517 684 LINE",
"517 730 LINE",
"305 730 LINE SMOOTH",
"187 730 OFFCURVE",
"110 657 OFFCURVE",
"110 543 CURVE SMOOTH",
"110 0 LINE"
);
}
);
width = 600;
},
{
layerId = "9ADF6715-3D0F-493D-8567-18A6FBCFC567";
paths = (
{
closed = 1;
nodes = (
"195 0 LINE",
"195 511 LINE SMOOTH",
"195 568 OFFCURVE",
"234 605 OFFCURVE",
"295 605 CURVE SMOOTH",
"412 605 LINE",
"259 438 LINE",
"259 328 LINE",
"306 328 LINE SMOOTH",
"369 328 OFFCURVE",
"408 287 OFFCURVE",
"408 227 CURVE SMOOTH",
"408 167 OFFCURVE",
"370 125 OFFCURVE",
"306 125 CURVE SMOOTH",
"259 125 LINE",
"259 0 LINE",
"311 0 LINE SMOOTH",
"462 0 OFFCURVE",
"559 84 OFFCURVE",
"559 215 CURVE SMOOTH",
"559 344 OFFCURVE",
"471 427 OFFCURVE",
"336 425 CURVE",
"349 375 LINE",
"546 589 LINE",
"546 730 LINE",
"296 730 LINE SMOOTH",
"153 730 OFFCURVE",
"60 644 OFFCURVE",
"60 511 CURVE SMOOTH",
"60 0 LINE"
);
}
);
width = 600;
},
{
layerId = "CCC0BD40-BA8C-414E-B576-CF0B94E6C996";
paths = (
{
closed = 1;
nodes = (
"182 0 LINE",
"182 524 LINE SMOOTH",
"182 601 OFFCURVE",
"228 648 OFFCURVE",
"302 648 CURVE SMOOTH",
"434 648 LINE",
"270 423 LINE",
"270 345 LINE",
"315 345 LINE SMOOTH",
"395 345 OFFCURVE",
"445 295 OFFCURVE",
"445 215 CURVE SMOOTH",
"445 133 OFFCURVE",
"395 82 OFFCURVE",
"315 82 CURVE SMOOTH",
"258 82 LINE",
"258 0 LINE",
"325 0 LINE SMOOTH",
"454 0 OFFCURVE",
"540 86 OFFCURVE",
"540 215 CURVE SMOOTH",
"540 342 OFFCURVE",
"464 425 OFFCURVE",
"350 423 CURVE",
"350 400 LINE",
"529 642 LINE",
"529 730 LINE",
"302 730 LINE SMOOTH",
"176 730 OFFCURVE",
"92 648 OFFCURVE",
"92 524 CURVE SMOOTH",
"92 0 LINE"
);
}
);
width = 600;
}
);
unicode = 1E9E;
},
{
glyphname = Schwa;
layers = (
{
layerId = "9ADF6715-3D0F-493D-8567-18A6FBCFC567";
paths = (
{
closed = 1;
nodes = (
"448 -10 OFFCURVE",
"540 78 OFFCURVE",
"540 210 CURVE SMOOTH",
"540 520 LINE SMOOTH",
"540 653 OFFCURVE",
"448 740 OFFCURVE",
"301 740 CURVE SMOOTH",
"155 740 OFFCURVE",
"62 654 OFFCURVE",
"62 520 CURVE",
"212 520 LINE",
"212 578 OFFCURVE",
"241 610 OFFCURVE",
"301 610 CURVE SMOOTH",
"361 610 OFFCURVE",
"390 578 OFFCURVE",
"390 520 CURVE",
"390 416 LINE",
"60 416 LINE",
"60 210 LINE SMOOTH",
"60 78 OFFCURVE",
"155 -10 OFFCURVE",
"301 -10 CURVE SMOOTH"
);
},
{
closed = 1;
nodes = (
"239 105 OFFCURVE",
"210 138 OFFCURVE",
"210 210 CURVE SMOOTH",
"210 316 LINE",
"200 306 LINE",
"390 306 LINE",
"390 210 LINE SMOOTH",
"390 142 OFFCURVE",
"367 105 OFFCURVE",
"301 105 CURVE SMOOTH"
);
}
);
width = 600;
},
{
layerId = "CCC0BD40-BA8C-414E-B576-CF0B94E6C996";
paths = (
{
closed = 1;
nodes = (
"430 -10 OFFCURVE",
"510 73 OFFCURVE",
"510 200 CURVE SMOOTH",
"510 530 LINE SMOOTH",
"510 661 OFFCURVE",
"433 740 OFFCURVE",
"300 740 CURVE SMOOTH",
"169 740 OFFCURVE",
"90 659 OFFCURVE",
"90 530 CURVE",
"180 530 LINE",
"180 613 OFFCURVE",
"222 660 OFFCURVE",
"300 660 CURVE SMOOTH",
"379 660 OFFCURVE",
"420 613 OFFCURVE",
"420 531 CURVE SMOOTH",
"420 400 LINE",
"90 400 LINE",
"90 200 LINE SMOOTH",
"90 73 OFFCURVE",
"170 -10 OFFCURVE",
"300 -10 CURVE SMOOTH"
);
},
{
closed = 1;
nodes = (
"218 65 OFFCURVE",
"180 113 OFFCURVE",
"180 200 CURVE SMOOTH",
"180 338 LINE",
"173 330 LINE",
"420 330 LINE",
"420 200 LINE SMOOTH",
"420 113 OFFCURVE",
"382 65 OFFCURVE",
"300 65 CURVE SMOOTH"
);
}
);
width = 600;
},
{
layerId = "EDF5EB54-295C-4C90-9A2F-67CD82979CFF";
paths = (
{
closed = 1;
nodes = (
"421 -10 OFFCURVE",
"495 69 OFFCURVE",
"495 190 CURVE SMOOTH",
"495 540 LINE SMOOTH",
"495 662 OFFCURVE",
"421 740 OFFCURVE",
"299 740 CURVE SMOOTH",
"175 740 OFFCURVE",
"105 658 OFFCURVE",
"105 530 CURVE",
"155 530 LINE",
"155 632 OFFCURVE",
"204 695 OFFCURVE",
"299 695 CURVE SMOOTH",
"392 695 OFFCURVE",
"445 636 OFFCURVE",
"445 540 CURVE SMOOTH",
"445 378 LINE",
"105 378 LINE",
"105 190 LINE SMOOTH",
"105 69 OFFCURVE",
"178 -10 OFFCURVE",
"299 -10 CURVE SMOOTH"
);
},
{
closed = 1;
nodes = (
"207 34 OFFCURVE",
"155 94 OFFCURVE",
"155 190 CURVE SMOOTH",
"155 344 LINE",
"144 335 LINE",
"445 335 LINE",
"445 190 LINE SMOOTH",
"445 93 OFFCURVE",
"393 34 OFFCURVE",
"299 34 CURVE SMOOTH"
);
}
);
width = 600;
}
);
unicode = 018F;
},
{
glyphname = T;
layers = (
{
anchors = (
{
name = bottom;
position = "{300, 0}";
},
{
name = center;
position = "{300, 365}";
},
{
name = top;
position = "{300, 730}";
}
);
layerId = "9ADF6715-3D0F-493D-8567-18A6FBCFC567";
paths = (
{
closed = 1;
nodes = (
"375 0 LINE",
"375 595 LINE",
"560 595 LINE",
"560 730 LINE",
"40 730 LINE",
"40 595 LINE",
"225 595 LINE",
"225 0 LINE"
);
}
);
width = 600;
},
{
anchors = (
{
name = bottom;
position = "{300, 0}";
},
{
name = center;
position = "{300, 365}";
},
{
name = top;
position = "{300, 730}";
}
);
layerId = "CCC0BD40-BA8C-414E-B576-CF0B94E6C996";
paths = (
{
closed = 1;
nodes = (
"345 0 LINE",
"345 648 LINE",
"545 648 LINE",
"545 730 LINE",
"55 730 LINE",
"55 648 LINE",
"255 648 LINE",
"255 0 LINE"
);
}
);
width = 600;
},
{
anchors = (
{
name = bottom;
position = "{300, 0}";
},
{
name = center;
position = "{300, 365}";
},
{
name = top;
position = "{300, 730}";
}
);
layerId = "EDF5EB54-295C-4C90-9A2F-67CD82979CFF";
paths = (
{
closed = 1;
nodes = (
"326 0 LINE",
"326 685 LINE",
"540 685 LINE",
"540 730 LINE",
"60 730 LINE",
"60 685 LINE",
"276 685 LINE",
"276 0 LINE"
);
}
);
width = 600;
}
);
unicode = 0054;
},
{
glyphname = Tbar;
layers = (
{
components = (
{
alignment = -1;
name = T;
}
);
layerId = "9ADF6715-3D0F-493D-8567-18A6FBCFC567";
paths = (
{
closed = 1;
nodes = (
"500 265 LINE",
"500 390 LINE",
"100 390 LINE",
"100 265 LINE"
);
}
);
width = 600;
},
{
components = (
{
alignment = -1;
name = T;
}
);
layerId = "CCC0BD40-BA8C-414E-B576-CF0B94E6C996";
paths = (
{
closed = 1;
nodes = (
"490 295 LINE",
"490 370 LINE",
"110 370 LINE",
"110 295 LINE"
);
}
);
width = 600;
},
{
components = (
{
alignment = -1;
name = T;
}
);
layerId = "EDF5EB54-295C-4C90-9A2F-67CD82979CFF";
paths = (
{
closed = 1;
nodes = (
"480 310 LINE",
"480 355 LINE",
"120 355 LINE",
"120 310 LINE"
);
}
);
width = 600;
}
);
unicode = 0166;
},
{
glyphname = Tcedilla;
layers = (
{
anchors = (
{
name = _bottom;
position = "{300, 0}";
}
);
components = (
{
alignment = -1;
name = T;
}
);
layerId = "9ADF6715-3D0F-493D-8567-18A6FBCFC567";
paths = (
{
closed = 1;
nodes = (
"364 -225 LINE SMOOTH",
"448 -225 OFFCURVE",
"504 -182 OFFCURVE",
"504 -133 CURVE SMOOTH",
"504 -72 OFFCURVE",
"423 -43 OFFCURVE",
"362 -39 CURVE",
"375 0 LINE",
"308 16 LINE",
"273 -69 LINE",
"346 -69 OFFCURVE",
"389 -88 OFFCURVE",
"389 -119 CURVE SMOOTH",
"389 -135 OFFCURVE",
"367 -155 OFFCURVE",
"334 -155 CURVE SMOOTH",
"254 -155 LINE",
"254 -225 LINE"
);
}
);
width = 600;
},
{
anchors = (
{
name = _bottom;
position = "{300, 0}";
}
);
components = (
{
alignment = -1;
name = T;
}
);
layerId = "CCC0BD40-BA8C-414E-B576-CF0B94E6C996";
paths = (
{
closed = 1;
nodes = (
"333 -203 LINE SMOOTH",
"405 -203 OFFCURVE",
"453 -166 OFFCURVE",
"453 -120 CURVE SMOOTH",
"453 -68 OFFCURVE",
"385 -41 OFFCURVE",
"333 -35 CURVE",
"345 0 LINE",
"297 26 LINE",
"262 -69 LINE",
"329 -69 OFFCURVE",
"367 -89 OFFCURVE",
"367 -112 CURVE SMOOTH",
"367 -130 OFFCURVE",
"347 -148 OFFCURVE",
"318 -148 CURVE SMOOTH",
"248 -148 LINE",
"248 -203 LINE"
);
}
);
width = 600;
},
{
anchors = (
{
name = _bottom;
position = "{300, 0}";
}
);
components = (
{
alignment = -1;
name = T;
}
);
layerId = "EDF5EB54-295C-4C90-9A2F-67CD82979CFF";
paths = (
{
closed = 1;
nodes = (
"323 -195 LINE SMOOTH",
"383 -195 OFFCURVE",
"423 -161 OFFCURVE",
"423 -118 CURVE SMOOTH",
"423 -61 OFFCURVE",
"360 -37 OFFCURVE",
"313 -34 CURVE",
"326 0 LINE",
"294 26 LINE",
"259 -64 LINE",
"330 -64 OFFCURVE",
"377 -86 OFFCURVE",
"377 -118 CURVE SMOOTH",
"377 -140 OFFCURVE",
"355 -160 OFFCURVE",
"323 -160 CURVE SMOOTH",
"243 -160 LINE",
"243 -195 LINE"
);
}
);
width = 600;
}
);
unicode = 0162;
},
{
glyphname = U;
layers = (
{
anchors = (
{
name = bottom;
position = "{300, 0}";
},
{
name = horn;
position = "{385, 730}";
},
{
name = ogonek;
position = "{345, 0}";
},
{
name = top;
position = "{300, 730}";
},
{
name = topright;
position = "{580, 730}";
}
);
layerId = "9ADF6715-3D0F-493D-8567-18A6FBCFC567";
paths = (
{
closed = 1;
nodes = (
"448 -10 OFFCURVE",
"540 76 OFFCURVE",
"540 214 CURVE SMOOTH",
"540 730 LINE",
"390 730 LINE",
"390 215 LINE SMOOTH",
"390 154 OFFCURVE",
"356 120 OFFCURVE",
"300 120 CURVE SMOOTH",
"243 120 OFFCURVE",
"210 154 OFFCURVE",
"210 215 CURVE SMOOTH",
"210 730 LINE",
"60 730 LINE",
"60 214 LINE SMOOTH",
"60 75 OFFCURVE",
"152 -10 OFFCURVE",
"300 -10 CURVE SMOOTH"
);
}
);
width = 600;
},
{
anchors = (
{
name = bottom;
position = "{300, 0}";
},
{
name = horn;
position = "{385, 730}";
},
{
name = ogonek;
position = "{350, 0}";
},
{
name = top;
position = "{300, 730}";
},
{
name = topright;
position = "{580, 730}";
}
);
layerId = "CCC0BD40-BA8C-414E-B576-CF0B94E6C996";
paths = (
{
closed = 1;
nodes = (
"437 -10 OFFCURVE",
"510 69 OFFCURVE",
"510 200 CURVE SMOOTH",
"510 730 LINE",
"420 730 LINE",
"420 200 LINE SMOOTH",
"420 120 OFFCURVE",
"380 70 OFFCURVE",
"300 70 CURVE SMOOTH",
"219 70 OFFCURVE",
"180 120 OFFCURVE",
"180 200 CURVE SMOOTH",
"180 730 LINE",
"90 730 LINE",
"90 200 LINE SMOOTH",
"90 70 OFFCURVE",
"164 -10 OFFCURVE",
"300 -10 CURVE SMOOTH"
);
}
);
width = 600;
},
{
anchors = (
{
name = bottom;
position = "{300, 0}";
},
{
name = horn;
position = "{392, 730}";
},
{
name = ogonek;
position = "{355, 0}";
},
{
name = top;
position = "{300, 730}";
},
{
name = topright;
position = "{580, 730}";
}
);
layerId = "EDF5EB54-295C-4C90-9A2F-67CD82979CFF";
paths = (
{
closed = 1;
nodes = (
"417 -10 OFFCURVE",
"492 69 OFFCURVE",
"492 190 CURVE SMOOTH",
"492 730 LINE",
"442 730 LINE",
"442 190 LINE SMOOTH",
"442 93 OFFCURVE",
"390 35 OFFCURVE",
"301 35 CURVE SMOOTH",
"211 35 OFFCURVE",
"158 92 OFFCURVE",
"158 190 CURVE SMOOTH",
"158 730 LINE",
"108 730 LINE",
"108 190 LINE SMOOTH",
"108 69 OFFCURVE",
"184 -10 OFFCURVE",
"301 -10 CURVE SMOOTH"
);
}
);
width = 600;
}
);
unicode = 0055;
},
{
glyphname = Uhorn;
layers = (
{
anchors = (
{
name = top;
position = "{300, 730}";
}
);
components = (
{
alignment = -1;
name = U;
}
);
layerId = "9ADF6715-3D0F-493D-8567-18A6FBCFC567";
paths = (
{
closed = 1;
nodes = (
"506 630 LINE SMOOTH",
"593 630 OFFCURVE",
"651 684 OFFCURVE",
"651 765 CURVE SMOOTH",
"651 840 LINE",
"531 840 LINE",
"531 765 LINE SMOOTH",
"531 743 OFFCURVE",
"518 730 OFFCURVE",
"496 730 CURVE SMOOTH",
"446 730 LINE",
"446 630 LINE"
);
}
);
width = 600;
},
{
anchors = (
{
name = top;
position = "{300, 730}";
}
);
components = (
{
alignment = -1;
name = U;
}
);
layerId = "CCC0BD40-BA8C-414E-B576-CF0B94E6C996";
paths = (
{
closed = 1;
nodes = (
"490 665 LINE SMOOTH",
"554 665 OFFCURVE",
"595 702 OFFCURVE",
"595 760 CURVE SMOOTH",
"595 840 LINE",
"520 840 LINE",
"520 765 LINE SMOOTH",
"520 744 OFFCURVE",
"506 730 OFFCURVE",
"485 730 CURVE SMOOTH",
"435 730 LINE",
"435 665 LINE"
);
}
);
width = 600;
},
{
anchors = (
{
name = top;
position = "{300, 730}";
}
);
components = (
{
alignment = -1;
name = U;
}
);
layerId = "EDF5EB54-295C-4C90-9A2F-67CD82979CFF";
paths = (
{
closed = 1;
nodes = (
"497 695 LINE SMOOTH",
"548 695 OFFCURVE",
"582 729 OFFCURVE",
"582 780 CURVE SMOOTH",
"582 840 LINE",
"542 840 LINE",
"542 780 LINE SMOOTH",
"542 750 OFFCURVE",
"524 730 OFFCURVE",
"497 730 CURVE SMOOTH",
"442 730 LINE",
"442 695 LINE"
);
}
);
width = 600;
}
);
unicode = 01AF;
},
{
glyphname = Uogonek;
layers = (
{
anchors = (
{
name = horn;
position = "{385, 730}";
},
{
name = top;
position = "{300, 730}";
}
);
layerId = "9ADF6715-3D0F-493D-8567-18A6FBCFC567";
paths = (
{
closed = 1;
nodes = (
"462 -225 LINE",
"462 -120 LINE",
"393 -120 LINE SMOOTH",
"364 -120 OFFCURVE",
"347 -103 OFFCURVE",
"347 -82 CURVE SMOOTH",
"347 -65 OFFCURVE",
"359 -38 OFFCURVE",
"386 -17 CURVE SMOOTH",
"434 21 LINE",
"498 58 OFFCURVE",
"540 127 OFFCURVE",
"540 210 CURVE SMOOTH",
"540 730 LINE",
"390 730 LINE",
"390 210 LINE SMOOTH",
"390 152 OFFCURVE",
"360 120 OFFCURVE",
"300 120 CURVE SMOOTH",
"240 120 OFFCURVE",
"210 152 OFFCURVE",
"210 210 CURVE SMOOTH",
"210 730 LINE",
"60 730 LINE",
"60 210 LINE SMOOTH",
"60 78 OFFCURVE",
"153 -10 OFFCURVE",
"300 -10 CURVE SMOOTH",
"333 -10 OFFCURVE",
"348 11 OFFCURVE",
"348 21 CURVE",
"280 -9 OFFCURVE",
"223 -68 OFFCURVE",
"223 -115 CURVE SMOOTH",
"223 -180 OFFCURVE",
"273 -225 OFFCURVE",
"354 -225 CURVE SMOOTH"
);
}
);
width = 600;
},
{
anchors = (
{
name = horn;
position = "{385, 730}";
},
{
name = top;
position = "{300, 730}";
}
);
layerId = "CCC0BD40-BA8C-414E-B576-CF0B94E6C996";
paths = (
{
closed = 1;
nodes = (
"457 -203 LINE",
"457 -143 LINE",
"397 -143 LINE SMOOTH",
"363 -143 OFFCURVE",
"342 -122 OFFCURVE",
"342 -93 CURVE SMOOTH",
"342 -65 OFFCURVE",
"357 -36 OFFCURVE",
"401 1 CURVE SMOOTH",
"430 25 LINE",
"482 60 OFFCURVE",
"510 121 OFFCURVE",
"510 200 CURVE SMOOTH",
"510 730 LINE",
"420 730 LINE",
"420 200 LINE SMOOTH",
"420 117 OFFCURVE",
"378 71 OFFCURVE",
"300 71 CURVE SMOOTH",
"222 71 OFFCURVE",
"180 117 OFFCURVE",
"180 200 CURVE SMOOTH",
"180 730 LINE",
"90 730 LINE",
"90 200 LINE SMOOTH",
"90 69 OFFCURVE",
"169 -10 OFFCURVE",
"300 -10 CURVE SMOOTH",
"304 -10 OFFCURVE",
"309 -10 OFFCURVE",
"313 -10 CURVE",
"277 -45 OFFCURVE",
"257 -82 OFFCURVE",
"257 -110 CURVE SMOOTH",
"257 -164 OFFCURVE",
"305 -203 OFFCURVE",
"379 -203 CURVE SMOOTH"
);
}
);
width = 600;
},
{
anchors = (
{
name = horn;
position = "{392, 730}";
},
{
name = top;
position = "{300, 730}";
}
);
layerId = "EDF5EB54-295C-4C90-9A2F-67CD82979CFF";
paths = (
{
closed = 1;
nodes = (
"442 -195 LINE",
"442 -153 LINE",
"378 -153 LINE SMOOTH",
"346 -153 OFFCURVE",
"327 -134 OFFCURVE",
"327 -103 CURVE SMOOTH",
"327 -75 OFFCURVE",
"349 -33 OFFCURVE",
"388 2 CURVE SMOOTH",
"397 10 LINE",
"459 45 OFFCURVE",
"492 105 OFFCURVE",
"492 190 CURVE SMOOTH",
"492 730 LINE",
"442 730 LINE",
"442 190 LINE SMOOTH",
"442 91 OFFCURVE",
"392 34 OFFCURVE",
"300 34 CURVE SMOOTH",
"208 34 OFFCURVE",
"158 91 OFFCURVE",
"158 190 CURVE SMOOTH",
"158 730 LINE",
"108 730 LINE",
"108 190 LINE SMOOTH",
"108 68 OFFCURVE",
"182 -10 OFFCURVE",
"300 -10 CURVE SMOOTH",
"311 -10 OFFCURVE",
"329 -9 OFFCURVE",
"340 -6 CURVE",
"302 -39 OFFCURVE",
"280 -80 OFFCURVE",
"280 -115 CURVE SMOOTH",
"280 -165 OFFCURVE",
"314 -195 OFFCURVE",
"369 -195 CURVE SMOOTH"
);
}
);
width = 600;
}
);
unicode = 0172;
},
{
glyphname = V;
layers = (
{
anchors = (
{
name = bottom;
position = "{300, 0}";
},
{
name = top;
position = "{300, 730}";
}
);
layerId = "9ADF6715-3D0F-493D-8567-18A6FBCFC567";
paths = (
{
closed = 1;
nodes = (
"396 0 LINE",
"575 730 LINE",
"424 730 LINE",
"326 270 LINE SMOOTH",
"319 237 OFFCURVE",
"310 179 OFFCURVE",
"305 145 CURVE",
"299 179 OFFCURVE",
"288 237 OFFCURVE",
"281 269 CURVE SMOOTH",
"180 730 LINE",
"25 730 LINE",
"206 0 LINE"
);
}
);
width = 600;
},
{
anchors = (
{
name = bottom;
position = "{300, 0}";
},
{
name = top;
position = "{300, 730}";
}
);
layerId = "CCC0BD40-BA8C-414E-B576-CF0B94E6C996";
paths = (
{
closed = 1;
nodes = (
"361 0 LINE",
"550 730 LINE",
"457 730 LINE",
"337 234 LINE SMOOTH",
"320 165 OFFCURVE",
"306 100 OFFCURVE",
"301 70 CURVE",
"296 100 OFFCURVE",
"284 164 OFFCURVE",
"267 233 CURVE SMOOTH",
"142 730 LINE",
"50 730 LINE",
"238 0 LINE"
);
}
);
width = 600;
},
{
anchors = (
{
name = bottom;
position = "{300, 0}";
},
{
name = top;
position = "{300, 730}";
}
);
layerId = "EDF5EB54-295C-4C90-9A2F-67CD82979CFF";
paths = (
{
closed = 1;
nodes = (
"332 0 LINE",
"532 730 LINE",
"483 730 LINE",
"334 180 LINE SMOOTH",
"318 122 OFFCURVE",
"306 66 OFFCURVE",
"301 40 CURVE",
"296 66 OFFCURVE",
"285 122 OFFCURVE",
"269 180 CURVE SMOOTH",
"121 730 LINE",
"68 730 LINE",
"268 0 LINE"
);
}
);
width = 600;
}
);
unicode = 0056;
},
{
glyphname = W;
layers = (
{
anchors = (
{
name = bottom;
position = "{300, 0}";
},
{
name = top;
position = "{300, 730}";
}
);
layerId = "9ADF6715-3D0F-493D-8567-18A6FBCFC567";
paths = (
{
closed = 1;
nodes = (
"235 0 LINE",
"289 485 LINE SMOOTH",
"293 519 OFFCURVE",
"297 594 OFFCURVE",
"300 640 CURVE",
"303 594 OFFCURVE",
"309 519 OFFCURVE",
"312 485 CURVE SMOOTH",
"361 0 LINE",
"517 0 LINE",
"590 730 LINE",
"470 730 LINE",
"436 242 LINE SMOOTH",
"434 213 OFFCURVE",
"430 144 OFFCURVE",
"429 100 CURVE",
"424 144 OFFCURVE",
"417 213 OFFCURVE",
"414 242 CURVE SMOOTH",
"358 730 LINE",
"244 730 LINE",
"186 242 LINE SMOOTH",
"183 213 OFFCURVE",
"177 144 OFFCURVE",
"173 100 CURVE",
"172 144 OFFCURVE",
"168 213 OFFCURVE",
"166 242 CURVE SMOOTH",
"129 730 LINE",
"10 730 LINE",
"78 0 LINE"
);
}
);
width = 600;
},
{
anchors = (
{
name = bottom;
position = "{300, 0}";
},
{
name = top;
position = "{300, 730}";
}
);
layerId = "CCC0BD40-BA8C-414E-B576-CF0B94E6C996";
paths = (
{
closed = 1;
nodes = (
"220 0 LINE",
"291 550 LINE SMOOTH",
"297 595 OFFCURVE",
"299 643 OFFCURVE",
"302 667 CURVE",
"304 643 OFFCURVE",
"307 595 OFFCURVE",
"312 550 CURVE SMOOTH",
"378 0 LINE",
"491 0 LINE",
"580 730 LINE",
"501 730 LINE",
"442 190 LINE SMOOTH",
"437 146 OFFCURVE",
"433 93 OFFCURVE",
"431 65 CURVE",
"428 93 OFFCURVE",
"422 146 OFFCURVE",
"417 190 CURVE SMOOTH",
"351 730 LINE",
"254 730 LINE",
"182 190 LINE SMOOTH",
"176 146 OFFCURVE",
"172 93 OFFCURVE",
"169 65 CURVE",
"168 93 OFFCURVE",
"165 146 OFFCURVE",
"160 190 CURVE SMOOTH",
"103 730 LINE",
"20 730 LINE",
"107 0 LINE"
);
}
);
width = 600;
},
{
anchors = (
{
name = bottom;
position = "{300, 0}";
},
{
name = top;
position = "{300, 730}";
}
);
layerId = "EDF5EB54-295C-4C90-9A2F-67CD82979CFF";
paths = (
{
closed = 1;
nodes = (
"200 0 LINE",
"282 530 LINE SMOOTH",
"290 582 OFFCURVE",
"297 652 OFFCURVE",
"303 690 CURVE",
"308 651 OFFCURVE",
"315 581 OFFCURVE",
"322 530 CURVE SMOOTH",
"397 0 LINE",
"469 0 LINE",
"560 730 LINE",
"513 730 LINE",
"451 190 LINE SMOOTH",
"447 154 OFFCURVE",
"437 80 OFFCURVE",
"431 35 CURVE",
"425 80 OFFCURVE",
"417 154 OFFCURVE",
"412 190 CURVE SMOOTH",
"335 730 LINE",
"271 730 LINE",
"191 190 LINE SMOOTH",
"186 154 OFFCURVE",
"177 80 OFFCURVE",
"171 35 CURVE",
"166 80 OFFCURVE",
"159 154 OFFCURVE",
"154 190 CURVE SMOOTH",
"86 730 LINE",
"40 730 LINE",
"130 0 LINE"
);
}
);
width = 600;
}
);
unicode = 0057;
},
{
glyphname = X;
layers = (
{
anchors = (
{
name = bottom;
position = "{300, 0}";
},
{
name = top;
position = "{300, 730}";
}
);
layerId = "9ADF6715-3D0F-493D-8567-18A6FBCFC567";
paths = (
{
closed = 1;
nodes = (
"181 0 LINE",
"269 180 LINE SMOOTH",
"283 209 OFFCURVE",
"293 237 OFFCURVE",
"297 250 CURVE",
"302 237 OFFCURVE",
"313 209 OFFCURVE",
"327 180 CURVE SMOOTH",
"415 0 LINE",
"580 0 LINE",
"384 377 LINE",
"567 730 LINE",
"406 730 LINE",
"328 570 LINE SMOOTH",
"314 541 OFFCURVE",
"305 515 OFFCURVE",
"302 504 CURVE",
"299 515 OFFCURVE",
"289 541 OFFCURVE",
"274 570 CURVE SMOOTH",
"198 730 LINE",
"33 730 LINE",
"216 377 LINE",
"20 0 LINE"
);
}
);
width = 600;
},
{
anchors = (
{
name = bottom;
position = "{300, 0}";
},
{
name = top;
position = "{300, 730}";
}
);
layerId = "EDF5EB54-295C-4C90-9A2F-67CD82979CFF";
paths = (
{
closed = 1;
nodes = (
"108 0 LINE",
"248 252 LINE SMOOTH",
"260 273 OFFCURVE",
"285 317 OFFCURVE",
"301 345 CURVE",
"317 317 OFFCURVE",
"343 273 OFFCURVE",
"355 252 CURVE SMOOTH",
"491 0 LINE",
"547 0 LINE",
"330 382 LINE",
"532 730 LINE",
"478 730 LINE",
"354 508 LINE SMOOTH",
"341 485 OFFCURVE",
"315 441 OFFCURVE",
"300 415 CURVE",
"284 442 OFFCURVE",
"258 485 OFFCURVE",
"246 508 CURVE SMOOTH",
"124 730 LINE",
"68 730 LINE",
"270 380 LINE",
"53 0 LINE"
);
}
);
width = 600;
},
{
anchors = (
{
name = bottom;
position = "{300, 0}";
},
{
name = top;
position = "{300, 730}";
}
);
layerId = "CCC0BD40-BA8C-414E-B576-CF0B94E6C996";
paths = (
{
closed = 1;
nodes = (
"140 0 LINE",
"266 233 LINE SMOOTH",
"278 255 OFFCURVE",
"292 284 OFFCURVE",
"299 300 CURVE",
"306 284 OFFCURVE",
"320 255 OFFCURVE",
"332 232 CURVE SMOOTH",
"457 0 LINE",
"560 0 LINE",
"350 376 LINE",
"549 730 LINE",
"450 730 LINE",
"335 514 LINE SMOOTH",
"323 491 OFFCURVE",
"309 462 OFFCURVE",
"302 447 CURVE",
"294 462 OFFCURVE",
"280 491 OFFCURVE",
"268 514 CURVE SMOOTH",
"155 730 LINE",
"51 730 LINE",
"250 370 LINE",
"40 0 LINE"
);
}
);
width = 600;
}
);
unicode = 0058;
},
{
glyphname = Y;
layers = (
{
anchors = (
{
name = bottom;
position = "{300, 0}";
},
{
name = top;
position = "{300, 730}";
},
{
name = topleft;
position = "{20, 730}";
}
);
layerId = "9ADF6715-3D0F-493D-8567-18A6FBCFC567";
paths = (
{
closed = 1;
nodes = (
"375 0 LINE",
"375 260 LINE",
"585 730 LINE",
"429 730 LINE",
"340 510 LINE SMOOTH",
"322 466 OFFCURVE",
"309 410 OFFCURVE",
"303 380 CURVE",
"297 410 OFFCURVE",
"282 466 OFFCURVE",
"264 510 CURVE SMOOTH",
"172 730 LINE",
"15 730 LINE",
"225 260 LINE",
"225 0 LINE"
);
}
);
width = 600;
},
{
anchors = (
{
name = bottom;
position = "{300, 0}";
},
{
name = top;
position = "{300, 730}";
},
{
name = topleft;
position = "{20, 730}";
}
);
layerId = "CCC0BD40-BA8C-414E-B576-CF0B94E6C996";
paths = (
{
closed = 1;
nodes = (
"345 0 LINE",
"345 273 LINE",
"565 730 LINE",
"472 730 LINE",
"330 430 LINE SMOOTH",
"314 397 OFFCURVE",
"304 372 OFFCURVE",
"301 362 CURVE",
"298 372 OFFCURVE",
"289 397 OFFCURVE",
"273 430 CURVE SMOOTH",
"131 730 LINE",
"35 730 LINE",
"255 273 LINE",
"255 0 LINE"
);
}
);
width = 600;
},
{
anchors = (
{
name = bottom;
position = "{300, 0}";
},
{
name = top;
position = "{300, 730}";
},
{
name = topleft;
position = "{20, 730}";
}
);
layerId = "EDF5EB54-295C-4C90-9A2F-67CD82979CFF";
paths = (
{
closed = 1;
nodes = (
"325 0 LINE",
"325 280 LINE",
"550 730 LINE",
"498 730 LINE",
"333 400 LINE SMOOTH",
"318 370 OFFCURVE",
"307 342 OFFCURVE",
"301 330 CURVE",
"295 343 OFFCURVE",
"282 371 OFFCURVE",
"268 400 CURVE SMOOTH",
"103 730 LINE",
"50 730 LINE",
"275 280 LINE",
"275 0 LINE"
);
}
);
width = 600;
}
);
unicode = 0059;
},
{
glyphname = Z;
layers = (
{
anchors = (
{
name = bottom;
position = "{300, 0}";
},
{
name = center;
position = "{300, 365}";
},
{
name = top;
position = "{300, 730}";
}
);
layerId = "9ADF6715-3D0F-493D-8567-18A6FBCFC567";
paths = (
{
closed = 1;
nodes = (
"525 0 LINE",
"525 135 LINE",
"245 135 LINE",
"514 595 LINE",
"514 730 LINE",
"83 730 LINE",
"83 595 LINE",
"343 595 LINE",
"75 135 LINE",
"75 0 LINE"
);
}
);
width = 600;
},
{
anchors = (
{
name = bottom;
position = "{300, 0}";
},
{
name = center;
position = "{300, 365}";
},
{
name = top;
position = "{300, 730}";
}
);
layerId = "CCC0BD40-BA8C-414E-B576-CF0B94E6C996";
paths = (
{
closed = 1;
nodes = (
"515 0 LINE",
"515 82 LINE",
"176 82 LINE",
"505 640 LINE",
"505 730 LINE",
"90 730 LINE",
"90 648 LINE",
"414 648 LINE",
"85 90 LINE",
"85 0 LINE"
);
}
);
width = 600;
},
{
anchors = (
{
name = bottom;
position = "{300, 0}";
},
{
name = center;
position = "{300, 365}";
},
{
name = top;
position = "{300, 730}";
}
);
layerId = "EDF5EB54-295C-4C90-9A2F-67CD82979CFF";
paths = (
{
closed = 1;
nodes = (
"510 0 LINE",
"510 46 LINE",
"141 46 LINE",
"497 673 LINE",
"497 730 LINE",
"94 730 LINE",
"94 684 LINE",
"449 684 LINE",
"90 50 LINE",
"90 0 LINE"
);
}
);
width = 600;
}
);
unicode = 005A;
},
{
glyphname = W.cv07;
layers = (
{
anchors = (
{
name = bottom;
position = "{300, 0}";
},
{
name = top;
position = "{300, 730}";
}
);
layerId = "9ADF6715-3D0F-493D-8567-18A6FBCFC567";
paths = (
{
closed = 1;
nodes = (
"229 0 LINE",
"302 485 LINE",
"367 0 LINE",
"527 0 LINE",
"590 730 LINE",
"470 730 LINE",
"444 242 LINE SMOOTH",
"443 215 OFFCURVE",
"439 134 OFFCURVE",
"437 90 CURVE",
"434 134 OFFCURVE",
"427 213 OFFCURVE",
"422 242 CURVE SMOOTH",
"363 605 LINE",
"239 605 LINE",
"178 242 LINE SMOOTH",
"173 215 OFFCURVE",
"168 144 OFFCURVE",
"164 100 CURVE",
"163 144 OFFCURVE",
"160 215 OFFCURVE",
"158 242 CURVE SMOOTH",
"129 730 LINE",
"10 730 LINE",
"68 0 LINE"
);
}
);
width = 600;
},
{
anchors = (
{
name = bottom;
position = "{300, 0}";
},
{
name = top;
position = "{300, 730}";
}
);
layerId = "CCC0BD40-BA8C-414E-B576-CF0B94E6C996";
paths = (
{
closed = 1;
nodes = (
"213 0 LINE",
"302 500 LINE",
"385 0 LINE",
"500 0 LINE",
"575 730 LINE",
"496 730 LINE",
"446 190 LINE SMOOTH",
"442 146 OFFCURVE",
"438 103 OFFCURVE",
"437 75 CURVE",
"435 103 OFFCURVE",
"431 144 OFFCURVE",
"423 190 CURVE SMOOTH",
"354 590 LINE",
"252 590 LINE",
"176 190 LINE SMOOTH",
"167 145 OFFCURVE",
"165 103 OFFCURVE",
"163 75 CURVE",
"162 103 OFFCURVE",
"160 146 OFFCURVE",
"156 190 CURVE SMOOTH",
"108 730 LINE",
"25 730 LINE",
"98 0 LINE"
);
}
);
width = 600;
},
{
anchors = (
{
name = bottom;
position = "{300, 0}";
},
{
name = top;
position = "{300, 730}";
}
);
layerId = "EDF5EB54-295C-4C90-9A2F-67CD82979CFF";
paths = (
{
closed = 1;
nodes = (
"190 0 LINE",
"303 530 LINE",
"407 0 LINE",
"479 0 LINE",
"560 730 LINE",
"509 730 LINE",
"457 190 LINE SMOOTH",
"454 154 OFFCURVE",
"444 83 OFFCURVE",
"441 38 CURVE",
"437 82 OFFCURVE",
"424 152 OFFCURVE",
"416 190 CURVE SMOOTH",
"334 575 LINE",
"272 575 LINE",
"187 190 LINE SMOOTH",
"179 155 OFFCURVE",
"169 82 OFFCURVE",
"164 38 CURVE",
"161 83 OFFCURVE",
"152 154 OFFCURVE",
"148 190 CURVE SMOOTH",
"90 730 LINE",
"40 730 LINE",
"122 0 LINE"
);
}
);
width = 600;
}
);
},
{
glyphname = K.cv08;
layers = (
{
anchors = (
{
name = bottom;
position = "{300, 0}";
},
{
name = top;
position = "{300, 730}";
}
);
layerId = "9ADF6715-3D0F-493D-8567-18A6FBCFC567";
paths = (
{
closed = 1;
nodes = (
"575 0 LINE",
"385 384 LINE",
"565 730 LINE",
"402 730 LINE",
"226 380 LINE",
"407 0 LINE"
);
},
{
closed = 1;
nodes = (
"216 0 LINE",
"216 730 LINE",
"66 730 LINE",
"66 0 LINE"
);
}
);
width = 600;
},
{
anchors = (
{
name = bottom;
position = "{300, 0}";
},
{
name = top;
position = "{300, 730}";
}
);
layerId = "CCC0BD40-BA8C-414E-B576-CF0B94E6C996";
paths = (
{
closed = 1;
nodes = (
"560 0 LINE",
"310 380 LINE",
"550 730 LINE",
"447 730 LINE",
"198 380 LINE",
"447 0 LINE"
);
},
{
closed = 1;
nodes = (
"183 0 LINE",
"183 730 LINE",
"93 730 LINE",
"93 0 LINE"
);
}
);
width = 600;
},
{
anchors = (
{
name = bottom;
position = "{300, 0}";
},
{
name = top;
position = "{300, 730}";
}
);
layerId = "EDF5EB54-295C-4C90-9A2F-67CD82979CFF";
paths = (
{
closed = 1;
nodes = (
"540 0 LINE",
"235 382 LINE",
"524 730 LINE",
"463 730 LINE",
"172 381 LINE",
"476 0 LINE"
);
},
{
closed = 1;
nodes = (
"160 0 LINE",
"160 730 LINE",
"110 730 LINE",
"110 0 LINE"
);
}
);
width = 600;
}
);
},
{
glyphname = Q.cv16;
layers = (
{
anchors = (
{
name = bottom;
position = "{300, 0}";
},
{
name = top;
position = "{300, 730}";
}
);
components = (
{
name = O;
}
);
layerId = "9ADF6715-3D0F-493D-8567-18A6FBCFC567";
paths = (
{
closed = 1;
nodes = (
"530 -180 LINE",
"530 -65 LINE",
"400 -65 LINE SMOOTH",
"372 -65 OFFCURVE",
"355 -50 OFFCURVE",
"355 -22 CURVE SMOOTH",
"355 71 LINE",
"225 71 LINE",
"225 -34 LINE SMOOTH",
"225 -127 OFFCURVE",
"283 -180 OFFCURVE",
"385 -180 CURVE SMOOTH"
);
}
);
width = 600;
},
{
anchors = (
{
name = bottom;
position = "{300, 0}";
},
{
name = top;
position = "{300, 730}";
}
);
components = (
{
name = O;
}
);
layerId = "CCC0BD40-BA8C-414E-B576-CF0B94E6C996";
paths = (
{
closed = 1;
nodes = (
"505 -180 LINE",
"505 -98 LINE",
"395 -98 LINE SMOOTH",
"359 -98 OFFCURVE",
"335 -73 OFFCURVE",
"335 -35 CURVE SMOOTH",
"335 48 LINE",
"245 48 LINE",
"245 -35 LINE SMOOTH",
"245 -123 OFFCURVE",
"304 -180 OFFCURVE",
"395 -180 CURVE SMOOTH"
);
}
);
width = 600;
},
{
anchors = (
{
name = bottom;
position = "{300, 0}";
},
{
name = top;
position = "{300, 730}";
}
);
components = (
{
name = O;
}
);
layerId = "EDF5EB54-295C-4C90-9A2F-67CD82979CFF";
paths = (
{
closed = 1;
nodes = (
"490 -180 LINE",
"490 -135 LINE",
"400 -135 LINE SMOOTH",
"348 -135 OFFCURVE",
"320 -107 OFFCURVE",
"320 -55 CURVE SMOOTH",
"320 25 LINE",
"270 25 LINE",
"270 -55 LINE SMOOTH",
"270 -136 OFFCURVE",
"316 -180 OFFCURVE",
"400 -180 CURVE SMOOTH"
);
}
);
width = 600;
}
);
},
{
export = 0;
glyphname = A.half;
layers = (
{
layerId = "EDF5EB54-295C-4C90-9A2F-67CD82979CFF";
paths = (
{
closed = 1;
nodes = (
"328 0 LINE",
"374 0 LINE",
"221 335 LINE",
"179 335 LINE",
"26 0 LINE",
"75 0 LINE",
"166 206 LINE SMOOTH",
"186 252 OFFCURVE",
"195 276 OFFCURVE",
"200 297 CURVE",
"205 276 OFFCURVE",
"215 251 OFFCURVE",
"235 206 CURVE SMOOTH"
);
},
{
closed = 1;
nodes = (
"95 75 LINE",
"303 75 LINE",
"303 114 LINE",
"95 114 LINE"
);
}
);
width = 400;
},
{
layerId = "9ADF6715-3D0F-493D-8567-18A6FBCFC567";
paths = (
{
closed = 1;
nodes = (
"306 0 LINE",
"395 0 LINE",
"247 335 LINE",
"153 335 LINE",
"5 0 LINE",
"95 0 LINE",
"181 206 LINE SMOOTH",
"191 231 OFFCURVE",
"196 252 OFFCURVE",
"199 270 CURVE",
"202 252 OFFCURVE",
"206 232 OFFCURVE",
"217 206 CURVE SMOOTH"
);
},
{
closed = 1;
nodes = (
"105 60 LINE",
"293 60 LINE",
"293 134 LINE",
"105 134 LINE"
);
}
);
width = 400;
},
{
layerId = "CCC0BD40-BA8C-414E-B576-CF0B94E6C996";
paths = (
{
closed = 1;
nodes = (
"316 0 LINE",
"385 0 LINE",
"237 335 LINE",
"163 335 LINE",
"15 0 LINE",
"85 0 LINE",
"171 206 LINE SMOOTH",
"181 231 OFFCURVE",
"196 262 OFFCURVE",
"199 280 CURVE",
"202 262 OFFCURVE",
"216 231 OFFCURVE",
"227 206 CURVE SMOOTH"
);
},
{
closed = 1;
nodes = (
"105 65 LINE",
"293 65 LINE",
"293 124 LINE",
"105 124 LINE"
);
}
);
width = 400;
}
);
},
{
export = 0;
glyphname = B.half;
layers = (
{
layerId = "9ADF6715-3D0F-493D-8567-18A6FBCFC567";
paths = (
{
closed = 1;
nodes = (
"254 0 LINE SMOOTH",
"323 0 OFFCURVE",
"380 38 OFFCURVE",
"380 93 CURVE SMOOTH",
"380 146 OFFCURVE",
"333 181 OFFCURVE",
"261 179 CURVE",
"261 168 LINE",
"323 166 OFFCURVE",
"363 200 OFFCURVE",
"363 251 CURVE SMOOTH",
"363 301 OFFCURVE",
"307 335 OFFCURVE",
"239 335 CURVE SMOOTH",
"35 335 LINE",
"35 0 LINE"
);
},
{
closed = 1;
nodes = (
"121 137 LINE",
"241 137 LINE SMOOTH",
"272 137 OFFCURVE",
"293 125 OFFCURVE",
"293 100 CURVE SMOOTH",
"293 75 OFFCURVE",
"272 66 OFFCURVE",
"241 66 CURVE SMOOTH",
"121 66 LINE"
);
},
{
closed = 1;
nodes = (
"121 269 LINE",
"231 269 LINE SMOOTH",
"258 269 OFFCURVE",
"276 260 OFFCURVE",
"276 235 CURVE SMOOTH",
"276 210 OFFCURVE",
"257 199 OFFCURVE",
"230 199 CURVE SMOOTH",
"121 199 LINE"
);
}
);
width = 400;
},
{
layerId = "CCC0BD40-BA8C-414E-B576-CF0B94E6C996";
paths = (
{
closed = 1;
nodes = (
"254 0 LINE SMOOTH",
"323 0 OFFCURVE",
"370 38 OFFCURVE",
"370 93 CURVE SMOOTH",
"370 146 OFFCURVE",
"323 181 OFFCURVE",
"251 179 CURVE",
"251 168 LINE",
"313 166 OFFCURVE",
"353 200 OFFCURVE",
"353 251 CURVE SMOOTH",
"353 301 OFFCURVE",
"307 335 OFFCURVE",
"239 335 CURVE SMOOTH",
"45 335 LINE",
"45 0 LINE"
);
},
{
closed = 1;
nodes = (
"111 144 LINE",
"251 144 LINE SMOOTH",
"282 144 OFFCURVE",
"303 127 OFFCURVE",
"303 102 CURVE SMOOTH",
"303 77 OFFCURVE",
"282 58 OFFCURVE",
"251 58 CURVE SMOOTH",
"111 58 LINE"
);
},
{
closed = 1;
nodes = (
"111 277 LINE",
"241 277 LINE SMOOTH",
"268 277 OFFCURVE",
"286 258 OFFCURVE",
"286 233 CURVE SMOOTH",
"286 208 OFFCURVE",
"267 191 OFFCURVE",
"240 191 CURVE SMOOTH",
"111 191 LINE"
);
}
);
width = 400;
},
{
layerId = "EDF5EB54-295C-4C90-9A2F-67CD82979CFF";
paths = (
{
closed = 1;
nodes = (
"255 0 LINE SMOOTH",
"315 0 OFFCURVE",
"356 38 OFFCURVE",
"356 93 CURVE SMOOTH",
"356 146 OFFCURVE",
"314 181 OFFCURVE",
"254 179 CURVE",
"254 168 LINE",
"304 166 OFFCURVE",
"339 199 OFFCURVE",
"339 249 CURVE SMOOTH",
"339 300 OFFCURVE",
"299 335 OFFCURVE",
"240 335 CURVE SMOOTH",
"58 335 LINE",
"58 0 LINE"
);
},
{
closed = 1;
nodes = (
"104 148 LINE",
"252 148 LINE SMOOTH",
"287 148 OFFCURVE",
"311 126 OFFCURVE",
"311 94 CURVE SMOOTH",
"311 61 OFFCURVE",
"287 39 OFFCURVE",
"252 39 CURVE SMOOTH",
"104 39 LINE"
);
},
{
closed = 1;
nodes = (
"104 296 LINE",
"242 296 LINE SMOOTH",
"273 296 OFFCURVE",
"294 274 OFFCURVE",
"294 242 CURVE SMOOTH",
"294 209 OFFCURVE",
"272 187 OFFCURVE",
"241 187 CURVE SMOOTH",
"104 187 LINE"
);
}
);
width = 400;
}
);
},
{
export = 0;
glyphname = C.half;
layers = (
{
layerId = "9ADF6715-3D0F-493D-8567-18A6FBCFC567";
paths = (
{
closed = 1;
nodes = (
"299 -5 OFFCURVE",
"359 45 OFFCURVE",
"378 118 CURVE",
"290 118 LINE",
"279 91 OFFCURVE",
"246 73 OFFCURVE",
"207 73 CURVE SMOOTH",
"149 73 OFFCURVE",
"110 111 OFFCURVE",
"110 167 CURVE SMOOTH",
"110 223 OFFCURVE",
"149 262 OFFCURVE",
"207 262 CURVE SMOOTH",
"246 262 OFFCURVE",
"279 244 OFFCURVE",
"290 217 CURVE",
"378 217 LINE",
"359 290 OFFCURVE",
"299 340 OFFCURVE",
"207 340 CURVE SMOOTH",
"97 340 OFFCURVE",
"22 270 OFFCURVE",
"22 167 CURVE SMOOTH",
"22 65 OFFCURVE",
"97 -5 OFFCURVE",
"207 -5 CURVE SMOOTH"
);
}
);
width = 400;
},
{
layerId = "EDF5EB54-295C-4C90-9A2F-67CD82979CFF";
paths = (
{
closed = 1;
nodes = (
"287 -5 OFFCURVE",
"349 36 OFFCURVE",
"363 102 CURVE",
"317 102 LINE",
"305 62 OFFCURVE",
"267 33 OFFCURVE",
"212 33 CURVE SMOOTH",
"143 33 OFFCURVE",
"92 88 OFFCURVE",
"92 167 CURVE SMOOTH",
"92 247 OFFCURVE",
"143 302 OFFCURVE",
"212 302 CURVE SMOOTH",
"267 302 OFFCURVE",
"305 273 OFFCURVE",
"317 233 CURVE",
"363 233 LINE",
"349 299 OFFCURVE",
"287 340 OFFCURVE",
"212 340 CURVE SMOOTH",
"114 340 OFFCURVE",
"45 270 OFFCURVE",
"45 167 CURVE SMOOTH",
"45 65 OFFCURVE",
"114 -5 OFFCURVE",
"212 -5 CURVE SMOOTH"
);
}
);
width = 400;
},
{
layerId = "CCC0BD40-BA8C-414E-B576-CF0B94E6C996";
paths = (
{
closed = 1;
nodes = (
"283 -5 OFFCURVE",
"349 41 OFFCURVE",
"370 107 CURVE",
"302 107 LINE",
"287 75 OFFCURVE",
"248 53 OFFCURVE",
"207 53 CURVE SMOOTH",
"146 53 OFFCURVE",
"100 101 OFFCURVE",
"100 167 CURVE SMOOTH",
"100 233 OFFCURVE",
"146 282 OFFCURVE",
"207 282 CURVE SMOOTH",
"248 282 OFFCURVE",
"287 260 OFFCURVE",
"302 228 CURVE",
"370 228 LINE",
"349 294 OFFCURVE",
"283 340 OFFCURVE",
"207 340 CURVE SMOOTH",
"107 340 OFFCURVE",
"32 266 OFFCURVE",
"32 167 CURVE SMOOTH",
"32 69 OFFCURVE",
"107 -5 OFFCURVE",
"207 -5 CURVE SMOOTH"
);
}
);
width = 400;
}
);
},
{
export = 0;
glyphname = D.half;
layers = (
{
layerId = "9ADF6715-3D0F-493D-8567-18A6FBCFC567";
paths = (
{
closed = 1;
nodes = (
"195 0 LINE SMOOTH",
"305 0 OFFCURVE",
"380 68 OFFCURVE",
"380 167 CURVE SMOOTH",
"380 267 OFFCURVE",
"305 335 OFFCURVE",
"195 335 CURVE SMOOTH",
"35 335 LINE",
"35 0 LINE"
);
},
{
closed = 1;
nodes = (
"121 257 LINE",
"195 257 LINE SMOOTH",
"253 257 OFFCURVE",
"292 220 OFFCURVE",
"292 167 CURVE SMOOTH",
"292 114 OFFCURVE",
"253 77 OFFCURVE",
"195 77 CURVE SMOOTH",
"121 77 LINE"
);
}
);
width = 400;
},
{
layerId = "CCC0BD40-BA8C-414E-B576-CF0B94E6C996";
paths = (
{
closed = 1;
nodes = (
"195 0 LINE SMOOTH",
"295 0 OFFCURVE",
"370 69 OFFCURVE",
"370 167 CURVE SMOOTH",
"370 266 OFFCURVE",
"295 335 OFFCURVE",
"195 335 CURVE SMOOTH",
"45 335 LINE",
"45 0 LINE"
);
},
{
closed = 1;
nodes = (
"111 277 LINE",
"195 277 LINE SMOOTH",
"255 277 OFFCURVE",
"302 232 OFFCURVE",
"302 167 CURVE SMOOTH",
"302 102 OFFCURVE",
"255 57 OFFCURVE",
"195 57 CURVE SMOOTH",
"111 57 LINE"
);
}
);
width = 400;
},
{
layerId = "EDF5EB54-295C-4C90-9A2F-67CD82979CFF";
paths = (
{
closed = 1;
nodes = (
"189 0 LINE SMOOTH",
"287 0 OFFCURVE",
"355 68 OFFCURVE",
"355 167 CURVE SMOOTH",
"355 267 OFFCURVE",
"287 335 OFFCURVE",
"189 335 CURVE SMOOTH",
"64 335 LINE",
"64 0 LINE"
);
},
{
closed = 1;
nodes = (
"110 297 LINE",
"189 297 LINE SMOOTH",
"258 297 OFFCURVE",
"308 244 OFFCURVE",
"308 167 CURVE SMOOTH",
"308 90 OFFCURVE",
"258 38 OFFCURVE",
"189 38 CURVE SMOOTH",
"110 38 LINE"
);
}
);
width = 400;
}
);
},
{
export = 0;
glyphname = E.half;
layers = (
{
layerId = "9ADF6715-3D0F-493D-8567-18A6FBCFC567";
paths = (
{
closed = 1;
nodes = (
"134 70 LINE",
"134 138 LINE",
"326 138 LINE",
"326 197 LINE",
"134 197 LINE",
"134 265 LINE",
"356 265 LINE",
"356 335 LINE",
"48 335 LINE",
"48 0 LINE",
"356 0 LINE",
"356 70 LINE"
);
}
);
width = 400;
},
{
layerId = "CCC0BD40-BA8C-414E-B576-CF0B94E6C996";
paths = (
{
closed = 1;
nodes = (
"118 58 LINE",
"118 144 LINE",
"320 144 LINE",
"320 191 LINE",
"118 191 LINE",
"118 277 LINE",
"350 277 LINE",
"350 335 LINE",
"52 335 LINE",
"52 0 LINE",
"350 0 LINE",
"350 58 LINE"
);
}
);
width = 400;
},
{
layerId = "EDF5EB54-295C-4C90-9A2F-67CD82979CFF";
paths = (
{
closed = 1;
nodes = (
"115 38 LINE",
"115 149 LINE",
"312 149 LINE",
"312 186 LINE",
"115 186 LINE",
"115 297 LINE",
"342 297 LINE",
"342 335 LINE",
"70 335 LINE",
"70 0 LINE",
"342 0 LINE",
"342 38 LINE"
);
}
);
width = 400;
}
);
},
{
export = 0;
glyphname = F.half;
layers = (
{
layerId = "9ADF6715-3D0F-493D-8567-18A6FBCFC567";
paths = (
{
closed = 1;
nodes = (
"134 0 LINE",
"134 112 LINE",
"326 112 LINE",
"326 192 LINE",
"134 192 LINE",
"134 255 LINE",
"356 255 LINE",
"356 335 LINE",
"48 335 LINE",
"48 0 LINE"
);
}
);
width = 400;
},
{
layerId = "CCC0BD40-BA8C-414E-B576-CF0B94E6C996";
paths = (
{
closed = 1;
nodes = (
"128 0 LINE",
"128 133 LINE",
"330 133 LINE",
"330 191 LINE",
"128 191 LINE",
"128 277 LINE",
"360 277 LINE",
"360 335 LINE",
"62 335 LINE",
"62 0 LINE"
);
}
);
width = 400;
},
{
layerId = "EDF5EB54-295C-4C90-9A2F-67CD82979CFF";
paths = (
{
closed = 1;
nodes = (
"125 0 LINE",
"125 143 LINE",
"322 143 LINE",
"322 181 LINE",
"125 181 LINE",
"125 297 LINE",
"352 297 LINE",
"352 335 LINE",
"80 335 LINE",
"80 0 LINE"
);
}
);
width = 400;
}
);
},
{
export = 0;
glyphname = G.half;
layers = (
{
layerId = "9ADF6715-3D0F-493D-8567-18A6FBCFC567";
paths = (
{
closed = 1;
nodes = (
"22 69 OFFCURVE",
"101 -5 OFFCURVE",
"207 -5 CURVE SMOOTH",
"308 -5 OFFCURVE",
"384 69 OFFCURVE",
"384 167 CURVE SMOOTH",
"384 181 LINE",
"207 181 LINE",
"207 114 LINE",
"289 114 LINE",
"274 87 OFFCURVE",
"241 73 OFFCURVE",
"207 73 CURVE SMOOTH",
"152 73 OFFCURVE",
"110 113 OFFCURVE",
"110 167 CURVE SMOOTH",
"110 221 OFFCURVE",
"152 262 OFFCURVE",
"207 262 CURVE SMOOTH",
"242 262 OFFCURVE",
"276 251 OFFCURVE",
"291 234 CURVE",
"379 234 LINE",
"358 295 OFFCURVE",
"284 340 OFFCURVE",
"207 340 CURVE SMOOTH",
"101 340 OFFCURVE",
"22 266 OFFCURVE",
"22 167 CURVE SMOOTH"
);
}
);
width = 400;
},
{
layerId = "CCC0BD40-BA8C-414E-B576-CF0B94E6C996";
paths = (
{
closed = 1;
nodes = (
"32 69 OFFCURVE",
"107 -5 OFFCURVE",
"207 -5 CURVE SMOOTH",
"302 -5 OFFCURVE",
"374 65 OFFCURVE",
"374 167 CURVE SMOOTH",
"374 181 LINE",
"207 181 LINE",
"207 124 LINE",
"306 124 LINE",
"289 72 OFFCURVE",
"250 53 OFFCURVE",
"207 53 CURVE SMOOTH",
"146 53 OFFCURVE",
"100 101 OFFCURVE",
"100 167 CURVE SMOOTH",
"100 233 OFFCURVE",
"146 282 OFFCURVE",
"207 282 CURVE SMOOTH",
"248 282 OFFCURVE",
"286 260 OFFCURVE",
"301 234 CURVE",
"369 234 LINE",
"348 294 OFFCURVE",
"283 340 OFFCURVE",
"207 340 CURVE SMOOTH",
"107 340 OFFCURVE",
"32 266 OFFCURVE",
"32 167 CURVE SMOOTH"
);
}
);
width = 400;
},
{
layerId = "EDF5EB54-295C-4C90-9A2F-67CD82979CFF";
paths = (
{
closed = 1;
nodes = (
"39 65 OFFCURVE",
"108 -5 OFFCURVE",
"206 -5 CURVE SMOOTH",
"300 -5 OFFCURVE",
"368 63 OFFCURVE",
"368 167 CURVE SMOOTH",
"368 181 LINE",
"206 181 LINE",
"206 143 LINE",
"320 143 LINE",
"314 76 OFFCURVE",
"268 33 OFFCURVE",
"206 33 CURVE SMOOTH",
"136 33 OFFCURVE",
"86 88 OFFCURVE",
"86 167 CURVE SMOOTH",
"86 247 OFFCURVE",
"136 302 OFFCURVE",
"206 302 CURVE SMOOTH",
"261 302 OFFCURVE",
"299 273 OFFCURVE",
"311 241 CURVE",
"357 241 LINE",
"343 299 OFFCURVE",
"281 340 OFFCURVE",
"206 340 CURVE SMOOTH",
"108 340 OFFCURVE",
"39 270 OFFCURVE",
"39 167 CURVE SMOOTH"
);
}
);
width = 400;
}
);
},
{
export = 0;
glyphname = H.half;
layers = (
{
layerId = "9ADF6715-3D0F-493D-8567-18A6FBCFC567";
paths = (
{
closed = 1;
nodes = (
"121 0 LINE",
"121 133 LINE",
"279 133 LINE",
"279 0 LINE",
"365 0 LINE",
"365 335 LINE",
"279 335 LINE",
"279 213 LINE",
"121 213 LINE",
"121 335 LINE",
"35 335 LINE",
"35 0 LINE"
);
}
);
width = 400;
},
{
layerId = "CCC0BD40-BA8C-414E-B576-CF0B94E6C996";
paths = (
{
closed = 1;
nodes = (
"111 0 LINE",
"111 143 LINE",
"289 143 LINE",
"289 0 LINE",
"355 0 LINE",
"355 335 LINE",
"289 335 LINE",
"289 203 LINE",
"111 203 LINE",
"111 335 LINE",
"45 335 LINE",
"45 0 LINE"
);
}
);
width = 400;
},
{
layerId = "EDF5EB54-295C-4C90-9A2F-67CD82979CFF";
paths = (
{
closed = 1;
nodes = (
"101 0 LINE",
"101 154 LINE",
"299 154 LINE",
"299 0 LINE",
"345 0 LINE",
"345 335 LINE",
"299 335 LINE",
"299 192 LINE",
"101 192 LINE",
"101 335 LINE",
"55 335 LINE",
"55 0 LINE"
);
}
);
width = 400;
}
);
},
{
export = 0;
glyphname = I.half;
layers = (
{
layerId = "9ADF6715-3D0F-493D-8567-18A6FBCFC567";
paths = (
{
closed = 1;
nodes = (
"358 0 LINE",
"358 78 LINE",
"243 78 LINE",
"243 257 LINE",
"358 257 LINE",
"358 335 LINE",
"42 335 LINE",
"42 257 LINE",
"157 257 LINE",
"157 78 LINE",
"42 78 LINE",
"42 0 LINE"
);
}
);
width = 400;
},
{
layerId = "CCC0BD40-BA8C-414E-B576-CF0B94E6C996";
paths = (
{
closed = 1;
nodes = (
"358 0 LINE",
"358 60 LINE",
"233 60 LINE",
"233 275 LINE",
"358 275 LINE",
"358 335 LINE",
"42 335 LINE",
"42 275 LINE",
"167 275 LINE",
"167 60 LINE",
"42 60 LINE",
"42 0 LINE"
);
}
);
width = 400;
},
{
layerId = "EDF5EB54-295C-4C90-9A2F-67CD82979CFF";
paths = (
{
closed = 1;
nodes = (
"348 0 LINE",
"348 38 LINE",
"223 38 LINE",
"223 297 LINE",
"348 297 LINE",
"348 335 LINE",
"52 335 LINE",
"52 297 LINE",
"177 297 LINE",
"177 38 LINE",
"52 38 LINE",
"52 0 LINE"
);
}
);
width = 400;
}
);
},
{
export = 0;
glyphname = K.half;
layers = (
{
layerId = "9ADF6715-3D0F-493D-8567-18A6FBCFC567";
paths = (
{
closed = 1;
nodes = (
"121 0 LINE",
"121 133 LINE",
"185 133 LINE",
"282 0 LINE",
"380 0 LINE",
"254 176 LINE",
"370 335 LINE",
"276 335 LINE",
"185 211 LINE",
"121 211 LINE",
"121 335 LINE",
"35 335 LINE",
"35 0 LINE"
);
}
);
width = 400;
},
{
layerId = "CCC0BD40-BA8C-414E-B576-CF0B94E6C996";
paths = (
{
closed = 1;
nodes = (
"111 0 LINE",
"111 143 LINE",
"190 143 LINE",
"292 0 LINE",
"370 0 LINE",
"247 174 LINE",
"360 335 LINE",
"286 335 LINE",
"190 201 LINE",
"111 201 LINE",
"111 335 LINE",
"45 335 LINE",
"45 0 LINE"
);
}
);
width = 400;
},
{
layerId = "EDF5EB54-295C-4C90-9A2F-67CD82979CFF";
paths = (
{
closed = 1;
nodes = (
"101 0 LINE",
"101 153 LINE",
"189 153 LINE",
"303 0 LINE",
"360 0 LINE",
"231 174 LINE",
"350 335 LINE",
"298 335 LINE",
"190 191 LINE",
"101 191 LINE",
"101 335 LINE",
"55 335 LINE",
"55 0 LINE"
);
}
);
width = 400;
}
);
},
{
export = 0;
glyphname = L.half;
layers = (
{
anchors = (
{
name = topright;
position = "{580, 730}";
}
);
layerId = "9ADF6715-3D0F-493D-8567-18A6FBCFC567";
paths = (
{
closed = 1;
nodes = (
"370 0 LINE",
"370 80 LINE",
"158 80 LINE",
"158 335 LINE",
"72 335 LINE",
"72 0 LINE"
);
}
);
width = 400;
},
{
anchors = (
{
name = topright;
position = "{580, 730}";
}
);
layerId = "CCC0BD40-BA8C-414E-B576-CF0B94E6C996";
paths = (
{
closed = 1;
nodes = (
"370 0 LINE",
"370 60 LINE",
"148 60 LINE",
"148 335 LINE",
"82 335 LINE",
"82 0 LINE"
);
}
);
width = 400;
},
{
anchors = (
{
name = topright;
position = "{580, 730}";
}
);
layerId = "EDF5EB54-295C-4C90-9A2F-67CD82979CFF";
paths = (
{
closed = 1;
nodes = (
"360 0 LINE",
"360 40 LINE",
"138 40 LINE",
"138 335 LINE",
"92 335 LINE",
"92 0 LINE"
);
}
);
width = 400;
}
);
},
{
export = 0;
glyphname = M.half;
layers = (
{
layerId = "CCC0BD40-BA8C-414E-B576-CF0B94E6C996";
paths = (
{
closed = 1;
nodes = (
"95 0 LINE",
"95 95 LINE SMOOTH",
"95 198 OFFCURVE",
"89 244 OFFCURVE",
"79 295 CURVE",
"167 96 LINE",
"234 96 LINE",
"320 298 LINE",
"306 247 OFFCURVE",
"306 185 OFFCURVE",
"306 95 CURVE SMOOTH",
"306 0 LINE",
"370 0 LINE",
"370 335 LINE",
"280 335 LINE",
"227 213 LINE SMOOTH",
"213 181 OFFCURVE",
"206 169 OFFCURVE",
"201 146 CURVE",
"196 169 OFFCURVE",
"189 182 OFFCURVE",
"176 212 CURVE SMOOTH",
"121 335 LINE",
"30 335 LINE",
"30 0 LINE"
);
}
);
width = 400;
},
{
layerId = "EDF5EB54-295C-4C90-9A2F-67CD82979CFF";
paths = (
{
closed = 1;
nodes = (
"85 0 LINE",
"85 95 LINE SMOOTH",
"85 198 OFFCURVE",
"85 252 OFFCURVE",
"74 303 CURVE",
"180 96 LINE",
"219 96 LINE",
"326 306 LINE",
"316 255 OFFCURVE",
"316 185 OFFCURVE",
"316 95 CURVE SMOOTH",
"316 0 LINE",
"360 0 LINE",
"360 335 LINE",
"300 335 LINE",
"222 183 LINE SMOOTH",
"206 153 OFFCURVE",
"204 144 OFFCURVE",
"200 131 CURVE",
"196 144 OFFCURVE",
"193 153 OFFCURVE",
"178 182 CURVE SMOOTH",
"101 335 LINE",
"40 335 LINE",
"40 0 LINE"
);
}
);
width = 400;
},
{
layerId = "9ADF6715-3D0F-493D-8567-18A6FBCFC567";
paths = (
{
closed = 1;
nodes = (
"100 0 LINE",
"100 95 LINE SMOOTH",
"100 198 OFFCURVE",
"100 235 OFFCURVE",
"90 286 CURVE",
"158 96 LINE",
"244 96 LINE",
"309 289 LINE",
"300 238 OFFCURVE",
"300 185 OFFCURVE",
"300 95 CURVE SMOOTH",
"300 0 LINE",
"380 0 LINE",
"380 335 LINE",
"257 335 LINE",
"216 213 LINE SMOOTH",
"205 180 OFFCURVE",
"204 169 OFFCURVE",
"202 153 CURVE",
"200 169 OFFCURVE",
"198 180 OFFCURVE",
"187 212 CURVE SMOOTH",
"144 335 LINE",
"20 335 LINE",
"20 0 LINE"
);
}
);
width = 400;
}
);
},
{
export = 0;
glyphname = N.half;
layers = (
{
layerId = "9ADF6715-3D0F-493D-8567-18A6FBCFC567";
paths = (
{
closed = 1;
nodes = (
"120 0 LINE",
"120 115 LINE SMOOTH",
"120 188 OFFCURVE",
"115 204 OFFCURVE",
"105 255 CURVE",
"255 0 LINE",
"365 0 LINE",
"365 335 LINE",
"280 335 LINE",
"280 230 LINE SMOOTH",
"280 157 OFFCURVE",
"285 130 OFFCURVE",
"295 80 CURVE",
"146 335 LINE",
"35 335 LINE",
"35 0 LINE"
);
}
);
width = 400;
},
{
layerId = "CCC0BD40-BA8C-414E-B576-CF0B94E6C996";
paths = (
{
closed = 1;
nodes = (
"110 0 LINE",
"110 105 LINE SMOOTH",
"110 195 OFFCURVE",
"108 209 OFFCURVE",
"97 265 CURVE",
"275 0 LINE",
"355 0 LINE",
"355 335 LINE",
"290 335 LINE",
"290 230 LINE SMOOTH",
"290 141 OFFCURVE",
"292 129 OFFCURVE",
"303 70 CURVE",
"125 335 LINE",
"45 335 LINE",
"45 0 LINE"
);
}
);
width = 400;
},
{
layerId = "EDF5EB54-295C-4C90-9A2F-67CD82979CFF";
paths = (
{
closed = 1;
nodes = (
"100 0 LINE",
"100 115 LINE SMOOTH",
"100 218 OFFCURVE",
"100 244 OFFCURVE",
"89 295 CURVE",
"290 0 LINE",
"345 0 LINE",
"345 335 LINE",
"300 335 LINE",
"300 230 LINE SMOOTH",
"300 127 OFFCURVE",
"300 90 OFFCURVE",
"311 40 CURVE",
"110 335 LINE",
"55 335 LINE",
"55 0 LINE"
);
}
);
width = 400;
}
);
},
{
export = 0;
glyphname = O.half;
layers = (
{
layerId = "EDF5EB54-295C-4C90-9A2F-67CD82979CFF";
paths = (
{
closed = 1;
nodes = (
"295 -5 OFFCURVE",
"367 69 OFFCURVE",
"367 167 CURVE SMOOTH",
"367 266 OFFCURVE",
"295 340 OFFCURVE",
"200 340 CURVE SMOOTH",
"105 340 OFFCURVE",
"33 266 OFFCURVE",
"33 167 CURVE SMOOTH",
"33 69 OFFCURVE",
"105 -5 OFFCURVE",
"200 -5 CURVE SMOOTH"
);
},
{
closed = 1;
nodes = (
"131 33 OFFCURVE",
"80 90 OFFCURVE",
"80 167 CURVE SMOOTH",
"80 244 OFFCURVE",
"131 302 OFFCURVE",
"200 302 CURVE SMOOTH",
"269 302 OFFCURVE",
"320 244 OFFCURVE",
"320 167 CURVE SMOOTH",
"320 90 OFFCURVE",
"269 33 OFFCURVE",
"200 33 CURVE SMOOTH"
);
}
);
width = 400;
},
{
layerId = "CCC0BD40-BA8C-414E-B576-CF0B94E6C996";
paths = (
{
closed = 1;
nodes = (
"300 -5 OFFCURVE",
"375 69 OFFCURVE",
"375 167 CURVE SMOOTH",
"375 266 OFFCURVE",
"300 340 OFFCURVE",
"200 340 CURVE SMOOTH",
"100 340 OFFCURVE",
"25 266 OFFCURVE",
"25 167 CURVE SMOOTH",
"25 69 OFFCURVE",
"100 -5 OFFCURVE",
"200 -5 CURVE SMOOTH"
);
},
{
closed = 1;
nodes = (
"140 53 OFFCURVE",
"93 102 OFFCURVE",
"93 167 CURVE SMOOTH",
"93 232 OFFCURVE",
"140 282 OFFCURVE",
"200 282 CURVE SMOOTH",
"260 282 OFFCURVE",
"307 232 OFFCURVE",
"307 167 CURVE SMOOTH",
"307 102 OFFCURVE",
"260 53 OFFCURVE",
"200 53 CURVE SMOOTH"
);
}
);
width = 400;
},
{
layerId = "9ADF6715-3D0F-493D-8567-18A6FBCFC567";
paths = (
{
closed = 1;
nodes = (
"305 -5 OFFCURVE",
"383 69 OFFCURVE",
"383 167 CURVE SMOOTH",
"383 266 OFFCURVE",
"305 340 OFFCURVE",
"200 340 CURVE SMOOTH",
"95 340 OFFCURVE",
"16 266 OFFCURVE",
"16 167 CURVE SMOOTH",
"16 69 OFFCURVE",
"95 -5 OFFCURVE",
"200 -5 CURVE SMOOTH"
);
},
{
closed = 1;
nodes = (
"145 73 OFFCURVE",
"104 113 OFFCURVE",
"104 167 CURVE SMOOTH",
"104 221 OFFCURVE",
"145 262 OFFCURVE",
"200 262 CURVE SMOOTH",
"254 262 OFFCURVE",
"295 221 OFFCURVE",
"295 167 CURVE SMOOTH",
"295 113 OFFCURVE",
"254 73 OFFCURVE",
"200 73 CURVE SMOOTH"
);
}
);
width = 400;
}
);
},
{
export = 0;
glyphname = P.half;
layers = (
{
layerId = "9ADF6715-3D0F-493D-8567-18A6FBCFC567";
paths = (
{
closed = 1;
nodes = (
"131 0 LINE",
"131 107 LINE",
"236 107 LINE SMOOTH",
"321 107 OFFCURVE",
"380 153 OFFCURVE",
"380 220 CURVE SMOOTH",
"380 288 OFFCURVE",
"321 335 OFFCURVE",
"236 335 CURVE SMOOTH",
"45 335 LINE",
"45 0 LINE"
);
},
{
closed = 1;
nodes = (
"131 267 LINE",
"238 267 LINE SMOOTH",
"271 267 OFFCURVE",
"293 248 OFFCURVE",
"293 220 CURVE SMOOTH",
"293 193 OFFCURVE",
"270 175 OFFCURVE",
"237 175 CURVE SMOOTH",
"131 175 LINE"
);
}
);
width = 400;
},
{
layerId = "CCC0BD40-BA8C-414E-B576-CF0B94E6C996";
paths = (
{
closed = 1;
nodes = (
"121 0 LINE",
"121 117 LINE",
"246 117 LINE SMOOTH",
"320 117 OFFCURVE",
"370 163 OFFCURVE",
"370 225 CURVE SMOOTH",
"370 288 OFFCURVE",
"320 335 OFFCURVE",
"246 335 CURVE SMOOTH",
"55 335 LINE",
"55 0 LINE"
);
},
{
closed = 1;
nodes = (
"121 277 LINE",
"248 277 LINE SMOOTH",
"281 277 OFFCURVE",
"303 254 OFFCURVE",
"303 225 CURVE SMOOTH",
"303 197 OFFCURVE",
"280 175 OFFCURVE",
"247 175 CURVE SMOOTH",
"121 175 LINE"
);
}
);
width = 400;
},
{
layerId = "EDF5EB54-295C-4C90-9A2F-67CD82979CFF";
paths = (
{
closed = 1;
nodes = (
"111 0 LINE",
"111 127 LINE",
"246 127 LINE SMOOTH",
"314 127 OFFCURVE",
"360 169 OFFCURVE",
"360 230 CURVE SMOOTH",
"360 292 OFFCURVE",
"314 335 OFFCURVE",
"246 335 CURVE SMOOTH",
"65 335 LINE",
"65 0 LINE"
);
},
{
closed = 1;
nodes = (
"111 297 LINE",
"248 297 LINE SMOOTH",
"287 297 OFFCURVE",
"313 270 OFFCURVE",
"313 230 CURVE SMOOTH",
"313 191 OFFCURVE",
"286 165 OFFCURVE",
"247 165 CURVE SMOOTH",
"111 165 LINE"
);
}
);
width = 400;
}
);
},
{
export = 0;
glyphname = Q.half;
layers = (
{
layerId = "9ADF6715-3D0F-493D-8567-18A6FBCFC567";
paths = (
{
closed = 1;
nodes = (
"229 -5 OFFCURVE",
"267 5 OFFCURVE",
"290 18 CURVE",
"256 89 LINE",
"241 80 OFFCURVE",
"217 73 OFFCURVE",
"200 73 CURVE SMOOTH",
"145 73 OFFCURVE",
"104 113 OFFCURVE",
"104 167 CURVE SMOOTH",
"104 221 OFFCURVE",
"145 261 OFFCURVE",
"200 261 CURVE SMOOTH",
"255 261 OFFCURVE",
"296 221 OFFCURVE",
"296 167 CURVE SMOOTH",
"296 156 OFFCURVE",
"293 143 OFFCURVE",
"289 134 CURVE",
"348 63 LINE",
"369 91 OFFCURVE",
"384 136 OFFCURVE",
"384 167 CURVE SMOOTH",
"384 266 OFFCURVE",
"305 340 OFFCURVE",
"200 340 CURVE SMOOTH",
"95 340 OFFCURVE",
"16 266 OFFCURVE",
"16 167 CURVE SMOOTH",
"16 69 OFFCURVE",
"95 -5 OFFCURVE",
"200 -5 CURVE SMOOTH"
);
},
{
closed = 1;
nodes = (
"392 -58 LINE",
"250 125 LINE",
"155 125 LINE",
"297 -58 LINE"
);
}
);
width = 400;
},
{
layerId = "CCC0BD40-BA8C-414E-B576-CF0B94E6C996";
paths = (
{
closed = 1;
nodes = (
"233 -5 OFFCURVE",
"264 3 OFFCURVE",
"290 18 CURVE",
"256 69 LINE",
"240 59 OFFCURVE",
"221 53 OFFCURVE",
"200 53 CURVE SMOOTH",
"140 53 OFFCURVE",
"93 102 OFFCURVE",
"93 167 CURVE SMOOTH",
"93 232 OFFCURVE",
"140 281 OFFCURVE",
"200 281 CURVE SMOOTH",
"260 281 OFFCURVE",
"307 232 OFFCURVE",
"307 167 CURVE SMOOTH",
"307 149 OFFCURVE",
"303 132 OFFCURVE",
"297 117 CURVE",
"342 63 LINE",
"363 92 OFFCURVE",
"375 128 OFFCURVE",
"375 167 CURVE SMOOTH",
"375 266 OFFCURVE",
"300 340 OFFCURVE",
"200 340 CURVE SMOOTH",
"100 340 OFFCURVE",
"25 266 OFFCURVE",
"25 167 CURVE SMOOTH",
"25 69 OFFCURVE",
"100 -5 OFFCURVE",
"200 -5 CURVE SMOOTH"
);
},
{
closed = 1;
nodes = (
"382 -58 LINE",
"240 125 LINE",
"165 125 LINE",
"307 -58 LINE"
);
}
);
width = 400;
},
{
layerId = "EDF5EB54-295C-4C90-9A2F-67CD82979CFF";
paths = (
{
closed = 1;
nodes = (
"232 -5 OFFCURVE",
"261 2 OFFCURVE",
"285 16 CURVE",
"258 48 LINE",
"241 38 OFFCURVE",
"221 33 OFFCURVE",
"200 33 CURVE SMOOTH",
"131 33 OFFCURVE",
"80 88 OFFCURVE",
"80 167 CURVE SMOOTH",
"80 246 OFFCURVE",
"131 302 OFFCURVE",
"200 302 CURVE SMOOTH",
"269 302 OFFCURVE",
"320 246 OFFCURVE",
"320 167 CURVE SMOOTH",
"320 137 OFFCURVE",
"312 109 OFFCURVE",
"304 97 CURVE",
"336 62 LINE",
"355 89 OFFCURVE",
"367 128 OFFCURVE",
"367 167 CURVE SMOOTH",
"367 270 OFFCURVE",
"298 340 OFFCURVE",
"200 340 CURVE SMOOTH",
"102 340 OFFCURVE",
"33 270 OFFCURVE",
"33 167 CURVE SMOOTH",
"33 65 OFFCURVE",
"102 -5 OFFCURVE",
"200 -5 CURVE SMOOTH"
);
},
{
closed = 1;
nodes = (
"381 -58 LINE",
"232 125 LINE",
"180 125 LINE",
"332 -58 LINE"
);
}
);
width = 400;
}
);
},
{
export = 0;
glyphname = R.half;
layers = (
{
layerId = "9ADF6715-3D0F-493D-8567-18A6FBCFC567";
paths = (
{
closed = 1;
nodes = (
"131 0 LINE",
"131 107 LINE",
"236 107 LINE SMOOTH",
"321 107 OFFCURVE",
"380 153 OFFCURVE",
"380 220 CURVE SMOOTH",
"380 288 OFFCURVE",
"321 335 OFFCURVE",
"236 335 CURVE SMOOTH",
"45 335 LINE",
"45 0 LINE"
);
},
{
closed = 1;
nodes = (
"385 0 LINE",
"274 141 LINE",
"176 141 LINE",
"285 0 LINE"
);
},
{
closed = 1;
nodes = (
"131 267 LINE",
"238 267 LINE SMOOTH",
"271 267 OFFCURVE",
"293 248 OFFCURVE",
"293 220 CURVE SMOOTH",
"293 193 OFFCURVE",
"270 175 OFFCURVE",
"237 175 CURVE SMOOTH",
"131 175 LINE"
);
}
);
width = 400;
},
{
layerId = "CCC0BD40-BA8C-414E-B576-CF0B94E6C996";
paths = (
{
closed = 1;
nodes = (
"111 0 LINE",
"111 129 LINE",
"243 129 LINE SMOOTH",
"317 129 OFFCURVE",
"367 165 OFFCURVE",
"367 227 CURVE SMOOTH",
"367 290 OFFCURVE",
"317 335 OFFCURVE",
"243 335 CURVE SMOOTH",
"45 335 LINE",
"45 0 LINE"
);
},
{
closed = 1;
nodes = (
"375 0 LINE",
"264 141 LINE",
"186 141 LINE",
"295 0 LINE"
);
},
{
closed = 1;
nodes = (
"111 277 LINE",
"245 277 LINE SMOOTH",
"278 277 OFFCURVE",
"300 256 OFFCURVE",
"300 227 CURVE SMOOTH",
"300 199 OFFCURVE",
"277 179 OFFCURVE",
"244 179 CURVE SMOOTH",
"111 179 LINE"
);
}
);
width = 400;
},
{
layerId = "EDF5EB54-295C-4C90-9A2F-67CD82979CFF";
paths = (
{
closed = 1;
nodes = (
"101 0 LINE",
"101 127 LINE",
"236 127 LINE SMOOTH",
"304 127 OFFCURVE",
"350 169 OFFCURVE",
"350 230 CURVE SMOOTH",
"350 292 OFFCURVE",
"304 335 OFFCURVE",
"236 335 CURVE SMOOTH",
"55 335 LINE",
"55 0 LINE"
);
},
{
closed = 1;
nodes = (
"362 0 LINE",
"251 141 LINE",
"195 141 LINE",
"305 0 LINE"
);
},
{
closed = 1;
nodes = (
"101 297 LINE",
"238 297 LINE SMOOTH",
"277 297 OFFCURVE",
"303 270 OFFCURVE",
"303 230 CURVE SMOOTH",
"303 191 OFFCURVE",
"276 165 OFFCURVE",
"237 165 CURVE SMOOTH",
"101 165 LINE"
);
}
);
width = 400;
}
);
},
{
export = 0;
glyphname = S.half;
layers = (
{
layerId = "9ADF6715-3D0F-493D-8567-18A6FBCFC567";
paths = (
{
closed = 1;
nodes = (
"234 -3 LINE SMOOTH",
"317 -3 OFFCURVE",
"369 37 OFFCURVE",
"369 102 CURVE SMOOTH",
"369 159 OFFCURVE",
"323 200 OFFCURVE",
"249 208 CURVE SMOOTH",
"158 218 LINE SMOOTH",
"136 220 OFFCURVE",
"122 229 OFFCURVE",
"122 241 CURVE SMOOTH",
"122 256 OFFCURVE",
"137 268 OFFCURVE",
"160 268 CURVE SMOOTH",
"230 268 LINE SMOOTH",
"257 268 OFFCURVE",
"276 257 OFFCURVE",
"278 244 CURVE",
"364 244 LINE",
"355 302 OFFCURVE",
"303 338 OFFCURVE",
"230 338 CURVE SMOOTH",
"160 338 LINE SMOOTH",
"84 338 OFFCURVE",
"36 301 OFFCURVE",
"36 241 CURVE SMOOTH",
"36 187 OFFCURVE",
"81 147 OFFCURVE",
"152 139 CURVE SMOOTH",
"240 129 LINE SMOOTH",
"266 126 OFFCURVE",
"283 114 OFFCURVE",
"283 98 CURVE SMOOTH",
"283 81 OFFCURVE",
"264 67 OFFCURVE",
"234 67 CURVE SMOOTH",
"166 67 LINE SMOOTH",
"135 67 OFFCURVE",
"115 83 OFFCURVE",
"113 103 CURVE",
"27 103 LINE",
"34 37 OFFCURVE",
"88 -3 OFFCURVE",
"166 -3 CURVE SMOOTH"
);
}
);
width = 400;
},
{
layerId = "CCC0BD40-BA8C-414E-B576-CF0B94E6C996";
paths = (
{
closed = 1;
nodes = (
"213 -4 LINE SMOOTH",
"303 -4 OFFCURVE",
"359 37 OFFCURVE",
"359 102 CURVE SMOOTH",
"359 153 OFFCURVE",
"317 190 OFFCURVE",
"249 198 CURVE SMOOTH",
"161 208 LINE SMOOTH",
"131 211 OFFCURVE",
"112 225 OFFCURVE",
"112 245 CURVE SMOOTH",
"112 267 OFFCURVE",
"139 281 OFFCURVE",
"183 281 CURVE SMOOTH",
"208 281 LINE SMOOTH",
"252 281 OFFCURVE",
"283 267 OFFCURVE",
"288 244 CURVE",
"354 244 LINE",
"345 302 OFFCURVE",
"289 339 OFFCURVE",
"208 339 CURVE SMOOTH",
"183 339 LINE SMOOTH",
"99 339 OFFCURVE",
"46 301 OFFCURVE",
"46 241 CURVE SMOOTH",
"46 191 OFFCURVE",
"87 156 OFFCURVE",
"152 149 CURVE SMOOTH",
"240 139 LINE SMOOTH",
"273 135 OFFCURVE",
"293 119 OFFCURVE",
"293 98 CURVE SMOOTH",
"293 71 OFFCURVE",
"262 54 OFFCURVE",
"213 54 CURVE SMOOTH",
"188 54 LINE SMOOTH",
"140 54 OFFCURVE",
"107 73 OFFCURVE",
"103 103 CURVE",
"37 103 LINE",
"44 37 OFFCURVE",
"102 -4 OFFCURVE",
"188 -4 CURVE SMOOTH"
);
}
);
width = 400;
},
{
layerId = "EDF5EB54-295C-4C90-9A2F-67CD82979CFF";
paths = (
{
closed = 1;
nodes = (
"203 -4 LINE SMOOTH",
"293 -4 OFFCURVE",
"349 36 OFFCURVE",
"349 99 CURVE SMOOTH",
"349 147 OFFCURVE",
"310 181 OFFCURVE",
"249 188 CURVE SMOOTH",
"161 198 LINE SMOOTH",
"125 202 OFFCURVE",
"102 220 OFFCURVE",
"102 245 CURVE SMOOTH",
"102 279 OFFCURVE",
"137 301 OFFCURVE",
"193 301 CURVE SMOOTH",
"203 301 LINE SMOOTH",
"255 301 OFFCURVE",
"293 278 OFFCURVE",
"298 244 CURVE",
"344 244 LINE",
"337 302 OFFCURVE",
"283 339 OFFCURVE",
"203 339 CURVE SMOOTH",
"193 339 LINE SMOOTH",
"109 339 OFFCURVE",
"56 302 OFFCURVE",
"56 243 CURVE SMOOTH",
"56 198 OFFCURVE",
"93 166 OFFCURVE",
"152 159 CURVE SMOOTH",
"240 149 LINE SMOOTH",
"279 145 OFFCURVE",
"303 125 OFFCURVE",
"303 96 CURVE SMOOTH",
"303 58 OFFCURVE",
"264 34 OFFCURVE",
"203 34 CURVE SMOOTH",
"194 34 LINE SMOOTH",
"137 34 OFFCURVE",
"98 61 OFFCURVE",
"93 103 CURVE",
"47 103 LINE",
"52 37 OFFCURVE",
"109 -4 OFFCURVE",
"194 -4 CURVE SMOOTH"
);
}
);
width = 400;
}
);
},
{
export = 0;
glyphname = T.half;
layers = (
{
layerId = "9ADF6715-3D0F-493D-8567-18A6FBCFC567";
paths = (
{
closed = 1;
nodes = (
"243 0 LINE",
"243 255 LINE",
"385 255 LINE",
"385 335 LINE",
"15 335 LINE",
"15 255 LINE",
"157 255 LINE",
"157 0 LINE"
);
}
);
width = 400;
},
{
layerId = "CCC0BD40-BA8C-414E-B576-CF0B94E6C996";
paths = (
{
closed = 1;
nodes = (
"233 0 LINE",
"233 275 LINE",
"385 275 LINE",
"385 335 LINE",
"15 335 LINE",
"15 275 LINE",
"167 275 LINE",
"167 0 LINE"
);
}
);
width = 400;
},
{
layerId = "EDF5EB54-295C-4C90-9A2F-67CD82979CFF";
paths = (
{
closed = 1;
nodes = (
"223 0 LINE",
"223 297 LINE",
"375 297 LINE",
"375 335 LINE",
"25 335 LINE",
"25 297 LINE",
"177 297 LINE",
"177 0 LINE"
);
}
);
width = 400;
}
);
},
{
export = 0;
glyphname = U.half;
layers = (
{
layerId = "9ADF6715-3D0F-493D-8567-18A6FBCFC567";
paths = (
{
closed = 1;
nodes = (
"298 -10 OFFCURVE",
"365 53 OFFCURVE",
"365 144 CURVE SMOOTH",
"365 335 LINE",
"279 335 LINE",
"279 144 LINE SMOOTH",
"279 100 OFFCURVE",
"247 70 OFFCURVE",
"200 70 CURVE SMOOTH",
"153 70 OFFCURVE",
"121 100 OFFCURVE",
"121 144 CURVE SMOOTH",
"121 335 LINE",
"35 335 LINE",
"35 144 LINE SMOOTH",
"35 53 OFFCURVE",
"102 -10 OFFCURVE",
"200 -10 CURVE SMOOTH"
);
}
);
width = 400;
},
{
layerId = "CCC0BD40-BA8C-414E-B576-CF0B94E6C996";
paths = (
{
closed = 1;
nodes = (
"292 -10 OFFCURVE",
"355 49 OFFCURVE",
"355 144 CURVE SMOOTH",
"355 335 LINE",
"289 335 LINE",
"289 144 LINE SMOOTH",
"289 85 OFFCURVE",
"253 50 OFFCURVE",
"200 50 CURVE SMOOTH",
"147 50 OFFCURVE",
"111 85 OFFCURVE",
"111 144 CURVE SMOOTH",
"111 335 LINE",
"45 335 LINE",
"45 144 LINE SMOOTH",
"45 49 OFFCURVE",
"108 -10 OFFCURVE",
"200 -10 CURVE SMOOTH"
);
}
);
width = 400;
},
{
layerId = "EDF5EB54-295C-4C90-9A2F-67CD82979CFF";
paths = (
{
closed = 1;
nodes = (
"286 -10 OFFCURVE",
"345 49 OFFCURVE",
"345 134 CURVE SMOOTH",
"345 335 LINE",
"299 335 LINE",
"299 134 LINE SMOOTH",
"299 72 OFFCURVE",
"259 30 OFFCURVE",
"200 30 CURVE SMOOTH",
"141 30 OFFCURVE",
"101 72 OFFCURVE",
"101 134 CURVE SMOOTH",
"101 335 LINE",
"55 335 LINE",
"55 134 LINE SMOOTH",
"55 49 OFFCURVE",
"114 -10 OFFCURVE",
"200 -10 CURVE SMOOTH"
);
}
);
width = 400;
}
);
},
{
export = 0;
glyphname = V.half;
layers = (
{
layerId = "9ADF6715-3D0F-493D-8567-18A6FBCFC567";
paths = (
{
closed = 1;
nodes = (
"94 335 LINE",
"5 335 LINE",
"153 0 LINE",
"247 0 LINE",
"395 335 LINE",
"305 335 LINE",
"219 129 LINE SMOOTH",
"209 104 OFFCURVE",
"204 83 OFFCURVE",
"201 65 CURVE",
"198 83 OFFCURVE",
"194 103 OFFCURVE",
"183 129 CURVE SMOOTH"
);
}
);
width = 400;
},
{
layerId = "CCC0BD40-BA8C-414E-B576-CF0B94E6C996";
paths = (
{
closed = 1;
nodes = (
"84 335 LINE",
"15 335 LINE",
"163 0 LINE",
"237 0 LINE",
"385 335 LINE",
"313 335 LINE",
"226 129 LINE SMOOTH",
"216 104 OFFCURVE",
"204 73 OFFCURVE",
"201 55 CURVE",
"198 73 OFFCURVE",
"184 104 OFFCURVE",
"173 129 CURVE SMOOTH"
);
}
);
width = 400;
},
{
layerId = "EDF5EB54-295C-4C90-9A2F-67CD82979CFF";
paths = (
{
closed = 1;
nodes = (
"72 335 LINE",
"26 335 LINE",
"179 0 LINE",
"221 0 LINE",
"374 335 LINE",
"325 335 LINE",
"234 129 LINE SMOOTH",
"214 83 OFFCURVE",
"205 59 OFFCURVE",
"200 38 CURVE",
"195 59 OFFCURVE",
"185 84 OFFCURVE",
"165 129 CURVE SMOOTH"
);
}
);
width = 400;
}
);
},
{
export = 0;
glyphname = X.half;
layers = (
{
layerId = "9ADF6715-3D0F-493D-8567-18A6FBCFC567";
paths = (
{
closed = 1;
nodes = (
"120 0 LINE",
"186 86 LINE SMOOTH",
"192 94 OFFCURVE",
"195 109 OFFCURVE",
"196 122 CURVE",
"197 111 OFFCURVE",
"205 95 OFFCURVE",
"213 85 CURVE SMOOTH",
"278 0 LINE",
"380 0 LINE",
"246 167 LINE",
"380 335 LINE",
"280 335 LINE",
"216 249 LINE SMOOTH",
"209 239 OFFCURVE",
"206 225 OFFCURVE",
"205 214 CURVE",
"203 225 OFFCURVE",
"195 240 OFFCURVE",
"188 249 CURVE SMOOTH",
"122 335 LINE",
"21 335 LINE",
"155 169 LINE",
"20 0 LINE"
);
}
);
width = 400;
},
{
layerId = "CCC0BD40-BA8C-414E-B576-CF0B94E6C996";
paths = (
{
closed = 1;
nodes = (
"107 0 LINE",
"173 86 LINE SMOOTH",
"190 108 OFFCURVE",
"190 123 OFFCURVE",
"197 141 CURVE",
"205 123 OFFCURVE",
"209 107 OFFCURVE",
"226 85 CURVE SMOOTH",
"291 0 LINE",
"370 0 LINE",
"245 167 LINE",
"370 335 LINE",
"293 335 LINE",
"229 249 LINE SMOOTH",
"213 227 OFFCURVE",
"209 214 OFFCURVE",
"203 195 CURVE",
"193 213 OFFCURVE",
"192 227 OFFCURVE",
"175 249 CURVE SMOOTH",
"109 335 LINE",
"31 335 LINE",
"156 169 LINE",
"30 0 LINE"
);
}
);
width = 400;
},
{
layerId = "EDF5EB54-295C-4C90-9A2F-67CD82979CFF";
paths = (
{
closed = 1;
nodes = (
"97 0 LINE",
"161 88 LINE SMOOTH",
"177 110 OFFCURVE",
"188 126 OFFCURVE",
"198 143 CURVE",
"209 126 OFFCURVE",
"219 111 OFFCURVE",
"238 85 CURVE SMOOTH",
"302 0 LINE",
"360 0 LINE",
"233 168 LINE",
"360 335 LINE",
"303 335 LINE",
"238 247 LINE SMOOTH",
"222 225 OFFCURVE",
"208 207 OFFCURVE",
"202 195 CURVE",
"197 205 OFFCURVE",
"180 227 OFFCURVE",
"163 249 CURVE SMOOTH",
"98 335 LINE",
"41 335 LINE",
"168 169 LINE",
"40 0 LINE"
);
}
);
width = 400;
}
);
},
{
glyphname = a;
layers = (
{
anchors = (
{
name = bottom;
position = "{305, 0}";
},
{
name = ogonek;
position = "{460, 0}";
},
{
name = top;
position = "{305, 550}";
}
);
layerId = "EDF5EB54-295C-4C90-9A2F-67CD82979CFF";
paths = (
{
closed = 1;
nodes = (
"374 -10 OFFCURVE",
"449 52 OFFCURVE",
"449 142 CURVE",
"431 112 LINE",
"440 112 LINE",
"440 0 LINE",
"490 0 LINE",
"490 375 LINE SMOOTH",
"490 494 OFFCURVE",
"424 560 OFFCURVE",
"305 560 CURVE SMOOTH",
"191 560 OFFCURVE",
"116 500 OFFCURVE",
"111 410 CURVE",
"161 410 LINE",
"165 473 OFFCURVE",
"220 515 OFFCURVE",
"304 515 CURVE SMOOTH",
"391 515 OFFCURVE",
"440 465 OFFCURVE",
"440 375 CURVE SMOOTH",
"440 320 LINE",
"253 320 LINE SMOOTH",
"152 320 OFFCURVE",
"84 253 OFFCURVE",
"84 159 CURVE SMOOTH",
"84 60 OFFCURVE",
"153 -10 OFFCURVE",
"266 -10 CURVE SMOOTH"
);
},
{
closed = 1;
nodes = (
"190 35 OFFCURVE",
"134 87 OFFCURVE",
"134 163 CURVE SMOOTH",
"134 228 OFFCURVE",
"182 276 OFFCURVE",
"252 276 CURVE SMOOTH",
"440 276 LINE",
"440 177 LINE SMOOTH",
"440 89 OFFCURVE",
"378 35 OFFCURVE",
"280 35 CURVE SMOOTH"
);
}
);
width = 600;
},
{
anchors = (
{
name = bottom;
position = "{305, 0}";
},
{
name = ogonek;
position = "{465, 0}";
},
{
name = top;
position = "{305, 550}";
}
);
layerId = "CCC0BD40-BA8C-414E-B576-CF0B94E6C996";
paths = (
{
closed = 1;
nodes = (
"355 -10 OFFCURVE",
"418 40 OFFCURVE",
"418 120 CURVE",
"404 100 LINE",
"419 100 LINE",
"419 0 LINE",
"508 0 LINE",
"508 378 LINE SMOOTH",
"508 493 OFFCURVE",
"434 560 OFFCURVE",
"301 560 CURVE SMOOTH",
"178 560 OFFCURVE",
"100 496 OFFCURVE",
"93 410 CURVE",
"183 410 LINE",
"186 455 OFFCURVE",
"231 482 OFFCURVE",
"301 482 CURVE SMOOTH",
"380 482 OFFCURVE",
"418 447 OFFCURVE",
"418 375 CURVE SMOOTH",
"418 332 LINE",
"248 332 LINE SMOOTH",
"141 332 OFFCURVE",
"67 263 OFFCURVE",
"67 162 CURVE SMOOTH",
"67 59 OFFCURVE",
"138 -10 OFFCURVE",
"252 -10 CURVE SMOOTH"
);
},
{
closed = 1;
nodes = (
"202 66 OFFCURVE",
"159 104 OFFCURVE",
"159 165 CURVE SMOOTH",
"159 223 OFFCURVE",
"199 262 OFFCURVE",
"258 262 CURVE SMOOTH",
"418 262 LINE",
"418 185 LINE SMOOTH",
"418 112 OFFCURVE",
"362 66 OFFCURVE",
"274 66 CURVE SMOOTH"
);
}
);
width = 600;
},
{
anchors = (
{
name = bottom;
position = "{305, 0}";
},
{
name = ogonek;
position = "{440, 0}";
},
{
name = top;
position = "{305, 550}";
}
);
layerId = "9ADF6715-3D0F-493D-8567-18A6FBCFC567";
paths = (
{
closed = 1;
nodes = (
"329 -10 OFFCURVE",
"392 42 OFFCURVE",
"392 125 CURVE",
"365 109 LINE",
"389 109 LINE",
"389 0 LINE",
"534 0 LINE",
"534 370 LINE SMOOTH",
"534 490 OFFCURVE",
"448 560 OFFCURVE",
"303 560 CURVE SMOOTH",
"164 560 OFFCURVE",
"78 491 OFFCURVE",
"74 383 CURVE",
"216 383 LINE",
"219 422 OFFCURVE",
"250 442 OFFCURVE",
"301 442 CURVE SMOOTH",
"354 442 OFFCURVE",
"384 417 OFFCURVE",
"384 376 CURVE SMOOTH",
"384 341 LINE",
"276 341 LINE SMOOTH",
"133 341 OFFCURVE",
"51 273 OFFCURVE",
"51 162 CURVE SMOOTH",
"51 59 OFFCURVE",
"120 -10 OFFCURVE",
"229 -10 CURVE SMOOTH"
);
},
{
closed = 1;
nodes = (
"227 110 OFFCURVE",
"196 139 OFFCURVE",
"196 181 CURVE SMOOTH",
"196 222 OFFCURVE",
"226 251 OFFCURVE",
"279 251 CURVE SMOOTH",
"384 251 LINE",
"384 195 LINE SMOOTH",
"384 144 OFFCURVE",
"345 110 OFFCURVE",
"282 110 CURVE SMOOTH"
);
}
);
width = 600;
}
);
unicode = 0061;
},
{
glyphname = aogonek;
layers = (
{
components = (
{
name = a;
}
);
layerId = "EDF5EB54-295C-4C90-9A2F-67CD82979CFF";
paths = (
{
closed = 1;
nodes = (
"546 -195 LINE",
"546 -153 LINE",
"482 -153 LINE SMOOTH",
"450 -153 OFFCURVE",
"431 -134 OFFCURVE",
"431 -103 CURVE SMOOTH",
"431 -75 OFFCURVE",
"454 -36 OFFCURVE",
"492 0 CURVE",
"466 10 LINE",
"415 -27 OFFCURVE",
"384 -74 OFFCURVE",
"384 -115 CURVE SMOOTH",
"384 -165 OFFCURVE",
"418 -195 OFFCURVE",
"473 -195 CURVE"
);
}
);
width = 600;
},
{
components = (
{
name = a;
}
);
layerId = "CCC0BD40-BA8C-414E-B576-CF0B94E6C996";
paths = (
{
closed = 1;
nodes = (
"561 -203 LINE",
"561 -143 LINE",
"501 -143 LINE SMOOTH",
"467 -143 OFFCURVE",
"446 -122 OFFCURVE",
"446 -93 CURVE SMOOTH",
"446 -65 OFFCURVE",
"465 -37 OFFCURVE",
"510 0 CURVE",
"446 10 LINE",
"383 -34 OFFCURVE",
"361 -72 OFFCURVE",
"361 -110 CURVE SMOOTH",
"361 -164 OFFCURVE",
"409 -203 OFFCURVE",
"483 -203 CURVE SMOOTH"
);
}
);
width = 600;
},
{
components = (
{
name = a;
}
);
layerId = "9ADF6715-3D0F-493D-8567-18A6FBCFC567";
paths = (
{
closed = 1;
nodes = (
"590 -225 LINE",
"590 -120 LINE",
"521 -120 LINE SMOOTH",
"492 -120 OFFCURVE",
"475 -103 OFFCURVE",
"475 -83 CURVE SMOOTH",
"475 -66 OFFCURVE",
"490 -42 OFFCURVE",
"536 0 CURVE",
"462 11 LINE",
"394 -19 OFFCURVE",
"351 -68 OFFCURVE",
"351 -115 CURVE SMOOTH",
"351 -180 OFFCURVE",
"401 -225 OFFCURVE",
"482 -225 CURVE SMOOTH"
);
}
);
width = 600;
}
);
unicode = 0105;
},
{
glyphname = ae;
layers = (
{
anchors = (
{
name = top;
position = "{300, 550}";
}
);
layerId = "9ADF6715-3D0F-493D-8567-18A6FBCFC567";
paths = (
{
closed = 1;
nodes = (
"244 -10 OFFCURVE",
"294 25 OFFCURVE",
"301 81 CURVE",
"308 25 OFFCURVE",
"361 -10 OFFCURVE",
"424 -10 CURVE SMOOTH",
"511 -10 OFFCURVE",
"570 55 OFFCURVE",
"570 150 CURVE",
"451 150 LINE",
"451 111 OFFCURVE",
"434 87 OFFCURVE",
"406 87 CURVE SMOOTH",
"378 87 OFFCURVE",
"361 111 OFFCURVE",
"361 150 CURVE SMOOTH",
"361 250 LINE",
"570 250 LINE",
"570 400 LINE SMOOTH",
"570 495 OFFCURVE",
"508 560 OFFCURVE",
"421 560 CURVE SMOOTH",
"358 560 OFFCURVE",
"308 525 OFFCURVE",
"301 468 CURVE",
"294 525 OFFCURVE",
"245 560 OFFCURVE",
"181 560 CURVE SMOOTH",
"94 560 OFFCURVE",
"34 495 OFFCURVE",
"34 400 CURVE",
"153 400 LINE",
"153 439 OFFCURVE",
"170 463 OFFCURVE",
"198 463 CURVE SMOOTH",
"226 463 OFFCURVE",
"243 439 OFFCURVE",
"243 400 CURVE SMOOTH",
"243 330 LINE",
"198 330 LINE SMOOTH",
"97 330 OFFCURVE",
"28 260 OFFCURVE",
"28 159 CURVE SMOOTH",
"28 59 OFFCURVE",
"89 -10 OFFCURVE",
"178 -10 CURVE SMOOTH"
);
},
{
closed = 1;
nodes = (
"165 87 OFFCURVE",
"147 120 OFFCURVE",
"147 168 CURVE SMOOTH",
"147 217 OFFCURVE",
"165 250 OFFCURVE",
"198 250 CURVE SMOOTH",
"243 250 LINE",
"243 150 LINE SMOOTH",
"243 111 OFFCURVE",
"225 87 OFFCURVE",
"197 87 CURVE SMOOTH"
);
},
{
closed = 1;
nodes = (
"361 400 LINE SMOOTH",
"361 439 OFFCURVE",
"379 463 OFFCURVE",
"406 463 CURVE SMOOTH",
"434 463 OFFCURVE",
"451 439 OFFCURVE",
"451 400 CURVE SMOOTH",
"451 330 LINE",
"361 330 LINE"
);
}
);
width = 600;
},
{
anchors = (
{
name = top;
position = "{300, 550}";
}
);
layerId = "CCC0BD40-BA8C-414E-B576-CF0B94E6C996";
paths = (
{
closed = 1;
nodes = (
"242 -10 OFFCURVE",
"293 27 OFFCURVE",
"304 80 CURVE",
"315 27 OFFCURVE",
"362 -10 OFFCURVE",
"420 -10 CURVE SMOOTH",
"506 -10 OFFCURVE",
"565 50 OFFCURVE",
"565 137 CURVE",
"481 137 LINE",
"481 94 OFFCURVE",
"454 65 OFFCURVE",
"412 65 CURVE SMOOTH",
"369 65 OFFCURVE",
"343 96 OFFCURVE",
"343 150 CURVE SMOOTH",
"343 256 LINE",
"565 256 LINE",
"565 400 LINE SMOOTH",
"565 495 OFFCURVE",
"506 560 OFFCURVE",
"420 560 CURVE SMOOTH",
"358 560 OFFCURVE",
"311 524 OFFCURVE",
"304 471 CURVE",
"297 524 OFFCURVE",
"247 560 OFFCURVE",
"182 560 CURVE SMOOTH",
"102 560 OFFCURVE",
"47 501 OFFCURVE",
"47 414 CURVE",
"126 414 LINE",
"126 456 OFFCURVE",
"154 485 OFFCURVE",
"195 485 CURVE SMOOTH",
"238 485 OFFCURVE",
"263 454 OFFCURVE",
"263 399 CURVE SMOOTH",
"263 324 LINE",
"182 324 LINE SMOOTH",
"92 324 OFFCURVE",
"31 257 OFFCURVE",
"31 159 CURVE SMOOTH",
"31 59 OFFCURVE",
"91 -10 OFFCURVE",
"178 -10 CURVE SMOOTH"
);
},
{
closed = 1;
nodes = (
"144 65 OFFCURVE",
"115 102 OFFCURVE",
"115 160 CURVE SMOOTH",
"115 219 OFFCURVE",
"142 256 OFFCURVE",
"184 256 CURVE SMOOTH",
"263 256 LINE",
"263 150 LINE SMOOTH",
"263 98 OFFCURVE",
"235 65 OFFCURVE",
"191 65 CURVE SMOOTH"
);
},
{
closed = 1;
nodes = (
"343 400 LINE SMOOTH",
"343 452 OFFCURVE",
"370 485 OFFCURVE",
"412 485 CURVE SMOOTH",
"454 485 OFFCURVE",
"481 452 OFFCURVE",
"481 400 CURVE SMOOTH",
"481 324 LINE",
"343 324 LINE"
);
}
);
width = 600;
},
{
anchors = (
{
name = top;
position = "{300, 550}";
}
);
layerId = "EDF5EB54-295C-4C90-9A2F-67CD82979CFF";
paths = (
{
closed = 1;
nodes = (
"240 -10 OFFCURVE",
"293 25 OFFCURVE",
"303 75 CURVE",
"314 25 OFFCURVE",
"364 -10 OFFCURVE",
"426 -10 CURVE SMOOTH",
"506 -10 OFFCURVE",
"561 50 OFFCURVE",
"561 137 CURVE",
"513 137 LINE",
"513 76 OFFCURVE",
"476 34 OFFCURVE",
"423 34 CURVE SMOOTH",
"366 34 OFFCURVE",
"327 77 OFFCURVE",
"327 140 CURVE SMOOTH",
"327 269 LINE",
"560 269 LINE",
"560 410 LINE SMOOTH",
"560 499 OFFCURVE",
"504 560 OFFCURVE",
"422 560 CURVE SMOOTH",
"362 560 OFFCURVE",
"314 525 OFFCURVE",
"303 474 CURVE",
"295 525 OFFCURVE",
"248 560 OFFCURVE",
"187 560 CURVE SMOOTH",
"111 560 OFFCURVE",
"58 501 OFFCURVE",
"58 414 CURVE",
"106 414 LINE",
"106 475 OFFCURVE",
"142 517 OFFCURVE",
"194 517 CURVE SMOOTH",
"244 517 OFFCURVE",
"279 473 OFFCURVE",
"279 410 CURVE SMOOTH",
"279 312 LINE",
"170 312 LINE SMOOTH",
"93 312 OFFCURVE",
"40 248 OFFCURVE",
"40 155 CURVE SMOOTH",
"40 57 OFFCURVE",
"95 -10 OFFCURVE",
"174 -10 CURVE SMOOTH"
);
},
{
closed = 1;
nodes = (
"127 31 OFFCURVE",
"88 81 OFFCURVE",
"88 155 CURVE SMOOTH",
"88 223 OFFCURVE",
"121 269 OFFCURVE",
"170 269 CURVE SMOOTH",
"279 269 LINE",
"279 140 LINE SMOOTH",
"279 75 OFFCURVE",
"240 31 OFFCURVE",
"183 31 CURVE SMOOTH"
);
},
{
closed = 1;
nodes = (
"327 410 LINE SMOOTH",
"327 473 OFFCURVE",
"364 517 OFFCURVE",
"419 517 CURVE SMOOTH",
"474 517 OFFCURVE",
"512 473 OFFCURVE",
"512 410 CURVE SMOOTH",
"512 312 LINE",
"327 312 LINE"
);
}
);
width = 600;
}
);
unicode = 00E6;
},
{
glyphname = b;
layers = (
{
anchors = (
{
name = bottom;
position = "{300, 0}";
},
{
name = top;
position = "{300, 730}";
}
);
layerId = "CCC0BD40-BA8C-414E-B576-CF0B94E6C996";
paths = (
{
closed = 1;
nodes = (
"442 -10 OFFCURVE",
"513 68 OFFCURVE",
"513 194 CURVE SMOOTH",
"513 355 LINE SMOOTH",
"513 482 OFFCURVE",
"443 560 OFFCURVE",
"332 560 CURVE SMOOTH",
"242 560 OFFCURVE",
"180 507 OFFCURVE",
"180 424 CURVE",
"200 445 LINE",
"180 445 LINE",
"182 570 LINE",
"182 730 LINE",
"92 730 LINE",
"92 0 LINE",
"182 0 LINE",
"182 105 LINE",
"200 105 LINE",
"182 126 LINE",
"182 42 OFFCURVE",
"241 -10 OFFCURVE",
"332 -10 CURVE SMOOTH"
);
},
{
closed = 1;
nodes = (
"228 68 OFFCURVE",
"182 117 OFFCURVE",
"182 200 CURVE SMOOTH",
"182 350 LINE SMOOTH",
"182 433 OFFCURVE",
"228 482 OFFCURVE",
"302 482 CURVE SMOOTH",
"378 482 OFFCURVE",
"423 445 OFFCURVE",
"423 355 CURVE SMOOTH",
"423 195 LINE SMOOTH",
"423 105 OFFCURVE",
"378 68 OFFCURVE",
"302 68 CURVE SMOOTH"
);
}
);
width = 600;
},
{
anchors = (
{
name = bottom;
position = "{300, 0}";
},
{
name = top;
position = "{300, 730}";
}
);
layerId = "EDF5EB54-295C-4C90-9A2F-67CD82979CFF";
paths = (
{
closed = 1;
nodes = (
"423 -10 OFFCURVE",
"495 69 OFFCURVE",
"495 189 CURVE SMOOTH",
"495 360 LINE SMOOTH",
"495 480 OFFCURVE",
"423 560 OFFCURVE",
"313 560 CURVE SMOOTH",
"217 560 OFFCURVE",
"150 501 OFFCURVE",
"150 410 CURVE",
"178 455 LINE",
"160 455 LINE",
"160 580 LINE",
"160 730 LINE",
"110 730 LINE",
"110 0 LINE",
"160 0 LINE",
"160 95 LINE",
"175 95 LINE",
"150 140 LINE",
"150 49 OFFCURVE",
"217 -10 OFFCURVE",
"313 -10 CURVE SMOOTH"
);
},
{
closed = 1;
nodes = (
"213 33 OFFCURVE",
"160 91 OFFCURVE",
"160 189 CURVE SMOOTH",
"160 360 LINE SMOOTH",
"160 458 OFFCURVE",
"212 517 OFFCURVE",
"303 517 CURVE SMOOTH",
"392 517 OFFCURVE",
"445 458 OFFCURVE",
"445 360 CURVE SMOOTH",
"445 189 LINE SMOOTH",
"445 91 OFFCURVE",
"392 33 OFFCURVE",
"303 33 CURVE SMOOTH"
);
}
);
width = 600;
},
{
anchors = (
{
name = bottom;
position = "{300, 0}";
},
{
name = top;
position = "{300, 730}";
}
);
layerId = "9ADF6715-3D0F-493D-8567-18A6FBCFC567";
paths = (
{
closed = 1;
nodes = (
"468 -10 OFFCURVE",
"540 74 OFFCURVE",
"540 205 CURVE SMOOTH",
"540 345 LINE SMOOTH",
"540 476 OFFCURVE",
"468 560 OFFCURVE",
"362 560 CURVE SMOOTH",
"260 560 OFFCURVE",
"197 485 OFFCURVE",
"197 360 CURVE",
"246 435 LINE",
"211 435 LINE",
"216 580 LINE",
"216 730 LINE",
"66 730 LINE",
"66 0 LINE",
"211 0 LINE",
"211 115 LINE",
"246 115 LINE",
"197 190 LINE",
"197 66 OFFCURVE",
"260 -10 OFFCURVE",
"362 -10 CURVE SMOOTH"
);
},
{
closed = 1;
nodes = (
"247 120 OFFCURVE",
"216 154 OFFCURVE",
"216 215 CURVE SMOOTH",
"216 335 LINE SMOOTH",
"216 396 OFFCURVE",
"247 430 OFFCURVE",
"304 430 CURVE SMOOTH",
"359 430 OFFCURVE",
"390 398 OFFCURVE",
"390 340 CURVE SMOOTH",
"390 210 LINE SMOOTH",
"390 152 OFFCURVE",
"359 120 OFFCURVE",
"304 120 CURVE SMOOTH"
);
}
);
width = 600;
}
);
unicode = 0062;
},
{
glyphname = c;
layers = (
{
anchors = (
{
name = bottom;
position = "{309, 0}";
},
{
name = top;
position = "{309, 550}";
}
);
layerId = "9ADF6715-3D0F-493D-8567-18A6FBCFC567";
paths = (
{
closed = 1;
nodes = (
"454 -10 OFFCURVE",
"547 68 OFFCURVE",
"552 195 CURVE",
"406 195 LINE",
"402 147 OFFCURVE",
"364 120 OFFCURVE",
"309 120 CURVE SMOOTH",
"249 120 OFFCURVE",
"216 152 OFFCURVE",
"216 210 CURVE SMOOTH",
"216 340 LINE SMOOTH",
"216 398 OFFCURVE",
"249 430 OFFCURVE",
"309 430 CURVE SMOOTH",
"363 430 OFFCURVE",
"402 402 OFFCURVE",
"406 355 CURVE",
"552 355 LINE",
"547 482 OFFCURVE",
"454 560 OFFCURVE",
"309 560 CURVE SMOOTH",
"162 560 OFFCURVE",
"66 473 OFFCURVE",
"66 340 CURVE SMOOTH",
"66 210 LINE SMOOTH",
"66 77 OFFCURVE",
"162 -10 OFFCURVE",
"309 -10 CURVE SMOOTH"
);
}
);
width = 600;
},
{
anchors = (
{
name = bottom;
position = "{308, 0}";
},
{
name = top;
position = "{308, 550}";
}
);
layerId = "CCC0BD40-BA8C-414E-B576-CF0B94E6C996";
paths = (
{
closed = 1;
nodes = (
"435 -10 OFFCURVE",
"519 63 OFFCURVE",
"523 180 CURVE",
"433 180 LINE",
"429 110 OFFCURVE",
"382 70 OFFCURVE",
"308 70 CURVE SMOOTH",
"229 70 OFFCURVE",
"178 117 OFFCURVE",
"178 200 CURVE SMOOTH",
"178 351 LINE SMOOTH",
"178 433 OFFCURVE",
"229 480 OFFCURVE",
"308 480 CURVE SMOOTH",
"382 480 OFFCURVE",
"429 440 OFFCURVE",
"433 370 CURVE",
"523 370 LINE",
"519 487 OFFCURVE",
"435 560 OFFCURVE",
"308 560 CURVE SMOOTH",
"175 560 OFFCURVE",
"88 481 OFFCURVE",
"88 350 CURVE SMOOTH",
"88 200 LINE SMOOTH",
"88 69 OFFCURVE",
"175 -10 OFFCURVE",
"308 -10 CURVE SMOOTH"
);
}
);
visible = 1;
width = 600;
},
{
anchors = (
{
name = bottom;
position = "{309, 0}";
},
{
name = top;
position = "{309, 550}";
}
);
layerId = "EDF5EB54-295C-4C90-9A2F-67CD82979CFF";
paths = (
{
closed = 1;
nodes = (
"430 -10 OFFCURVE",
"507 64 OFFCURVE",
"507 180 CURVE",
"457 180 LINE",
"457 90 OFFCURVE",
"401 36 OFFCURVE",
"309 36 CURVE SMOOTH",
"218 36 OFFCURVE",
"162 94 OFFCURVE",
"162 190 CURVE SMOOTH",
"162 360 LINE SMOOTH",
"162 457 OFFCURVE",
"218 514 OFFCURVE",
"309 514 CURVE SMOOTH",
"401 514 OFFCURVE",
"457 460 OFFCURVE",
"457 370 CURVE",
"507 370 LINE",
"507 486 OFFCURVE",
"430 560 OFFCURVE",
"309 560 CURVE SMOOTH",
"189 560 OFFCURVE",
"112 481 OFFCURVE",
"112 360 CURVE SMOOTH",
"112 190 LINE SMOOTH",
"112 68 OFFCURVE",
"188 -10 OFFCURVE",
"309 -10 CURVE SMOOTH"
);
}
);
width = 600;
}
);
unicode = 0063;
},
{
glyphname = ccedilla;
layers = (
{
anchors = (
{
name = _bottom;
position = "{302, 0}";
}
);
components = (
{
name = c;
}
);
layerId = "EDF5EB54-295C-4C90-9A2F-67CD82979CFF";
paths = (
{
closed = 1;
nodes = (
"292 -195 LINE SMOOTH",
"352 -195 OFFCURVE",
"392 -161 OFFCURVE",
"392 -118 CURVE SMOOTH",
"392 -61 OFFCURVE",
"329 -37 OFFCURVE",
"282 -34 CURVE",
"305 26 LINE",
"263 26 LINE",
"228 -64 LINE",
"299 -64 OFFCURVE",
"346 -86 OFFCURVE",
"346 -118 CURVE SMOOTH",
"346 -140 OFFCURVE",
"324 -160 OFFCURVE",
"292 -160 CURVE SMOOTH",
"212 -160 LINE",
"212 -195 LINE"
);
}
);
width = 600;
},
{
anchors = (
{
name = _bottom;
position = "{304, 0}";
}
);
components = (
{
name = c;
}
);
layerId = "CCC0BD40-BA8C-414E-B576-CF0B94E6C996";
paths = (
{
closed = 1;
nodes = (
"294 -203 LINE SMOOTH",
"366 -203 OFFCURVE",
"414 -166 OFFCURVE",
"414 -120 CURVE SMOOTH",
"414 -68 OFFCURVE",
"346 -41 OFFCURVE",
"294 -35 CURVE",
"315 26 LINE",
"258 26 LINE",
"223 -69 LINE",
"290 -69 OFFCURVE",
"328 -89 OFFCURVE",
"328 -112 CURVE SMOOTH",
"328 -130 OFFCURVE",
"308 -148 OFFCURVE",
"279 -148 CURVE SMOOTH",
"209 -148 LINE",
"209 -203 LINE"
);
}
);
width = 600;
},
{
anchors = (
{
name = _bottom;
position = "{303, 0}";
}
);
components = (
{
name = c;
}
);
layerId = "9ADF6715-3D0F-493D-8567-18A6FBCFC567";
paths = (
{
closed = 1;
nodes = (
"303 -225 LINE SMOOTH",
"387 -225 OFFCURVE",
"443 -182 OFFCURVE",
"443 -133 CURVE SMOOTH",
"443 -72 OFFCURVE",
"362 -43 OFFCURVE",
"301 -39 CURVE",
"320 16 LINE",
"247 16 LINE",
"212 -69 LINE",
"285 -69 OFFCURVE",
"328 -88 OFFCURVE",
"328 -119 CURVE SMOOTH",
"328 -135 OFFCURVE",
"306 -155 OFFCURVE",
"273 -155 CURVE SMOOTH",
"193 -155 LINE",
"193 -225 LINE"
);
}
);
width = 600;
}
);
unicode = 00E7;
},
{
glyphname = d;
layers = (
{
anchors = (
{
name = bottom;
position = "{300, 0}";
},
{
name = center;
position = "{300, 275}";
},
{
name = top;
position = "{300, 730}";
},
{
name = topright;
position = "{580, 550}";
}
);
layerId = "EDF5EB54-295C-4C90-9A2F-67CD82979CFF";
paths = (
{
closed = 1;
nodes = (
"383 -10 OFFCURVE",
"450 49 OFFCURVE",
"450 140 CURVE",
"422 95 LINE",
"440 95 LINE",
"440 0 LINE",
"490 0 LINE",
"490 730 LINE",
"440 730 LINE",
"440 580 LINE",
"440 455 LINE",
"422 455 LINE",
"450 410 LINE",
"450 501 OFFCURVE",
"383 560 OFFCURVE",
"287 560 CURVE SMOOTH",
"177 560 OFFCURVE",
"105 480 OFFCURVE",
"105 360 CURVE SMOOTH",
"105 189 LINE SMOOTH",
"105 69 OFFCURVE",
"177 -10 OFFCURVE",
"287 -10 CURVE SMOOTH"
);
},
{
closed = 1;
nodes = (
"208 33 OFFCURVE",
"155 91 OFFCURVE",
"155 189 CURVE SMOOTH",
"155 360 LINE SMOOTH",
"155 458 OFFCURVE",
"208 517 OFFCURVE",
"297 517 CURVE SMOOTH",
"388 517 OFFCURVE",
"440 458 OFFCURVE",
"440 360 CURVE SMOOTH",
"440 189 LINE SMOOTH",
"440 91 OFFCURVE",
"387 33 OFFCURVE",
"297 33 CURVE SMOOTH"
);
}
);
width = 600;
},
{
anchors = (
{
name = bottom;
position = "{300, 0}";
},
{
name = center;
position = "{300, 275}";
},
{
name = top;
position = "{300, 730}";
},
{
name = topright;
position = "{580, 550}";
}
);
layerId = "9ADF6715-3D0F-493D-8567-18A6FBCFC567";
paths = (
{
closed = 1;
nodes = (
"340 -10 OFFCURVE",
"403 66 OFFCURVE",
"403 190 CURVE",
"354 115 LINE",
"389 115 LINE",
"389 0 LINE",
"534 0 LINE",
"534 730 LINE",
"384 730 LINE",
"384 580 LINE",
"389 435 LINE",
"354 435 LINE",
"403 360 LINE",
"403 485 OFFCURVE",
"340 560 OFFCURVE",
"238 560 CURVE SMOOTH",
"132 560 OFFCURVE",
"60 476 OFFCURVE",
"60 345 CURVE SMOOTH",
"60 205 LINE SMOOTH",
"60 74 OFFCURVE",
"132 -10 OFFCURVE",
"238 -10 CURVE SMOOTH"
);
},
{
closed = 1;
nodes = (
"241 120 OFFCURVE",
"210 152 OFFCURVE",
"210 210 CURVE SMOOTH",
"210 340 LINE SMOOTH",
"210 398 OFFCURVE",
"241 430 OFFCURVE",
"296 430 CURVE SMOOTH",
"353 430 OFFCURVE",
"384 396 OFFCURVE",
"384 335 CURVE SMOOTH",
"384 215 LINE SMOOTH",
"384 154 OFFCURVE",
"353 120 OFFCURVE",
"296 120 CURVE SMOOTH"
);
}
);
width = 600;
},
{
anchors = (
{
name = bottom;
position = "{300, 0}";
},
{
name = center;
position = "{300, 275}";
},
{
name = top;
position = "{300, 730}";
},
{
name = topright;
position = "{580, 550}";
}
);
layerId = "CCC0BD40-BA8C-414E-B576-CF0B94E6C996";
paths = (
{
closed = 1;
nodes = (
"359 -10 OFFCURVE",
"418 42 OFFCURVE",
"418 126 CURVE",
"400 105 LINE",
"418 105 LINE",
"418 0 LINE",
"508 0 LINE",
"508 730 LINE",
"418 730 LINE",
"418 570 LINE",
"420 445 LINE",
"400 445 LINE",
"420 424 LINE",
"420 507 OFFCURVE",
"358 560 OFFCURVE",
"268 560 CURVE SMOOTH",
"157 560 OFFCURVE",
"87 482 OFFCURVE",
"87 355 CURVE SMOOTH",
"87 194 LINE SMOOTH",
"87 68 OFFCURVE",
"158 -10 OFFCURVE",
"268 -10 CURVE SMOOTH"
);
},
{
closed = 1;
nodes = (
"222 68 OFFCURVE",
"177 105 OFFCURVE",
"177 195 CURVE SMOOTH",
"177 355 LINE SMOOTH",
"177 445 OFFCURVE",
"222 482 OFFCURVE",
"298 482 CURVE SMOOTH",
"372 482 OFFCURVE",
"418 433 OFFCURVE",
"418 350 CURVE SMOOTH",
"418 200 LINE SMOOTH",
"418 117 OFFCURVE",
"372 68 OFFCURVE",
"298 68 CURVE SMOOTH"
);
}
);
width = 600;
}
);
unicode = 0064;
},
{
glyphname = eth;
layers = (
{
layerId = "9ADF6715-3D0F-493D-8567-18A6FBCFC567";
paths = (
{
closed = 1;
nodes = (
"459 0 OFFCURVE",
"560 96 OFFCURVE",
"560 251 CURVE SMOOTH",
"560 337 OFFCURVE",
"529 430 OFFCURVE",
"446 537 CURVE SMOOTH",
"393 606 LINE",
"493 642 LINE",
"493 747 LINE",
"329 688 LINE",
"296 730 LINE",
"129 730 LINE",
"198 640 LINE",
"106 607 LINE",
"106 502 LINE",
"261 558 LINE",
"314 489 LINE SMOOTH",
"372 414 OFFCURVE",
"392 380 OFFCURVE",
"391 375 CURVE",
"385 375 LINE",
"365 410 OFFCURVE",
"312 456 OFFCURVE",
"243 456 CURVE SMOOTH",
"122 456 OFFCURVE",
"40 368 OFFCURVE",
"40 236 CURVE SMOOTH",
"40 94 OFFCURVE",
"143 0 OFFCURVE",
"300 0 CURVE SMOOTH"
);
},
{
closed = 1;
nodes = (
"233 125 OFFCURVE",
"190 168 OFFCURVE",
"190 235 CURVE SMOOTH",
"190 302 OFFCURVE",
"233 345 OFFCURVE",
"300 345 CURVE SMOOTH",
"366 345 OFFCURVE",
"410 301 OFFCURVE",
"410 235 CURVE SMOOTH",
"410 168 OFFCURVE",
"367 125 OFFCURVE",
"300 125 CURVE SMOOTH"
);
}
);
width = 600;
},
{
layerId = "CCC0BD40-BA8C-414E-B576-CF0B94E6C996";
paths = (
{
closed = 1;
nodes = (
"438 -10 OFFCURVE",
"530 83 OFFCURVE",
"530 223 CURVE SMOOTH",
"530 308 OFFCURVE",
"492 408 OFFCURVE",
"433 493 CURVE SMOOTH",
"355 606 LINE",
"461 655 LINE",
"461 735 LINE",
"313 666 LINE",
"269 730 LINE",
"165 730 LINE",
"237 631 LINE",
"117 575 LINE",
"117 495 LINE",
"280 571 LINE",
"345 480 LINE SMOOTH",
"382 430 OFFCURVE",
"403 393 OFFCURVE",
"409 380 CURVE",
"395 380 LINE",
"380 404 OFFCURVE",
"339 436 OFFCURVE",
"281 436 CURVE SMOOTH",
"154 436 OFFCURVE",
"70 348 OFFCURVE",
"70 215 CURVE SMOOTH",
"70 80 OFFCURVE",
"162 -10 OFFCURVE",
"299 -10 CURVE SMOOTH"
);
},
{
closed = 1;
nodes = (
"216 70 OFFCURVE",
"160 128 OFFCURVE",
"160 215 CURVE SMOOTH",
"160 302 OFFCURVE",
"216 360 OFFCURVE",
"299 360 CURVE SMOOTH",
"384 360 OFFCURVE",
"440 302 OFFCURVE",
"440 215 CURVE SMOOTH",
"440 128 OFFCURVE",
"384 70 OFFCURVE",
"299 70 CURVE SMOOTH"
);
}
);
width = 600;
},
{
layerId = "EDF5EB54-295C-4C90-9A2F-67CD82979CFF";
paths = (
{
closed = 1;
nodes = (
"434 -10 OFFCURVE",
"520 78 OFFCURVE",
"520 213 CURVE SMOOTH",
"520 302 OFFCURVE",
"483 402 OFFCURVE",
"401 517 CURVE SMOOTH",
"332 615 LINE",
"461 675 LINE",
"461 715 LINE",
"310 645 LINE",
"250 730 LINE",
"184 730 LINE",
"262 623 LINE",
"117 555 LINE",
"117 515 LINE",
"284 593 LINE",
"358 491 LINE SMOOTH",
"411 419 OFFCURVE",
"439 366 OFFCURVE",
"445 347 CURVE",
"442 347 LINE",
"420 385 OFFCURVE",
"363 436 OFFCURVE",
"290 436 CURVE SMOOTH",
"161 436 OFFCURVE",
"80 350 OFFCURVE",
"80 215 CURVE SMOOTH",
"80 79 OFFCURVE",
"167 -10 OFFCURVE",
"300 -10 CURVE SMOOTH"
);
},
{
closed = 1;
nodes = (
"199 40 OFFCURVE",
"135 108 OFFCURVE",
"135 215 CURVE SMOOTH",
"135 322 OFFCURVE",
"199 390 OFFCURVE",
"300 390 CURVE SMOOTH",
"395 390 OFFCURVE",
"465 318 OFFCURVE",
"465 216 CURVE SMOOTH",
"465 109 OFFCURVE",
"400 40 OFFCURVE",
"300 40 CURVE SMOOTH"
);
}
);
width = 600;
}
);
unicode = 00F0;
},
{
glyphname = dcaron;
layers = (
{
components = (
{
name = caroncomb.alt;
transform = "{1, 0, 0, 1, 665, 0}";
}
);
layerId = "9ADF6715-3D0F-493D-8567-18A6FBCFC567";
paths = (
{
closed = 1;
nodes = (
"280 -10 OFFCURVE",
"329 48 OFFCURVE",
"329 140 CURVE",
"294 105 LINE",
"329 105 LINE",
"329 0 LINE",
"464 0 LINE",
"464 730 LINE",
"324 730 LINE",
"324 580 LINE",
"329 445 LINE",
"294 445 LINE",
"329 410 LINE",
"329 502 OFFCURVE",
"280 560 OFFCURVE",
"203 560 CURVE SMOOTH",
"103 560 OFFCURVE",
"40 479 OFFCURVE",
"40 351 CURVE SMOOTH",
"40 200 LINE SMOOTH",
"40 71 OFFCURVE",
"103 -10 OFFCURVE",
"203 -10 CURVE SMOOTH"
);
},
{
closed = 1;
nodes = (
"209 110 OFFCURVE",
"180 145 OFFCURVE",
"180 205 CURVE SMOOTH",
"180 346 LINE SMOOTH",
"180 405 OFFCURVE",
"209 440 OFFCURVE",
"257 440 CURVE SMOOTH",
"299 440 OFFCURVE",
"324 405 OFFCURVE",
"324 346 CURVE SMOOTH",
"324 205 LINE SMOOTH",
"324 145 OFFCURVE",
"299 110 OFFCURVE",
"257 110 CURVE SMOOTH"
);
}
);
width = 600;
},
{
components = (
{
name = caroncomb.alt;
transform = "{1, 0, 0, 1, 665, 0}";
}
);
layerId = "CCC0BD40-BA8C-414E-B576-CF0B94E6C996";
paths = (
{
closed = 1;
nodes = (
"311 -10 OFFCURVE",
"363 43 OFFCURVE",
"363 126 CURVE",
"345 105 LINE",
"363 105 LINE",
"363 0 LINE",
"453 0 LINE",
"453 730 LINE",
"363 730 LINE",
"363 570 LINE",
"365 445 LINE",
"345 445 LINE",
"363 424 LINE",
"363 507 OFFCURVE",
"311 560 OFFCURVE",
"228 560 CURVE SMOOTH",
"127 560 OFFCURVE",
"63 483 OFFCURVE",
"63 360 CURVE SMOOTH",
"63 189 LINE SMOOTH",
"63 67 OFFCURVE",
"127 -10 OFFCURVE",
"228 -10 CURVE SMOOTH"
);
},
{
closed = 1;
nodes = (
"192 68 OFFCURVE",
"153 115 OFFCURVE",
"153 195 CURVE SMOOTH",
"153 355 LINE SMOOTH",
"153 435 OFFCURVE",
"192 482 OFFCURVE",
"258 482 CURVE SMOOTH",
"324 482 OFFCURVE",
"363 435 OFFCURVE",
"363 355 CURVE SMOOTH",
"363 195 LINE SMOOTH",
"363 115 OFFCURVE",
"324 68 OFFCURVE",
"258 68 CURVE SMOOTH"
);
}
);
width = 600;
},
{
components = (
{
name = caroncomb.alt;
transform = "{1, 0, 0, 1, 670, 0}";
}
);
layerId = "EDF5EB54-295C-4C90-9A2F-67CD82979CFF";
paths = (
{
closed = 1;
nodes = (
"356 -10 OFFCURVE",
"415 48 OFFCURVE",
"415 140 CURVE",
"377 75 LINE",
"405 75 LINE",
"405 0 LINE",
"455 0 LINE",
"455 730 LINE",
"405 730 LINE",
"405 580 LINE",
"405 475 LINE",
"387 475 LINE",
"415 410 LINE",
"415 502 OFFCURVE",
"356 560 OFFCURVE",
"262 560 CURVE SMOOTH",
"157 560 OFFCURVE",
"90 483 OFFCURVE",
"90 360 CURVE SMOOTH",
"90 189 LINE SMOOTH",
"90 67 OFFCURVE",
"157 -10 OFFCURVE",
"262 -10 CURVE SMOOTH"
);
},
{
closed = 1;
nodes = (
"191 33 OFFCURVE",
"140 93 OFFCURVE",
"140 189 CURVE SMOOTH",
"140 360 LINE SMOOTH",
"140 456 OFFCURVE",
"191 517 OFFCURVE",
"272 517 CURVE SMOOTH",
"354 517 OFFCURVE",
"405 456 OFFCURVE",
"405 360 CURVE SMOOTH",
"405 189 LINE SMOOTH",
"405 93 OFFCURVE",
"354 33 OFFCURVE",
"272 33 CURVE SMOOTH"
);
}
);
width = 600;
}
);
unicode = 010F;
},
{
glyphname = dcroat;
layers = (
{
layerId = "9ADF6715-3D0F-493D-8567-18A6FBCFC567";
paths = (
{
closed = 1;
nodes = (
"334 -10 OFFCURVE",
"389 45 OFFCURVE",
"389 140 CURVE",
"354 105 LINE",
"389 105 LINE",
"389 0 LINE",
"534 0 LINE",
"534 730 LINE",
"384 730 LINE",
"384 520 LINE",
"389 385 LINE",
"354 385 LINE",
"389 350 LINE",
"389 445 OFFCURVE",
"334 500 OFFCURVE",
"243 500 CURVE SMOOTH",
"132 500 OFFCURVE",
"60 416 OFFCURVE",
"60 285 CURVE SMOOTH",
"60 205 LINE SMOOTH",
"60 73 OFFCURVE",
"132 -10 OFFCURVE",
"243 -10 CURVE SMOOTH"
);
},
{
closed = 1;
nodes = (
"241 120 OFFCURVE",
"210 152 OFFCURVE",
"210 210 CURVE SMOOTH",
"210 280 LINE SMOOTH",
"210 337 OFFCURVE",
"241 370 OFFCURVE",
"297 370 CURVE SMOOTH",
"352 370 OFFCURVE",
"384 337 OFFCURVE",
"384 280 CURVE SMOOTH",
"384 210 LINE SMOOTH",
"384 152 OFFCURVE",
"352 120 OFFCURVE",
"297 120 CURVE SMOOTH"
);
},
{
closed = 1;
nodes = (
"600 555 LINE",
"600 645 LINE",
"240 645 LINE",
"240 555 LINE"
);
}
);
width = 600;
},
{
layerId = "CCC0BD40-BA8C-414E-B576-CF0B94E6C996";
paths = (
{
closed = 1;
nodes = (
"359 -10 OFFCURVE",
"416 42 OFFCURVE",
"416 126 CURVE",
"398 105 LINE",
"416 105 LINE",
"416 0 LINE",
"506 0 LINE",
"506 730 LINE",
"416 730 LINE",
"416 510 LINE",
"418 385 LINE",
"398 385 LINE",
"416 364 LINE",
"416 447 OFFCURVE",
"358 500 OFFCURVE",
"268 500 CURVE SMOOTH",
"157 500 OFFCURVE",
"90 422 OFFCURVE",
"90 295 CURVE SMOOTH",
"90 194 LINE SMOOTH",
"90 68 OFFCURVE",
"158 -10 OFFCURVE",
"268 -10 CURVE SMOOTH"
);
},
{
closed = 1;
nodes = (
"222 68 OFFCURVE",
"180 115 OFFCURVE",
"180 200 CURVE SMOOTH",
"180 290 LINE SMOOTH",
"180 375 OFFCURVE",
"222 422 OFFCURVE",
"298 422 CURVE SMOOTH",
"372 422 OFFCURVE",
"416 373 OFFCURVE",
"416 290 CURVE SMOOTH",
"416 200 LINE SMOOTH",
"416 117 OFFCURVE",
"372 68 OFFCURVE",
"298 68 CURVE SMOOTH"
);
},
{
closed = 1;
nodes = (
"600 570 LINE",
"600 645 LINE",
"250 645 LINE",
"250 570 LINE"
);
}
);
width = 600;
},
{
layerId = "EDF5EB54-295C-4C90-9A2F-67CD82979CFF";
paths = (
{
closed = 1;
nodes = (
"383 -10 OFFCURVE",
"450 49 OFFCURVE",
"450 140 CURVE",
"412 75 LINE",
"440 75 LINE",
"440 0 LINE",
"490 0 LINE",
"490 730 LINE",
"440 730 LINE",
"440 520 LINE",
"440 415 LINE",
"422 415 LINE",
"450 350 LINE",
"450 441 OFFCURVE",
"383 500 OFFCURVE",
"287 500 CURVE SMOOTH",
"177 500 OFFCURVE",
"105 420 OFFCURVE",
"105 300 CURVE SMOOTH",
"105 189 LINE SMOOTH",
"105 69 OFFCURVE",
"177 -10 OFFCURVE",
"287 -10 CURVE SMOOTH"
);
},
{
closed = 1;
nodes = (
"208 33 OFFCURVE",
"155 91 OFFCURVE",
"155 189 CURVE SMOOTH",
"155 300 LINE SMOOTH",
"155 398 OFFCURVE",
"208 457 OFFCURVE",
"297 457 CURVE SMOOTH",
"388 457 OFFCURVE",
"440 398 OFFCURVE",
"440 300 CURVE SMOOTH",
"440 189 LINE SMOOTH",
"440 91 OFFCURVE",
"387 33 OFFCURVE",
"297 33 CURVE SMOOTH"
);
},
{
closed = 1;
nodes = (
"590 586 LINE",
"590 631 LINE",
"260 631 LINE",
"260 586 LINE"
);
}
);
width = 600;
}
);
unicode = 0111;
},
{
glyphname = e;
layers = (
{
anchors = (
{
name = bottom;
position = "{300, 0}";
},
{
name = ogonek;
position = "{345, 0}";
},
{
name = top;
position = "{300, 550}";
}
);
layerId = "9ADF6715-3D0F-493D-8567-18A6FBCFC567";
paths = (
{
closed = 1;
nodes = (
"420 -10 OFFCURVE",
"511 54 OFFCURVE",
"532 150 CURVE",
"385 150 LINE",
"379 123 OFFCURVE",
"343 110 OFFCURVE",
"301 110 CURVE SMOOTH",
"236 110 OFFCURVE",
"203 141 OFFCURVE",
"203 210 CURVE SMOOTH",
"203 238 LINE",
"540 238 LINE",
"540 340 LINE SMOOTH",
"540 472 OFFCURVE",
"447 560 OFFCURVE",
"301 560 CURVE SMOOTH",
"154 560 OFFCURVE",
"60 472 OFFCURVE",
"60 340 CURVE SMOOTH",
"60 210 LINE SMOOTH",
"60 78 OFFCURVE",
"154 -10 OFFCURVE",
"301 -10 CURVE SMOOTH"
);
},
{
closed = 1;
nodes = (
"407 329 LINE",
"203 327 LINE",
"203 340 LINE SMOOTH",
"203 408 OFFCURVE",
"235 449 OFFCURVE",
"301 449 CURVE SMOOTH",
"366 449 OFFCURVE",
"397 410 OFFCURVE",
"397 342 CURVE SMOOTH",
"397 317 LINE"
);
}
);
width = 600;
},
{
anchors = (
{
name = bottom;
position = "{300, 0}";
},
{
name = ogonek;
position = "{355, 0}";
},
{
name = top;
position = "{300, 550}";
}
);
layerId = "EDF5EB54-295C-4C90-9A2F-67CD82979CFF";
paths = (
{
closed = 1;
nodes = (
"404 -10 OFFCURVE",
"475 46 OFFCURVE",
"491 135 CURVE",
"441 135 LINE",
"430 72 OFFCURVE",
"375 34 OFFCURVE",
"301 34 CURVE SMOOTH",
"208 34 OFFCURVE",
"155 94 OFFCURVE",
"155 190 CURVE SMOOTH",
"155 265 LINE",
"495 265 LINE",
"495 360 LINE SMOOTH",
"495 481 OFFCURVE",
"422 560 OFFCURVE",
"301 560 CURVE SMOOTH",
"179 560 OFFCURVE",
"105 481 OFFCURVE",
"105 360 CURVE SMOOTH",
"105 190 LINE SMOOTH",
"105 68 OFFCURVE",
"178 -10 OFFCURVE",
"301 -10 CURVE SMOOTH"
);
},
{
closed = 1;
nodes = (
"456 308 LINE",
"155 308 LINE",
"155 360 LINE SMOOTH",
"155 457 OFFCURVE",
"207 516 OFFCURVE",
"301 516 CURVE SMOOTH",
"393 516 OFFCURVE",
"445 456 OFFCURVE",
"445 360 CURVE SMOOTH",
"445 299 LINE"
);
}
);
width = 600;
},
{
anchors = (
{
name = bottom;
position = "{300, 0}";
},
{
name = ogonek;
position = "{350, 0}";
},
{
name = top;
position = "{300, 550}";
}
);
layerId = "CCC0BD40-BA8C-414E-B576-CF0B94E6C996";
paths = (
{
closed = 1;
nodes = (
"416 -10 OFFCURVE",
"500 48 OFFCURVE",
"512 140 CURVE",
"422 140 LINE",
"413 96 OFFCURVE",
"367 68 OFFCURVE",
"300 68 CURVE SMOOTH",
"222 68 OFFCURVE",
"172 119 OFFCURVE",
"172 200 CURVE SMOOTH",
"172 252 LINE",
"516 252 LINE",
"516 350 LINE SMOOTH",
"516 477 OFFCURVE",
"430 560 OFFCURVE",
"300 560 CURVE SMOOTH",
"170 560 OFFCURVE",
"84 477 OFFCURVE",
"84 340 CURVE SMOOTH",
"84 210 LINE SMOOTH",
"84 73 OFFCURVE",
"170 -10 OFFCURVE",
"300 -10 CURVE SMOOTH"
);
},
{
closed = 1;
nodes = (
"435 322 LINE",
"172 322 LINE",
"172 350 LINE SMOOTH",
"172 437 OFFCURVE",
"219 486 OFFCURVE",
"300 486 CURVE SMOOTH",
"381 486 OFFCURVE",
"428 437 OFFCURVE",
"428 350 CURVE SMOOTH",
"428 313 LINE"
);
}
);
width = 600;
}
);
unicode = 0065;
},
{
glyphname = eogonek;
layers = (
{
anchors = (
{
name = top;
position = "{300, 550}";
}
);
layerId = "9ADF6715-3D0F-493D-8567-18A6FBCFC567";
paths = (
{
closed = 1;
nodes = (
"468 -225 LINE",
"468 -120 LINE",
"399 -120 LINE SMOOTH",
"370 -120 OFFCURVE",
"353 -103 OFFCURVE",
"353 -83 CURVE SMOOTH",
"353 -66 OFFCURVE",
"368 -42 OFFCURVE",
"394 -18 CURVE SMOOTH",
"445 29 LINE",
"489 58 OFFCURVE",
"522 99 OFFCURVE",
"535 150 CURVE",
"388 150 LINE",
"379 122 OFFCURVE",
"350 105 OFFCURVE",
"303 105 CURVE SMOOTH",
"236 105 OFFCURVE",
"203 141 OFFCURVE",
"203 210 CURVE SMOOTH",
"203 240 LINE",
"540 240 LINE",
"540 340 LINE SMOOTH",
"540 472 OFFCURVE",
"447 560 OFFCURVE",
"301 560 CURVE SMOOTH",
"154 560 OFFCURVE",
"60 472 OFFCURVE",
"60 340 CURVE SMOOTH",
"60 210 LINE SMOOTH",
"60 78 OFFCURVE",
"154 -10 OFFCURVE",
"301 -10 CURVE SMOOTH",
"336 -10 OFFCURVE",
"359 9 OFFCURVE",
"359 29 CURVE",
"272 -19 OFFCURVE",
"229 -68 OFFCURVE",
"229 -115 CURVE SMOOTH",
"229 -180 OFFCURVE",
"279 -225 OFFCURVE",
"360 -225 CURVE SMOOTH"
);
},
{
closed = 1;
nodes = (
"407 327 LINE",
"203 325 LINE",
"203 340 LINE SMOOTH",
"203 408 OFFCURVE",
"235 447 OFFCURVE",
"301 447 CURVE SMOOTH",
"366 447 OFFCURVE",
"397 410 OFFCURVE",
"397 342 CURVE SMOOTH",
"397 317 LINE"
);
}
);
width = 600;
},
{
anchors = (
{
name = top;
position = "{300, 550}";
}
);
layerId = "CCC0BD40-BA8C-414E-B576-CF0B94E6C996";
paths = (
{
closed = 1;
nodes = (
"451 -203 LINE",
"451 -143 LINE",
"391 -143 LINE SMOOTH",
"357 -143 OFFCURVE",
"336 -122 OFFCURVE",
"336 -93 CURVE SMOOTH",
"336 -65 OFFCURVE",
"355 -36 OFFCURVE",
"400 1 CURVE SMOOTH",
"416 14 LINE",
"468 39 OFFCURVE",
"503 83 OFFCURVE",
"510 140 CURVE",
"420 140 LINE",
"410 91 OFFCURVE",
"369 66 OFFCURVE",
"300 66 CURVE SMOOTH",
"218 66 OFFCURVE",
"176 113 OFFCURVE",
"176 200 CURVE SMOOTH",
"176 253 LINE",
"512 253 LINE",
"512 350 LINE SMOOTH",
"512 477 OFFCURVE",
"430 560 OFFCURVE",
"300 560 CURVE SMOOTH",
"170 560 OFFCURVE",
"88 477 OFFCURVE",
"88 350 CURVE SMOOTH",
"88 200 LINE SMOOTH",
"88 73 OFFCURVE",
"170 -10 OFFCURVE",
"300 -10 CURVE SMOOTH",
"303 -10 OFFCURVE",
"307 -10 OFFCURVE",
"310 -10 CURVE",
"271 -45 OFFCURVE",
"251 -80 OFFCURVE",
"251 -110 CURVE SMOOTH",
"251 -164 OFFCURVE",
"299 -203 OFFCURVE",
"373 -203 CURVE SMOOTH"
);
},
{
closed = 1;
nodes = (
"464 321 LINE",
"176 321 LINE",
"176 350 LINE SMOOTH",
"176 437 OFFCURVE",
"218 485 OFFCURVE",
"300 485 CURVE SMOOTH",
"382 485 OFFCURVE",
"424 437 OFFCURVE",
"424 350 CURVE SMOOTH",
"424 281 LINE"
);
}
);
width = 600;
},
{
anchors = (
{
name = top;
position = "{300, 550}";
}
);
layerId = "EDF5EB54-295C-4C90-9A2F-67CD82979CFF";
paths = (
{
closed = 1;
nodes = (
"449 -195 LINE",
"449 -153 LINE",
"385 -153 LINE SMOOTH",
"353 -153 OFFCURVE",
"334 -134 OFFCURVE",
"334 -103 CURVE SMOOTH",
"334 -75 OFFCURVE",
"357 -36 OFFCURVE",
"395 0 CURVE SMOOTH",
"422 24 LINE",
"459 50 OFFCURVE",
"483 88 OFFCURVE",
"494 135 CURVE",
"444 135 LINE",
"425 72 OFFCURVE",
"375 34 OFFCURVE",
"301 34 CURVE SMOOTH",
"208 34 OFFCURVE",
"155 94 OFFCURVE",
"155 190 CURVE SMOOTH",
"155 265 LINE",
"495 265 LINE",
"495 360 LINE SMOOTH",
"495 481 OFFCURVE",
"422 560 OFFCURVE",
"301 560 CURVE SMOOTH",
"179 560 OFFCURVE",
"105 481 OFFCURVE",
"105 360 CURVE SMOOTH",
"105 190 LINE SMOOTH",
"105 68 OFFCURVE",
"178 -10 OFFCURVE",
"301 -10 CURVE SMOOTH",
"318 -10 OFFCURVE",
"335 -8 OFFCURVE",
"350 -5 CURVE",
"305 -48 OFFCURVE",
"287 -84 OFFCURVE",
"287 -115 CURVE SMOOTH",
"287 -165 OFFCURVE",
"321 -195 OFFCURVE",
"376 -195 CURVE SMOOTH"
);
},
{
closed = 1;
nodes = (
"467 308 LINE",
"155 308 LINE",
"155 360 LINE SMOOTH",
"155 457 OFFCURVE",
"207 516 OFFCURVE",
"301 516 CURVE SMOOTH",
"393 516 OFFCURVE",
"445 456 OFFCURVE",
"445 360 CURVE SMOOTH",
"445 286 LINE"
);
}
);
width = 600;
}
);
unicode = 0119;
},
{
glyphname = schwa;
layers = (
{
layerId = "9ADF6715-3D0F-493D-8567-18A6FBCFC567";
paths = (
{
closed = 1;
nodes = (
"446 -10 OFFCURVE",
"540 78 OFFCURVE",
"540 210 CURVE SMOOTH",
"540 340 LINE SMOOTH",
"540 472 OFFCURVE",
"446 560 OFFCURVE",
"299 560 CURVE SMOOTH",
"180 560 OFFCURVE",
"89 496 OFFCURVE",
"65 400 CURVE",
"212 400 LINE",
"221 428 OFFCURVE",
"250 445 OFFCURVE",
"296.995 445 CURVE SMOOTH",
"364 445 OFFCURVE",
"397 409 OFFCURVE",
"397 340 CURVE SMOOTH",
"397 310 LINE",
"60 310 LINE",
"60 210 LINE SMOOTH",
"60 78 OFFCURVE",
"153 -10 OFFCURVE",
"299 -10 CURVE SMOOTH"
);
},
{
closed = 1;
nodes = (
"234 105 OFFCURVE",
"203 142 OFFCURVE",
"203 210 CURVE SMOOTH",
"203 235 LINE",
"193 225 LINE",
"397 225 LINE",
"397 210 LINE SMOOTH",
"397 142 OFFCURVE",
"365 105 OFFCURVE",
"299 105 CURVE SMOOTH"
);
}
);
width = 600;
},
{
layerId = "CCC0BD40-BA8C-414E-B576-CF0B94E6C996";
paths = (
{
closed = 1;
nodes = (
"430 -10 OFFCURVE",
"510 73 OFFCURVE",
"510 200 CURVE SMOOTH",
"510 350 LINE SMOOTH",
"510 477 OFFCURVE",
"430 560 OFFCURVE",
"300 560 CURVE SMOOTH",
"184 560 OFFCURVE",
"104 502 OFFCURVE",
"92 410 CURVE",
"182 410 LINE",
"192 459 OFFCURVE",
"231 484 OFFCURVE",
"300 484 CURVE SMOOTH",
"382 484 OFFCURVE",
"422 437.009 OFFCURVE",
"422 350 CURVE SMOOTH",
"422 297 LINE",
"90 297 LINE",
"90 200 LINE SMOOTH",
"90 73 OFFCURVE",
"170 -10 OFFCURVE",
"300 -10 CURVE SMOOTH"
);
},
{
closed = 1;
nodes = (
"218 65 OFFCURVE",
"178 113 OFFCURVE",
"178 200 CURVE SMOOTH",
"178 237 LINE",
"171 229 LINE",
"422 229 LINE",
"422 200 LINE SMOOTH",
"422 113 OFFCURVE",
"382 65 OFFCURVE",
"300 65 CURVE SMOOTH"
);
}
);
width = 600;
},
{
layerId = "EDF5EB54-295C-4C90-9A2F-67CD82979CFF";
paths = (
{
closed = 1;
nodes = (
"421 -10 OFFCURVE",
"495 69 OFFCURVE",
"495 190 CURVE SMOOTH",
"495 360 LINE SMOOTH",
"495 482 OFFCURVE",
"422 560 OFFCURVE",
"299 560 CURVE SMOOTH",
"196 560 OFFCURVE",
"126 504 OFFCURVE",
"106 415 CURVE",
"156 415 LINE",
"175 478 OFFCURVE",
"225 516 OFFCURVE",
"299 516 CURVE SMOOTH",
"392 516 OFFCURVE",
"445 456 OFFCURVE",
"445 360 CURVE SMOOTH",
"445 285 LINE",
"105 285 LINE",
"105 190 LINE SMOOTH",
"105 69 OFFCURVE",
"178 -10 OFFCURVE",
"299 -10 CURVE SMOOTH"
);
},
{
closed = 1;
nodes = (
"207 34 OFFCURVE",
"155 94 OFFCURVE",
"155 190 CURVE SMOOTH",
"155 251 LINE",
"144 242 LINE",
"445 242 LINE",
"445 190 LINE SMOOTH",
"445 93 OFFCURVE",
"393 34 OFFCURVE",
"299 34 CURVE SMOOTH"
);
}
);
width = 600;
}
);
unicode = 0259;
},
{
glyphname = f;
layers = (
{
anchors = (
{
name = bottom;
position = "{300, 0}";
},
{
name = top;
position = "{300, 730}";
}
);
layerId = "EDF5EB54-295C-4C90-9A2F-67CD82979CFF";
paths = (
{
closed = 1;
nodes = (
"285 0 LINE",
"285 429 LINE",
"518 429 LINE",
"518 474 LINE",
"285 474 LINE",
"285 605 LINE SMOOTH",
"285 656 OFFCURVE",
"314 685 OFFCURVE",
"365 685 CURVE SMOOTH",
"518 685 LINE",
"518 730 LINE",
"365 730 LINE SMOOTH",
"284 730 OFFCURVE",
"235 683 OFFCURVE",
"235 605 CURVE SMOOTH",
"235 474 LINE",
"65 474 LINE",
"65 429 LINE",
"235 429 LINE",
"235 0 LINE"
);
}
);
width = 600;
},
{
anchors = (
{
name = bottom;
position = "{300, 0}";
},
{
name = top;
position = "{300, 730}";
}
);
layerId = "9ADF6715-3D0F-493D-8567-18A6FBCFC567";
paths = (
{
closed = 1;
nodes = (
"340 0 LINE",
"340 340 LINE",
"541 340 LINE",
"541 475 LINE",
"340 475 LINE",
"340 555 LINE SMOOTH",
"340 582 OFFCURVE",
"358 600 OFFCURVE",
"385 600 CURVE SMOOTH",
"541 600 LINE",
"541 730 LINE",
"380 730 LINE SMOOTH",
"266 730 OFFCURVE",
"190 662 OFFCURVE",
"190 560 CURVE SMOOTH",
"190 475 LINE",
"44 475 LINE",
"44 340 LINE",
"190 340 LINE",
"190 0 LINE"
);
}
);
width = 600;
},
{
anchors = (
{
name = bottom;
position = "{300, 0}";
},
{
name = top;
position = "{300, 730}";
}
);
layerId = "CCC0BD40-BA8C-414E-B576-CF0B94E6C996";
paths = (
{
closed = 1;
nodes = (
"305 0 LINE",
"305 393 LINE",
"530 393 LINE",
"530 475 LINE",
"305 475 LINE",
"305 590 LINE SMOOTH",
"305 628 OFFCURVE",
"328 648 OFFCURVE",
"369 648 CURVE SMOOTH",
"530 648 LINE",
"530 730 LINE",
"369 730 LINE SMOOTH",
"273 730 OFFCURVE",
"215 677 OFFCURVE",
"215 590 CURVE SMOOTH",
"215 475 LINE",
"55 475 LINE",
"55 393 LINE",
"215 393 LINE",
"215 0 LINE"
);
}
);
width = 600;
}
);
unicode = 0066;
},
{
glyphname = g;
layers = (
{
anchors = (
{
name = bottom;
position = "{300, -270}";
},
{
name = top;
position = "{297, 550}";
}
);
layerId = "EDF5EB54-295C-4C90-9A2F-67CD82979CFF";
paths = (
{
closed = 1;
nodes = (
"319 -180 LINE SMOOTH",
"431 -180 OFFCURVE",
"490 -124 OFFCURVE",
"490 -15 CURVE SMOOTH",
"490 550 LINE",
"440 550 LINE",
"440 455 LINE",
"427 455 LINE",
"447 410 LINE",
"447 501 OFFCURVE",
"383 560 OFFCURVE",
"287 560 CURVE SMOOTH",
"177 560 OFFCURVE",
"105 480 OFFCURVE",
"105 360 CURVE SMOOTH",
"105 239 LINE SMOOTH",
"105 119 OFFCURVE",
"177 40 OFFCURVE",
"287 40 CURVE SMOOTH",
"383 40 OFFCURVE",
"447 99 OFFCURVE",
"447 190 CURVE",
"422 145 LINE",
"440 145 LINE",
"440 30 LINE",
"440 -15 LINE SMOOTH",
"440 -94 OFFCURVE",
"398 -135 OFFCURVE",
"319 -135 CURVE SMOOTH",
"174 -135 LINE",
"174 -180 LINE"
);
},
{
closed = 1;
nodes = (
"208 83 OFFCURVE",
"155 141 OFFCURVE",
"155 239 CURVE SMOOTH",
"155 360 LINE SMOOTH",
"155 458 OFFCURVE",
"208 517 OFFCURVE",
"297 517 CURVE SMOOTH",
"388 517 OFFCURVE",
"440 458 OFFCURVE",
"440 360 CURVE SMOOTH",
"440 239 LINE SMOOTH",
"440 141 OFFCURVE",
"387 83 OFFCURVE",
"297 83 CURVE SMOOTH"
);
}
);
width = 600;
},
{
anchors = (
{
name = bottom;
position = "{300, -270}";
},
{
name = top;
position = "{297, 550}";
}
);
layerId = "9ADF6715-3D0F-493D-8567-18A6FBCFC567";
paths = (
{
closed = 1;
nodes = (
"305 -180 LINE SMOOTH",
"446 -180 OFFCURVE",
"534 -106 OFFCURVE",
"534 14 CURVE SMOOTH",
"534 550 LINE",
"389 550 LINE",
"389 455 LINE",
"354 455 LINE",
"409 360 LINE",
"409 484 OFFCURVE",
"346 560 OFFCURVE",
"243 560 CURVE SMOOTH",
"132 560 OFFCURVE",
"60 476 OFFCURVE",
"60 345 CURVE SMOOTH",
"60 245 LINE SMOOTH",
"60 113 OFFCURVE",
"132 30 OFFCURVE",
"243 30 CURVE SMOOTH",
"346 30 OFFCURVE",
"409 106 OFFCURVE",
"409 230 CURVE",
"354 165 LINE",
"389 165 LINE",
"387 40 LINE",
"387 19 LINE SMOOTH",
"387 -31 OFFCURVE",
"356 -60 OFFCURVE",
"300 -60 CURVE SMOOTH",
"145 -60 LINE",
"145 -180 LINE"
);
},
{
closed = 1;
nodes = (
"241 160 OFFCURVE",
"210 192 OFFCURVE",
"210 250 CURVE SMOOTH",
"210 340 LINE SMOOTH",
"210 397 OFFCURVE",
"241 430 OFFCURVE",
"297 430 CURVE SMOOTH",
"352 430 OFFCURVE",
"384 397 OFFCURVE",
"384 340 CURVE SMOOTH",
"384 250 LINE SMOOTH",
"384 192 OFFCURVE",
"352 160 OFFCURVE",
"297 160 CURVE SMOOTH"
);
}
);
width = 600;
},
{
anchors = (
{
name = bottom;
position = "{300, -270}";
},
{
name = top;
position = "{297, 550}";
}
);
layerId = "CCC0BD40-BA8C-414E-B576-CF0B94E6C996";
paths = (
{
closed = 1;
nodes = (
"315 -180 LINE SMOOTH",
"433 -180 OFFCURVE",
"507 -111 OFFCURVE",
"507 0 CURVE SMOOTH",
"507 550 LINE",
"418 550 LINE",
"418 455 LINE",
"401 455 LINE",
"418 430 LINE",
"418 510 OFFCURVE",
"360 560 OFFCURVE",
"271 560 CURVE SMOOTH",
"158 560 OFFCURVE",
"88 481 OFFCURVE",
"88 356 CURVE SMOOTH",
"88 240 LINE SMOOTH",
"88 114 OFFCURVE",
"158 38 OFFCURVE",
"271 38 CURVE SMOOTH",
"360 38 OFFCURVE",
"418 85 OFFCURVE",
"418 165 CURVE",
"401 140 LINE",
"419 140 LINE",
"417 50 LINE",
"417 0 LINE SMOOTH",
"417 -60 OFFCURVE",
"378 -98 OFFCURVE",
"316 -98 CURVE SMOOTH",
"161 -98 LINE",
"161 -180 LINE"
);
},
{
closed = 1;
nodes = (
"222 113 OFFCURVE",
"178 160 OFFCURVE",
"178 235 CURVE SMOOTH",
"178 360 LINE SMOOTH",
"178 435 OFFCURVE",
"222 482 OFFCURVE",
"298 482 CURVE SMOOTH",
"372 482 OFFCURVE",
"418 433 OFFCURVE",
"418 350 CURVE SMOOTH",
"418 245 LINE SMOOTH",
"418 162 OFFCURVE",
"372 113 OFFCURVE",
"298 113 CURVE SMOOTH"
);
}
);
width = 600;
}
);
unicode = 0067;
},
{
glyphname = h;
layers = (
{
anchors = (
{
name = bottom;
position = "{300, 0}";
},
{
name = center;
position = "{300, 365}";
},
{
name = top;
position = "{300, 730}";
}
);
layerId = "EDF5EB54-295C-4C90-9A2F-67CD82979CFF";
paths = (
{
closed = 1;
nodes = (
"160 0 LINE",
"160 360 LINE SMOOTH",
"160 457 OFFCURVE",
"215 517 OFFCURVE",
"303 517 CURVE SMOOTH",
"389 517 OFFCURVE",
"442 459 OFFCURVE",
"442 360 CURVE SMOOTH",
"442 0 LINE",
"492 0 LINE",
"492 367 LINE SMOOTH",
"492 485 OFFCURVE",
"421 560 OFFCURVE",
"313 560 CURVE SMOOTH",
"217 560 OFFCURVE",
"153 501 OFFCURVE",
"153 410 CURVE",
"177 460 LINE",
"160 460 LINE",
"160 580 LINE",
"160 730 LINE",
"110 730 LINE",
"110 0 LINE"
);
}
);
width = 600;
},
{
anchors = (
{
name = bottom;
position = "{300, 0}";
},
{
name = center;
position = "{300, 365}";
},
{
name = top;
position = "{300, 730}";
}
);
layerId = "9ADF6715-3D0F-493D-8567-18A6FBCFC567";
paths = (
{
closed = 1;
nodes = (
"216 0 LINE",
"216 340 LINE SMOOTH",
"216 397 OFFCURVE",
"248 430 OFFCURVE",
"301 430 CURVE SMOOTH",
"354 430 OFFCURVE",
"386 397 OFFCURVE",
"386 340 CURVE SMOOTH",
"386 0 LINE",
"536 0 LINE",
"536 355 LINE SMOOTH",
"536 479 OFFCURVE",
"466 560 OFFCURVE",
"359 560 CURVE SMOOTH",
"269 560 OFFCURVE",
"207 499 OFFCURVE",
"206 410 CURVE",
"255 445 LINE",
"211 445 LINE",
"216 550 LINE",
"216 730 LINE",
"66 730 LINE",
"66 0 LINE"
);
}
);
width = 600;
},
{
anchors = (
{
name = bottom;
position = "{300, 0}";
},
{
name = center;
position = "{300, 365}";
},
{
name = top;
position = "{300, 730}";
}
);
layerId = "CCC0BD40-BA8C-414E-B576-CF0B94E6C996";
paths = (
{
closed = 1;
nodes = (
"182 0 LINE",
"182 350 LINE SMOOTH",
"182 435 OFFCURVE",
"228 484 OFFCURVE",
"303 484 CURVE SMOOTH",
"375 484 OFFCURVE",
"420 438 OFFCURVE",
"420 355 CURVE SMOOTH",
"420 0 LINE",
"510 0 LINE",
"510 370 LINE SMOOTH",
"510 487 OFFCURVE",
"439 560 OFFCURVE",
"329 560 CURVE SMOOTH",
"237 560 OFFCURVE",
"182 510 OFFCURVE",
"182 424 CURVE",
"201 445 LINE",
"182 445 LINE",
"182 550 LINE",
"182 730 LINE",
"92 730 LINE",
"92 0 LINE"
);
}
);
width = 600;
}
);
unicode = 0068;
},
{
glyphname = idotless;
layers = (
{
anchors = (
{
name = bottom;
position = "{320, 0}";
},
{
name = ogonek;
position = "{330, 0}";
},
{
name = top;
position = "{320, 550}";
}
);
layerId = "9ADF6715-3D0F-493D-8567-18A6FBCFC567";
paths = (
{
closed = 1;
nodes = (
"560 0 LINE",
"560 135 LINE",
"402 135 LINE",
"402 550 LINE",
"90 550 LINE",
"90 415 LINE",
"252 415 LINE",
"252 135 LINE",
"70 135 LINE",
"70 0 LINE"
);
}
);
width = 600;
},
{
anchors = (
{
name = bottom;
position = "{315, 0}";
},
{
name = ogonek;
position = "{330, 0}";
},
{
name = top;
position = "{315, 550}";
}
);
layerId = "CCC0BD40-BA8C-414E-B576-CF0B94E6C996";
paths = (
{
closed = 1;
nodes = (
"555 0 LINE",
"555 82 LINE",
"370 82 LINE",
"370 550 LINE",
"105 550 LINE",
"105 468 LINE",
"280 468 LINE",
"280 82 LINE",
"85 82 LINE",
"85 0 LINE"
);
}
);
width = 600;
},
{
anchors = (
{
name = bottom;
position = "{315, 0}";
},
{
name = ogonek;
position = "{330, 0}";
},
{
name = top;
position = "{315, 550}";
}
);
layerId = "EDF5EB54-295C-4C90-9A2F-67CD82979CFF";
paths = (
{
closed = 1;
nodes = (
"535 0 LINE",
"535 45 LINE",
"346 45 LINE",
"346 550 LINE",
"120 550 LINE",
"120 505 LINE",
"296 505 LINE",
"296 45 LINE",
"95 45 LINE",
"95 0 LINE"
);
}
);
width = 600;
}
);
unicode = 0131;
},
{
glyphname = iogonek;
layers = (
{
components = (
{
name = idotless;
},
{
name = dotaccentcomb;
transform = "{1, 0, 0, 1, 615, 0}";
}
);
layerId = "EDF5EB54-295C-4C90-9A2F-67CD82979CFF";
paths = (
{
closed = 1;
nodes = (
"390 -195 LINE",
"390 -153 LINE",
"326 -153 LINE SMOOTH",
"294 -153 OFFCURVE",
"275 -134 OFFCURVE",
"275 -103 CURVE SMOOTH",
"275 -75 OFFCURVE",
"298 -36 OFFCURVE",
"336 0 CURVE SMOOTH",
"347 10 LINE",
"310 10 LINE",
"259 -27 OFFCURVE",
"228 -74 OFFCURVE",
"228 -115 CURVE SMOOTH",
"228 -165 OFFCURVE",
"262 -195 OFFCURVE",
"317 -195 CURVE"
);
}
);
width = 600;
},
{
components = (
{
name = idotless;
},
{
name = dotaccentcomb;
transform = "{1, 0, 0, 1, 615, 0}";
}
);
layerId = "CCC0BD40-BA8C-414E-B576-CF0B94E6C996";
paths = (
{
closed = 1;
nodes = (
"400 -203 LINE",
"400 -143 LINE",
"340 -143 LINE SMOOTH",
"306 -143 OFFCURVE",
"285 -122 OFFCURVE",
"285 -93 CURVE SMOOTH",
"285 -65 OFFCURVE",
"304 -36 OFFCURVE",
"349 1 CURVE",
"360 10 LINE",
"285 10 LINE",
"222 -34 OFFCURVE",
"200 -72 OFFCURVE",
"200 -110 CURVE SMOOTH",
"200 -164 OFFCURVE",
"248 -203 OFFCURVE",
"322 -203 CURVE SMOOTH"
);
}
);
width = 600;
},
{
components = (
{
name = idotless;
},
{
name = dotaccentcomb;
transform = "{1, 0, 0, 1, 620, 0}";
}
);
layerId = "9ADF6715-3D0F-493D-8567-18A6FBCFC567";
paths = (
{
closed = 1;
nodes = (
"424 -225 LINE",
"424 -120 LINE",
"355 -120 LINE SMOOTH",
"326 -120 OFFCURVE",
"309 -103 OFFCURVE",
"309 -83 CURVE SMOOTH",
"309 -66 OFFCURVE",
"324 -42 OFFCURVE",
"350 -18 CURVE SMOOTH",
"382 11 LINE",
"296 11 LINE",
"228 -19 OFFCURVE",
"185 -68 OFFCURVE",
"185 -115 CURVE SMOOTH",
"185 -180 OFFCURVE",
"235 -225 OFFCURVE",
"316 -225 CURVE SMOOTH"
);
}
);
width = 600;
}
);
unicode = 012F;
},
{
glyphname = jdotless;
layers = (
{
anchors = (
{
name = bottom;
position = "{300, -270}";
},
{
name = top;
position = "{390, 550}";
}
);
layerId = "9ADF6715-3D0F-493D-8567-18A6FBCFC567";
paths = (
{
closed = 1;
nodes = (
"246 -180 LINE SMOOTH",
"384 -180 OFFCURVE",
"470 -96 OFFCURVE",
"470 40 CURVE SMOOTH",
"470 550 LINE",
"70 550 LINE",
"70 415 LINE",
"320 415 LINE",
"320 45 LINE SMOOTH",
"320 -9 OFFCURVE",
"286 -45 OFFCURVE",
"235 -45 CURVE SMOOTH",
"75 -45 LINE",
"75 -180 LINE"
);
}
);
width = 600;
},
{
anchors = (
{
name = bottom;
position = "{295, -270}";
},
{
name = top;
position = "{380, 550}";
}
);
layerId = "CCC0BD40-BA8C-414E-B576-CF0B94E6C996";
paths = (
{
closed = 1;
nodes = (
"214 -180 LINE SMOOTH",
"349 -180 OFFCURVE",
"435 -98 OFFCURVE",
"435 31 CURVE SMOOTH",
"435 550 LINE",
"85 550 LINE",
"85 468 LINE",
"345 468 LINE",
"345 31 LINE SMOOTH",
"345 -51 OFFCURVE",
"297 -98 OFFCURVE",
"214 -98 CURVE SMOOTH",
"90 -98 LINE",
"90 -180 LINE"
);
}
);
width = 600;
},
{
anchors = (
{
name = bottom;
position = "{296, -270}";
},
{
name = top;
position = "{380, 550}";
}
);
layerId = "EDF5EB54-295C-4C90-9A2F-67CD82979CFF";
paths = (
{
closed = 1;
nodes = (
"226 -180 LINE SMOOTH",
"348 -180 OFFCURVE",
"420 -109 OFFCURVE",
"420 10 CURVE SMOOTH",
"420 550 LINE",
"105 550 LINE",
"105 505 LINE",
"370 505 LINE",
"370 10 LINE SMOOTH",
"370 -84 OFFCURVE",
"320 -135 OFFCURVE",
"226 -135 CURVE SMOOTH",
"110 -135 LINE",
"110 -180 LINE"
);
}
);
width = 600;
}
);
unicode = 0237;
},
{
glyphname = k;
layers = (
{
anchors = (
{
name = bottom;
position = "{300, 0}";
},
{
name = top;
position = "{300, 730}";
}
);
layerId = "EDF5EB54-295C-4C90-9A2F-67CD82979CFF";
paths = (
{
closed = 1;
nodes = (
"165 0 LINE",
"165 264 LINE",
"295 264 LINE",
"474 0 LINE",
"533 0 LINE",
"339 288 LINE",
"523 550 LINE",
"465 550 LINE",
"294 309 LINE",
"165 309 LINE",
"165 730 LINE",
"115 730 LINE",
"115 0 LINE"
);
}
);
width = 600;
},
{
anchors = (
{
name = bottom;
position = "{300, 0}";
},
{
name = top;
position = "{300, 730}";
}
);
layerId = "CCC0BD40-BA8C-414E-B576-CF0B94E6C996";
paths = (
{
closed = 1;
nodes = (
"187 0 LINE",
"187 245 LINE",
"294 245 LINE",
"454 0 LINE",
"559 0 LINE",
"372 288 LINE",
"549 550 LINE",
"446 550 LINE",
"292 323 LINE",
"187 323 LINE",
"187 730 LINE",
"97 730 LINE",
"97 0 LINE"
);
}
);
width = 600;
},
{
anchors = (
{
name = bottom;
position = "{300, 0}";
},
{
name = top;
position = "{300, 730}";
}
);
layerId = "9ADF6715-3D0F-493D-8567-18A6FBCFC567";
paths = (
{
closed = 1;
nodes = (
"221 0 LINE",
"221 216 LINE",
"296 216 LINE",
"412 0 LINE",
"580 0 LINE",
"424 281 LINE",
"577 550 LINE",
"412 550 LINE",
"297 342 LINE",
"221 342 LINE",
"221 730 LINE",
"71 730 LINE",
"71 0 LINE"
);
}
);
width = 600;
}
);
unicode = 006B;
},
{
glyphname = l;
layers = (
{
anchors = (
{
name = bottom;
position = "{320, 0}";
},
{
name = center;
position = "{300, 365}";
},
{
name = top;
position = "{230, 730}";
}
);
layerId = "EDF5EB54-295C-4C90-9A2F-67CD82979CFF";
paths = (
{
closed = 1;
nodes = (
"540 0 LINE",
"540 45 LINE",
"370 45 LINE SMOOTH",
"311 45 OFFCURVE",
"280 76 OFFCURVE",
"280 135 CURVE SMOOTH",
"280 730 LINE",
"50 730 LINE",
"50 685 LINE",
"230 685 LINE",
"230 135 LINE SMOOTH",
"230 48 OFFCURVE",
"280 0 OFFCURVE",
"370 0 CURVE SMOOTH"
);
}
);
width = 600;
},
{
anchors = (
{
name = bottom;
position = "{320, 0}";
},
{
name = center;
position = "{300, 365}";
},
{
name = top;
position = "{270, 730}";
}
);
layerId = "9ADF6715-3D0F-493D-8567-18A6FBCFC567";
paths = (
{
closed = 1;
nodes = (
"565 0 LINE",
"565 135 LINE",
"410 135 LINE SMOOTH",
"374 135 OFFCURVE",
"350 161 OFFCURVE",
"350 200 CURVE SMOOTH",
"350 730 LINE",
"25 730 LINE",
"25 595 LINE",
"200 595 LINE",
"200 195 LINE SMOOTH",
"200 78 OFFCURVE",
"278 0 OFFCURVE",
"395 0 CURVE SMOOTH"
);
}
);
width = 600;
},
{
anchors = (
{
name = bottom;
position = "{320, 0}";
},
{
name = center;
position = "{300, 365}";
},
{
name = top;
position = "{240, 730}";
}
);
layerId = "CCC0BD40-BA8C-414E-B576-CF0B94E6C996";
paths = (
{
closed = 1;
nodes = (
"550 0 LINE",
"550 82 LINE",
"380 82 LINE SMOOTH",
"337 82 OFFCURVE",
"310 110 OFFCURVE",
"310 155 CURVE SMOOTH",
"310 730 LINE",
"30 730 LINE",
"30 648 LINE",
"220 648 LINE",
"220 155 LINE SMOOTH",
"220 61 OFFCURVE",
"283 0 OFFCURVE",
"380 0 CURVE SMOOTH"
);
}
);
width = 600;
}
);
unicode = 006C;
},
{
glyphname = lambdastroke;
layers = (
{
components = (
{
name = lambda;
}
);
layerId = "EDF5EB54-295C-4C90-9A2F-67CD82979CFF";
paths = (
{
closed = 1;
nodes = (
"470 692 LINE",
"470 740 LINE",
"90 550 LINE",
"90 502 LINE"
);
}
);
width = 600;
},
{
components = (
{
name = lambda;
}
);
layerId = "CCC0BD40-BA8C-414E-B576-CF0B94E6C996";
paths = (
{
closed = 1;
nodes = (
"470 660 LINE",
"470 740 LINE",
"90 550 LINE",
"90 470 LINE"
);
}
);
width = 600;
},
{
components = (
{
name = lambda;
}
);
layerId = "9ADF6715-3D0F-493D-8567-18A6FBCFC567";
paths = (
{
closed = 1;
nodes = (
"470 635 LINE",
"470 740 LINE",
"90 550 LINE",
"90 445 LINE"
);
}
);
width = 600;
}
);
unicode = 019B;
},
{
glyphname = lslash;
layers = (
{
components = (
{
alignment = -1;
name = l;
}
);
layerId = "9ADF6715-3D0F-493D-8567-18A6FBCFC567";
paths = (
{
closed = 1;
nodes = (
"480 420 LINE",
"480 560 LINE",
"100 370 LINE",
"100 230 LINE"
);
}
);
width = 600;
},
{
components = (
{
alignment = -1;
name = l;
}
);
layerId = "CCC0BD40-BA8C-414E-B576-CF0B94E6C996";
paths = (
{
closed = 1;
nodes = (
"470 480 LINE",
"470 560 LINE",
"100 310 LINE",
"100 230 LINE"
);
}
);
width = 600;
},
{
components = (
{
alignment = -1;
name = l;
}
);
layerId = "EDF5EB54-295C-4C90-9A2F-67CD82979CFF";
paths = (
{
closed = 1;
nodes = (
"470 495 LINE",
"470 550 LINE",
"100 295 LINE",
"100 240 LINE"
);
}
);
width = 600;
}
);
unicode = 0142;
},
{
glyphname = m;
layers = (
{
anchors = (
{
name = bottom;
position = "{300, 0}";
},
{
name = top;
position = "{300, 550}";
}
);
layerId = "EDF5EB54-295C-4C90-9A2F-67CD82979CFF";
paths = (
{
closed = 1;
nodes = (
"124 0 LINE",
"124 425 LINE SMOOTH",
"124 482 OFFCURVE",
"154 518 OFFCURVE",
"201 518 CURVE SMOOTH",
"247 518 OFFCURVE",
"276 482 OFFCURVE",
"276 425 CURVE SMOOTH",
"276 0 LINE",
"324 0 LINE",
"324 425 LINE SMOOTH",
"324 482 OFFCURVE",
"354 518 OFFCURVE",
"401 518 CURVE SMOOTH",
"447 518 OFFCURVE",
"476 482 OFFCURVE",
"476 425 CURVE SMOOTH",
"476 0 LINE",
"525 0 LINE",
"525 431 LINE SMOOTH",
"525 510 OFFCURVE",
"483 560 OFFCURVE",
"416 560 CURVE SMOOTH",
"355 560 OFFCURVE",
"317 522 OFFCURVE",
"317 461 CURVE",
"326 475 LINE",
"313 475 LINE",
"322 461 LINE",
"314 522 OFFCURVE",
"273 560 OFFCURVE",
"216 560 CURVE SMOOTH",
"158 560 OFFCURVE",
"121 522 OFFCURVE",
"121 461 CURVE",
"125 475 LINE",
"119 475 LINE",
"119 550 LINE",
"75 550 LINE",
"75 0 LINE"
);
}
);
width = 600;
},
{
anchors = (
{
name = bottom;
position = "{300, 0}";
},
{
name = top;
position = "{300, 550}";
}
);
layerId = "9ADF6715-3D0F-493D-8567-18A6FBCFC567";
paths = (
{
closed = 1;
nodes = (
"167 0 LINE",
"167 403 LINE SMOOTH",
"167 434 OFFCURVE",
"180 451 OFFCURVE",
"205 451 CURVE SMOOTH",
"230 451 OFFCURVE",
"241 434 OFFCURVE",
"241 403 CURVE SMOOTH",
"241 0 LINE",
"359 0 LINE",
"359 403 LINE SMOOTH",
"359 434 OFFCURVE",
"370 451 OFFCURVE",
"395 451 CURVE SMOOTH",
"420 451 OFFCURVE",
"433 434 OFFCURVE",
"433 403 CURVE SMOOTH",
"433 0 LINE",
"562 0 LINE",
"562 420 LINE SMOOTH",
"562 502 OFFCURVE",
"511 560 OFFCURVE",
"446 560 CURVE SMOOTH",
"390 560 OFFCURVE",
"351 518 OFFCURVE",
"351 454 CURVE",
"361 465 LINE",
"333 465 LINE",
"354 440 LINE",
"354 510 OFFCURVE",
"311 560 OFFCURVE",
"255 560 CURVE SMOOTH",
"199 560 OFFCURVE",
"163 516 OFFCURVE",
"163 454 CURVE",
"182 465 LINE",
"161 465 LINE",
"161 550 LINE",
"38 550 LINE",
"38 0 LINE"
);
}
);
width = 600;
},
{
anchors = (
{
name = bottom;
position = "{300, 0}";
},
{
name = top;
position = "{300, 550}";
}
);
layerId = "CCC0BD40-BA8C-414E-B576-CF0B94E6C996";
paths = (
{
closed = 1;
nodes = (
"144 0 LINE",
"144 420 LINE SMOOTH",
"144 464 OFFCURVE",
"167 491 OFFCURVE",
"204 491 CURVE SMOOTH",
"240 491 OFFCURVE",
"263 463 OFFCURVE",
"263 419 CURVE SMOOTH",
"263 0 LINE",
"337 0 LINE",
"337 420 LINE SMOOTH",
"337 464 OFFCURVE",
"360 491 OFFCURVE",
"396 491 CURVE SMOOTH",
"433 491 OFFCURVE",
"456 463 OFFCURVE",
"456 419 CURVE SMOOTH",
"456 0 LINE",
"540 0 LINE",
"540 418 LINE SMOOTH",
"540 502 OFFCURVE",
"494 560 OFFCURVE",
"424 560 CURVE SMOOTH",
"366 560 OFFCURVE",
"329 521 OFFCURVE",
"328 460 CURVE",
"351 482 LINE",
"309 482 LINE",
"336 430 LINE",
"336 507 OFFCURVE",
"296 560 OFFCURVE",
"232 560 CURVE SMOOTH",
"176 560 OFFCURVE",
"139 519 OFFCURVE",
"139 460 CURVE",
"158 477 LINE",
"138 477 LINE",
"138 550 LINE",
"60 550 LINE",
"60 0 LINE"
);
}
);
width = 600;
}
);
unicode = 006D;
},
{
glyphname = n;
layers = (
{
anchors = (
{
name = bottom;
position = "{300, 0}";
},
{
name = top;
position = "{305, 550}";
}
);
layerId = "EDF5EB54-295C-4C90-9A2F-67CD82979CFF";
paths = (
{
closed = 1;
nodes = (
"160 0 LINE",
"160 360 LINE SMOOTH",
"160 457 OFFCURVE",
"215 517 OFFCURVE",
"293 517 CURVE SMOOTH",
"389 517 OFFCURVE",
"442 459 OFFCURVE",
"442 360 CURVE SMOOTH",
"442 0 LINE",
"492 0 LINE",
"492 367 LINE SMOOTH",
"492 485 OFFCURVE",
"421 560 OFFCURVE",
"313 560 CURVE SMOOTH",
"214 560 OFFCURVE",
"152 500 OFFCURVE",
"152 404 CURVE",
"173 455 LINE",
"160 455 LINE",
"160 550 LINE",
"110 550 LINE",
"110 0 LINE"
);
}
);
width = 600;
},
{
anchors = (
{
name = bottom;
position = "{300, 0}";
},
{
name = top;
position = "{305, 550}";
}
);
layerId = "9ADF6715-3D0F-493D-8567-18A6FBCFC567";
paths = (
{
closed = 1;
nodes = (
"216 0 LINE",
"216 340 LINE SMOOTH",
"216 397 OFFCURVE",
"248 430 OFFCURVE",
"301 430 CURVE SMOOTH",
"354 430 OFFCURVE",
"386 397 OFFCURVE",
"386 340 CURVE SMOOTH",
"386 0 LINE",
"536 0 LINE",
"536 355 LINE SMOOTH",
"536 479 OFFCURVE",
"466 560 OFFCURVE",
"359 560 CURVE SMOOTH",
"269 560 OFFCURVE",
"207 499 OFFCURVE",
"206 410 CURVE",
"255 445 LINE",
"211 445 LINE",
"211 550 LINE",
"66 550 LINE",
"66 0 LINE"
);
}
);
width = 600;
},
{
anchors = (
{
name = bottom;
position = "{300, 0}";
},
{
name = top;
position = "{305, 550}";
}
);
layerId = "CCC0BD40-BA8C-414E-B576-CF0B94E6C996";
paths = (
{
closed = 1;
nodes = (
"182 0 LINE",
"182 350 LINE SMOOTH",
"182 435 OFFCURVE",
"228 484 OFFCURVE",
"303 484 CURVE SMOOTH",
"375 484 OFFCURVE",
"420 438 OFFCURVE",
"420 354 CURVE SMOOTH",
"420 0 LINE",
"510 0 LINE",
"510 370 LINE SMOOTH",
"510 487 OFFCURVE",
"439 560 OFFCURVE",
"329 560 CURVE SMOOTH",
"237 560 OFFCURVE",
"182 510 OFFCURVE",
"182 424 CURVE",
"201 445 LINE",
"182 445 LINE",
"182 550 LINE",
"92 550 LINE",
"92 0 LINE"
);
}
);
width = 600;
}
);
unicode = 006E;
},
{
glyphname = eng;
layers = (
{
layerId = "9ADF6715-3D0F-493D-8567-18A6FBCFC567";
paths = (
{
closed = 1;
nodes = (
"296 -180 LINE SMOOTH",
"437 -180 OFFCURVE",
"536 -96 OFFCURVE",
"536 25 CURVE SMOOTH",
"536 355 LINE SMOOTH",
"536 479 OFFCURVE",
"466 560 OFFCURVE",
"359 560 CURVE SMOOTH",
"268 560 OFFCURVE",
"211 503 OFFCURVE",
"211 410 CURVE",
"255 445 LINE",
"211 445 LINE",
"211 550 LINE",
"66 550 LINE",
"66 0 LINE",
"216 0 LINE",
"216 340 LINE SMOOTH",
"216 397 OFFCURVE",
"247 430 OFFCURVE",
"300 430 CURVE SMOOTH",
"354 430 OFFCURVE",
"386 397 OFFCURVE",
"386 340 CURVE SMOOTH",
"386 41 LINE SMOOTH",
"386 -7 OFFCURVE",
"357 -35 OFFCURVE",
"306 -35 CURVE SMOOTH",
"246 -35 LINE",
"246 -180 LINE"
);
}
);
width = 600;
},
{
layerId = "CCC0BD40-BA8C-414E-B576-CF0B94E6C996";
paths = (
{
closed = 1;
nodes = (
"303 -180 LINE SMOOTH",
"427 -180 OFFCURVE",
"508 -103 OFFCURVE",
"508 15 CURVE SMOOTH",
"508 370 LINE SMOOTH",
"508 487 OFFCURVE",
"439 560 OFFCURVE",
"329 560 CURVE SMOOTH",
"237 560 OFFCURVE",
"184 510 OFFCURVE",
"184 424 CURVE",
"203 445 LINE",
"184 445 LINE",
"184 550 LINE",
"94 550 LINE",
"94 0 LINE",
"184 0 LINE",
"184 350 LINE SMOOTH",
"184 435 OFFCURVE",
"228 484 OFFCURVE",
"303 484 CURVE SMOOTH",
"375 484 OFFCURVE",
"418 438 OFFCURVE",
"418 360 CURVE SMOOTH",
"418 15 LINE SMOOTH",
"418 -55 OFFCURVE",
"374 -98 OFFCURVE",
"303 -98 CURVE SMOOTH",
"240 -98 LINE",
"240 -180 LINE"
);
}
);
width = 600;
},
{
layerId = "EDF5EB54-295C-4C90-9A2F-67CD82979CFF";
paths = (
{
closed = 1;
nodes = (
"286 -180 LINE SMOOTH",
"411 -180 OFFCURVE",
"492 -104 OFFCURVE",
"492 15 CURVE SMOOTH",
"492 367 LINE SMOOTH",
"492 485 OFFCURVE",
"421 560 OFFCURVE",
"313 560 CURVE SMOOTH",
"215 560 OFFCURVE",
"153 499 OFFCURVE",
"153 404 CURVE",
"183 455 LINE",
"160 455 LINE",
"160 550 LINE",
"110 550 LINE",
"110 0 LINE",
"160 0 LINE",
"160 360 LINE SMOOTH",
"160 457 OFFCURVE",
"215 517 OFFCURVE",
"303 517 CURVE SMOOTH",
"388.997 517 OFFCURVE",
"442 459 OFFCURVE",
"442 360 CURVE SMOOTH",
"442 15 LINE SMOOTH",
"442 -78 OFFCURVE",
"382 -135 OFFCURVE",
"286 -135 CURVE SMOOTH",
"245 -135 LINE",
"245 -180 LINE"
);
}
);
width = 600;
}
);
unicode = 014B;
},
{
glyphname = o;
layers = (
{
anchors = (
{
name = bottom;
position = "{300, 0}";
},
{
name = center;
position = "{300, 275}";
},
{
name = horn;
position = "{320, 550}";
},
{
name = ogonek;
position = "{345, 0}";
},
{
name = top;
position = "{300, 550}";
},
{
name = topright;
position = "{580, 550}";
}
);
layerId = "9ADF6715-3D0F-493D-8567-18A6FBCFC567";
paths = (
{
closed = 1;
nodes = (
"447 -10 OFFCURVE",
"540 78 OFFCURVE",
"540 210 CURVE SMOOTH",
"540 340 LINE SMOOTH",
"540 472 OFFCURVE",
"447 560 OFFCURVE",
"300 560 CURVE SMOOTH",
"153 560 OFFCURVE",
"60 472 OFFCURVE",
"60 340 CURVE SMOOTH",
"60 210 LINE SMOOTH",
"60 78 OFFCURVE",
"153 -10 OFFCURVE",
"300 -10 CURVE SMOOTH"
);
},
{
closed = 1;
nodes = (
"242 120 OFFCURVE",
"210 152 OFFCURVE",
"210 210 CURVE SMOOTH",
"210 340 LINE SMOOTH",
"210 398 OFFCURVE",
"242 430 OFFCURVE",
"300 430 CURVE SMOOTH",
"358 430 OFFCURVE",
"390 398 OFFCURVE",
"390 340 CURVE SMOOTH",
"390 210 LINE SMOOTH",
"390 152 OFFCURVE",
"358 120 OFFCURVE",
"300 120 CURVE SMOOTH"
);
}
);
width = 600;
},
{
anchors = (
{
name = bottom;
position = "{300, 0}";
},
{
name = center;
position = "{300, 275}";
},
{
name = horn;
position = "{320, 550}";
},
{
name = ogonek;
position = "{355, 0}";
},
{
name = top;
position = "{300, 550}";
},
{
name = topright;
position = "{580, 550}";
}
);
layerId = "EDF5EB54-295C-4C90-9A2F-67CD82979CFF";
paths = (
{
closed = 1;
nodes = (
"419 -10 OFFCURVE",
"495 68 OFFCURVE",
"495 190 CURVE SMOOTH",
"495 360 LINE SMOOTH",
"495 481 OFFCURVE",
"418 560 OFFCURVE",
"300 560 CURVE SMOOTH",
"182 560 OFFCURVE",
"105 481 OFFCURVE",
"105 360 CURVE SMOOTH",
"105 190 LINE SMOOTH",
"105 68 OFFCURVE",
"182 -10 OFFCURVE",
"300 -10 CURVE SMOOTH"
);
},
{
closed = 1;
nodes = (
"208 34 OFFCURVE",
"155 91 OFFCURVE",
"155 190 CURVE SMOOTH",
"155 360 LINE SMOOTH",
"155 458 OFFCURVE",
"209 516 OFFCURVE",
"300 516 CURVE SMOOTH",
"391 516 OFFCURVE",
"445 458 OFFCURVE",
"445 360 CURVE SMOOTH",
"445 190 LINE SMOOTH",
"445 91 OFFCURVE",
"392 34 OFFCURVE",
"300 34 CURVE SMOOTH"
);
}
);
width = 600;
},
{
anchors = (
{
name = bottom;
position = "{300, 0}";
},
{
name = center;
position = "{300, 275}";
},
{
name = horn;
position = "{332, 550}";
},
{
name = ogonek;
position = "{350, 0}";
},
{
name = top;
position = "{300, 550}";
},
{
name = topright;
position = "{580, 550}";
}
);
layerId = "CCC0BD40-BA8C-414E-B576-CF0B94E6C996";
paths = (
{
closed = 1;
nodes = (
"432 -8 OFFCURVE",
"516 73 OFFCURVE",
"516 212 CURVE SMOOTH",
"516 338 LINE SMOOTH",
"516 478 OFFCURVE",
"433 558 OFFCURVE",
"300 558 CURVE SMOOTH",
"167 558 OFFCURVE",
"84 478 OFFCURVE",
"84 338 CURVE SMOOTH",
"84 212 LINE SMOOTH",
"84 73 OFFCURVE",
"168 -8 OFFCURVE",
"300 -8 CURVE SMOOTH"
);
},
{
closed = 1;
nodes = (
"222 72 OFFCURVE",
"174 117 OFFCURVE",
"174 202 CURVE SMOOTH",
"174 348 LINE SMOOTH",
"174 433 OFFCURVE",
"222 478 OFFCURVE",
"300 478 CURVE SMOOTH",
"378 478 OFFCURVE",
"426 433 OFFCURVE",
"426 348 CURVE SMOOTH",
"426 202 LINE SMOOTH",
"426 117 OFFCURVE",
"378 72 OFFCURVE",
"300 72 CURVE SMOOTH"
);
}
);
width = 600;
}
);
unicode = 006F;
},
{
glyphname = ohorn;
layers = (
{
anchors = (
{
name = top;
position = "{290, 550}";
}
);
components = (
{
name = o;
}
);
layerId = "EDF5EB54-295C-4C90-9A2F-67CD82979CFF";
paths = (
{
closed = 1;
nodes = (
"425 495 LINE SMOOTH",
"476 495 OFFCURVE",
"510 529 OFFCURVE",
"510 580 CURVE SMOOTH",
"510 640 LINE",
"470 640 LINE",
"470 580 LINE SMOOTH",
"470 550 OFFCURVE",
"452 530 OFFCURVE",
"425 530 CURVE SMOOTH",
"390 530 LINE",
"390 495 LINE"
);
}
);
width = 600;
},
{
anchors = (
{
name = top;
position = "{290, 550}";
}
);
components = (
{
name = o;
}
);
layerId = "CCC0BD40-BA8C-414E-B576-CF0B94E6C996";
paths = (
{
closed = 1;
nodes = (
"435 465 LINE SMOOTH",
"498 465 OFFCURVE",
"540 503 OFFCURVE",
"540 560 CURVE SMOOTH",
"540 640 LINE",
"465 640 LINE",
"465 565 LINE SMOOTH",
"465 542 OFFCURVE",
"453 530 OFFCURVE",
"430 530 CURVE SMOOTH",
"396 530 LINE",
"396 465 LINE"
);
}
);
width = 600;
},
{
anchors = (
{
name = top;
position = "{290, 550}";
}
);
components = (
{
name = o;
}
);
layerId = "9ADF6715-3D0F-493D-8567-18A6FBCFC567";
paths = (
{
closed = 1;
nodes = (
"435 430 LINE SMOOTH",
"522 430 OFFCURVE",
"580 484 OFFCURVE",
"580 565 CURVE SMOOTH",
"580 640 LINE",
"460 640 LINE",
"460 565 LINE SMOOTH",
"460 543 OFFCURVE",
"447 530 OFFCURVE",
"425 530 CURVE SMOOTH",
"365 530 LINE",
"365 430 LINE"
);
}
);
width = 600;
}
);
unicode = 01A1;
},
{
glyphname = oogonek;
layers = (
{
anchors = (
{
name = horn;
position = "{320, 550}";
},
{
name = top;
position = "{300, 550}";
}
);
layerId = "9ADF6715-3D0F-493D-8567-18A6FBCFC567";
paths = (
{
closed = 1;
nodes = (
"467 -225 LINE",
"467 -120 LINE",
"398 -120 LINE SMOOTH",
"369 -120 OFFCURVE",
"352 -103 OFFCURVE",
"352 -83 CURVE SMOOTH",
"352 -66 OFFCURVE",
"366 -41 OFFCURVE",
"393 -18 CURVE SMOOTH",
"449 31 LINE",
"503 70 OFFCURVE",
"540 135 OFFCURVE",
"540 210 CURVE SMOOTH",
"540 340 LINE SMOOTH",
"540 472 OFFCURVE",
"447 560 OFFCURVE",
"300 560 CURVE SMOOTH",
"153 560 OFFCURVE",
"60 472 OFFCURVE",
"60 340 CURVE SMOOTH",
"60 210 LINE SMOOTH",
"60 78 OFFCURVE",
"153 -10 OFFCURVE",
"300 -10 CURVE SMOOTH",
"321 -10 OFFCURVE",
"363 12 OFFCURVE",
"363 31 CURVE",
"271 -19 OFFCURVE",
"228 -68 OFFCURVE",
"228 -115 CURVE SMOOTH",
"228 -180 OFFCURVE",
"278 -225 OFFCURVE",
"359 -225 CURVE SMOOTH"
);
},
{
closed = 1;
nodes = (
"242 120 OFFCURVE",
"210 152 OFFCURVE",
"210 210 CURVE SMOOTH",
"210 340 LINE SMOOTH",
"210 398 OFFCURVE",
"242 430 OFFCURVE",
"300 430 CURVE SMOOTH",
"358 430 OFFCURVE",
"390 398 OFFCURVE",
"390 340 CURVE SMOOTH",
"390 210 LINE SMOOTH",
"390 152 OFFCURVE",
"358 120 OFFCURVE",
"300 120 CURVE SMOOTH"
);
}
);
width = 600;
},
{
anchors = (
{
name = horn;
position = "{332, 550}";
},
{
name = top;
position = "{300, 550}";
}
);
layerId = "CCC0BD40-BA8C-414E-B576-CF0B94E6C996";
paths = (
{
closed = 1;
nodes = (
"450 -203 LINE",
"450 -143 LINE",
"390 -143 LINE SMOOTH",
"356 -143 OFFCURVE",
"335 -122 OFFCURVE",
"335 -93 CURVE SMOOTH",
"335 -65 OFFCURVE",
"354 -36 OFFCURVE",
"399 1 CURVE SMOOTH",
"423 21 LINE",
"480 55 OFFCURVE",
"512 117 OFFCURVE",
"512 200 CURVE SMOOTH",
"512 351 LINE SMOOTH",
"512 481 OFFCURVE",
"431 560 OFFCURVE",
"300 560 CURVE SMOOTH",
"169 560 OFFCURVE",
"88 481 OFFCURVE",
"88 350 CURVE SMOOTH",
"88 200 LINE SMOOTH",
"88 69 OFFCURVE",
"169 -10 OFFCURVE",
"300 -10 CURVE SMOOTH",
"303 -10 OFFCURVE",
"306 -10 OFFCURVE",
"309 -10 CURVE",
"263 -51 OFFCURVE",
"250 -81 OFFCURVE",
"250 -110 CURVE SMOOTH",
"250 -164 OFFCURVE",
"298 -203 OFFCURVE",
"372 -203 CURVE SMOOTH"
);
},
{
closed = 1;
nodes = (
"222 70 OFFCURVE",
"178 115 OFFCURVE",
"178 200 CURVE SMOOTH",
"178 350 LINE SMOOTH",
"178 435 OFFCURVE",
"222 480 OFFCURVE",
"300 480 CURVE SMOOTH",
"378 480 OFFCURVE",
"422 435 OFFCURVE",
"422 350 CURVE SMOOTH",
"422 200 LINE SMOOTH",
"422 115 OFFCURVE",
"378 70 OFFCURVE",
"300 70 CURVE SMOOTH"
);
}
);
width = 600;
},
{
anchors = (
{
name = horn;
position = "{320, 550}";
},
{
name = top;
position = "{300, 550}";
}
);
layerId = "EDF5EB54-295C-4C90-9A2F-67CD82979CFF";
paths = (
{
closed = 1;
nodes = (
"446 -195 LINE",
"446 -153 LINE",
"382 -153 LINE SMOOTH",
"350 -153 OFFCURVE",
"331 -134 OFFCURVE",
"331 -103 CURVE SMOOTH",
"331 -75 OFFCURVE",
"354 -36 OFFCURVE",
"392 0 CURVE SMOOTH",
"419 25 LINE",
"467 59 OFFCURVE",
"495 116 OFFCURVE",
"495 190 CURVE SMOOTH",
"495 360 LINE SMOOTH",
"495 481 OFFCURVE",
"418 560 OFFCURVE",
"300 560 CURVE SMOOTH",
"182 560 OFFCURVE",
"105 481 OFFCURVE",
"105 360 CURVE SMOOTH",
"105 190 LINE SMOOTH",
"105 68 OFFCURVE",
"182 -10 OFFCURVE",
"300 -10 CURVE SMOOTH",
"316 -10 OFFCURVE",
"332 -9 OFFCURVE",
"346 -6 CURVE",
"303 -47 OFFCURVE",
"284 -83 OFFCURVE",
"284 -115 CURVE SMOOTH",
"284 -165 OFFCURVE",
"318 -195 OFFCURVE",
"373 -195 CURVE SMOOTH"
);
},
{
closed = 1;
nodes = (
"208 34 OFFCURVE",
"155 91 OFFCURVE",
"155 190 CURVE SMOOTH",
"155 360 LINE SMOOTH",
"155 458 OFFCURVE",
"209 516 OFFCURVE",
"300 516 CURVE SMOOTH",
"391 516 OFFCURVE",
"445 458 OFFCURVE",
"445 360 CURVE SMOOTH",
"445 190 LINE SMOOTH",
"445 91 OFFCURVE",
"392 34 OFFCURVE",
"300 34 CURVE SMOOTH"
);
}
);
width = 600;
}
);
unicode = 01EB;
},
{
glyphname = oslash;
layers = (
{
anchors = (
{
name = bottom;
position = "{300, 0}";
},
{
name = horn;
position = "{320, 550}";
},
{
name = top;
position = "{300, 550}";
}
);
layerId = "9ADF6715-3D0F-493D-8567-18A6FBCFC567";
paths = (
{
closed = 1;
nodes = (
"140 -30 LINE",
"575 590 LINE",
"460 590 LINE",
"25 -30 LINE"
);
},
{
closed = 1;
nodes = (
"447 -10 OFFCURVE",
"540 78 OFFCURVE",
"540 210 CURVE SMOOTH",
"540 340 LINE SMOOTH",
"540 472 OFFCURVE",
"447 560 OFFCURVE",
"300 560 CURVE SMOOTH",
"153 560 OFFCURVE",
"60 472 OFFCURVE",
"60 340 CURVE SMOOTH",
"60 210 LINE SMOOTH",
"60 78 OFFCURVE",
"153 -10 OFFCURVE",
"300 -10 CURVE SMOOTH"
);
},
{
closed = 1;
nodes = (
"237 120 OFFCURVE",
"200 154 OFFCURVE",
"200 210 CURVE SMOOTH",
"200 340 LINE SMOOTH",
"200 396 OFFCURVE",
"237 430 OFFCURVE",
"300 430 CURVE SMOOTH",
"363 430 OFFCURVE",
"400 396 OFFCURVE",
"400 340 CURVE SMOOTH",
"400 210 LINE SMOOTH",
"400 154 OFFCURVE",
"363 120 OFFCURVE",
"300 120 CURVE SMOOTH"
);
}
);
width = 600;
},
{
anchors = (
{
name = bottom;
position = "{300, 0}";
},
{
name = horn;
position = "{332, 550}";
},
{
name = top;
position = "{300, 550}";
}
);
layerId = "CCC0BD40-BA8C-414E-B576-CF0B94E6C996";
paths = (
{
closed = 1;
nodes = (
"125 -30 LINE",
"565 590 LINE",
"474 590 LINE",
"35 -30 LINE"
);
},
{
closed = 1;
nodes = (
"431 -10 OFFCURVE",
"512 69 OFFCURVE",
"512 200 CURVE SMOOTH",
"512 351 LINE SMOOTH",
"512 481 OFFCURVE",
"431 560 OFFCURVE",
"300 560 CURVE SMOOTH",
"169 560 OFFCURVE",
"88 481 OFFCURVE",
"88 350 CURVE SMOOTH",
"88 200 LINE SMOOTH",
"88 69 OFFCURVE",
"169 -10 OFFCURVE",
"300 -10 CURVE SMOOTH"
);
},
{
closed = 1;
nodes = (
"220 70 OFFCURVE",
"173 118 OFFCURVE",
"173 200 CURVE SMOOTH",
"173 350 LINE SMOOTH",
"173 432 OFFCURVE",
"220 480 OFFCURVE",
"300 480 CURVE SMOOTH",
"380 480 OFFCURVE",
"427 432 OFFCURVE",
"427 350 CURVE SMOOTH",
"427 200 LINE SMOOTH",
"427 118 OFFCURVE",
"380 70 OFFCURVE",
"300 70 CURVE SMOOTH"
);
}
);
width = 600;
},
{
anchors = (
{
name = bottom;
position = "{300, 0}";
},
{
name = horn;
position = "{320, 550}";
},
{
name = top;
position = "{300, 550}";
}
);
layerId = "EDF5EB54-295C-4C90-9A2F-67CD82979CFF";
paths = (
{
closed = 1;
nodes = (
"108 -30 LINE",
"541 590 LINE",
"492 590 LINE",
"59 -30 LINE"
);
},
{
closed = 1;
nodes = (
"419 -10 OFFCURVE",
"495 68 OFFCURVE",
"495 190 CURVE SMOOTH",
"495 360 LINE SMOOTH",
"495 481 OFFCURVE",
"418 560 OFFCURVE",
"300 560 CURVE SMOOTH",
"182 560 OFFCURVE",
"105 481 OFFCURVE",
"105 360 CURVE SMOOTH",
"105 190 LINE SMOOTH",
"105 68 OFFCURVE",
"182 -10 OFFCURVE",
"300 -10 CURVE SMOOTH"
);
},
{
closed = 1;
nodes = (
"208 34 OFFCURVE",
"155 91 OFFCURVE",
"155 190 CURVE SMOOTH",
"155 360 LINE SMOOTH",
"155 458 OFFCURVE",
"209 516 OFFCURVE",
"300 516 CURVE SMOOTH",
"391 516 OFFCURVE",
"445 458 OFFCURVE",
"445 360 CURVE SMOOTH",
"445 190 LINE SMOOTH",
"445 91 OFFCURVE",
"392 34 OFFCURVE",
"300 34 CURVE SMOOTH"
);
}
);
width = 600;
}
);
unicode = 00F8;
},
